<svg width="456" height="456" viewBox="0 0 456 456" fill="none" xmlns="http://www.w3.org/2000/svg">
<path opacity="0.7" d="M61.9504 152.387C61.9504 152.387 36.5238 218.042 72.256 284.171C107.979 350.31 181.587 385.221 240.493 415.089C299.399 444.957 360.567 430.41 389.632 381.491C418.697 332.571 378.825 297.651 378.779 227.892C378.734 158.133 389.222 139.665 351.456 80.7315C313.69 21.798 220.985 8.7473 150.907 52.4595C80.8288 96.1716 61.9504 152.387 61.9504 152.387Z" fill="white"/>
<path d="M239.685 78.6798L221.08 82.6014C218.572 83.1303 216.11 81.5252 215.581 79.0172L211.659 60.4124C211.13 57.9044 212.736 55.442 215.244 54.913L233.848 50.9914C236.356 50.4625 238.819 52.0676 239.348 54.5756L243.269 73.1804C243.798 75.6884 242.193 78.1508 239.685 78.6798Z" stroke="#2A3342" stroke-miterlimit="10" stroke-linecap="round" stroke-linejoin="round"/>
<path d="M226.277 61.1523L228.649 72.4429" stroke="#2A3342" stroke-miterlimit="10" stroke-linecap="round" stroke-linejoin="round"/>
<path d="M233.111 65.6016L221.82 67.9819" stroke="#2A3342" stroke-miterlimit="10" stroke-linecap="round" stroke-linejoin="round"/>
<path d="M427.255 277.625L408.651 281.547C406.143 282.076 403.68 280.471 403.151 277.963L399.23 259.358C398.701 256.85 400.306 254.387 402.814 253.858L421.419 249.937C423.927 249.408 426.389 251.013 426.918 253.521L430.84 272.126C431.369 274.634 429.763 277.096 427.255 277.625Z" stroke="#2A3342" stroke-miterlimit="10" stroke-linecap="round" stroke-linejoin="round"/>
<path d="M418.189 260.898L411.887 270.566" stroke="#2A3342" stroke-miterlimit="10" stroke-linecap="round" stroke-linejoin="round"/>
<path d="M419.866 268.889L410.199 262.578" stroke="#2A3342" stroke-miterlimit="10" stroke-linecap="round" stroke-linejoin="round"/>
<path d="M169.149 398.31L150.161 397.216C147.599 397.07 145.647 394.872 145.793 392.309L146.887 373.321C147.033 370.759 149.231 368.807 151.794 368.953L170.782 370.047C173.344 370.193 175.296 372.391 175.15 374.954L174.056 393.942C173.91 396.495 171.712 398.456 169.149 398.31Z" stroke="#2A3342" stroke-miterlimit="10" stroke-linecap="round" stroke-linejoin="round"/>
<path d="M166.239 383.963L154.711 383.297" stroke="#2A3342" stroke-miterlimit="10" stroke-linecap="round" stroke-linejoin="round"/>
<path d="M47.8349 265.576L29.7864 259.594C27.3514 258.791 26.029 256.164 26.8407 253.729L32.8234 235.681C33.6259 233.246 36.2525 231.924 38.6875 232.735L56.736 238.718C59.1711 239.52 60.4935 242.147 59.6818 244.582L53.6991 262.631C52.8965 265.066 50.2699 266.388 47.8349 265.576Z" stroke="#2A3342" stroke-miterlimit="10" stroke-linecap="round" stroke-linejoin="round"/>
<path d="M50.4799 245.531L36.043 252.782" stroke="#2A3342" stroke-miterlimit="10" stroke-linecap="round" stroke-linejoin="round"/>
<path d="M42.1975 242.547C42.6991 243.542 42.2978 244.754 41.3037 245.256C40.3096 245.758 39.0967 245.356 38.5951 244.362C38.0935 243.368 38.4948 242.155 39.4888 241.654C40.4829 241.152 41.6959 241.553 42.1975 242.547Z" stroke="#2A3342" stroke-miterlimit="10" stroke-linecap="round" stroke-linejoin="round"/>
<path d="M47.924 253.958C48.4256 254.952 48.0244 256.165 47.0303 256.666C46.0362 257.168 44.8232 256.767 44.3216 255.772C43.82 254.778 44.2213 253.565 45.2154 253.064C46.2095 252.562 47.4224 252.963 47.924 253.958Z" stroke="#2A3342" stroke-miterlimit="10" stroke-linecap="round" stroke-linejoin="round"/>
<path d="M235.022 365.52C229.751 373.153 219.281 375.06 211.648 369.788C208.702 367.745 206.613 364.936 205.446 361.817C203.613 356.847 204.142 351.092 207.379 346.404C209.641 343.139 212.851 340.923 216.381 339.875C221.105 338.452 226.395 339.127 230.763 342.145C238.397 347.417 240.303 357.887 235.022 365.52Z" fill="#86EFAC"/>
<mask id="mask0_279_6036" style="mask-type:luminance" maskUnits="userSpaceOnUse" x="204" y="339" width="35" height="34">
<path d="M235.022 365.52C229.751 373.153 219.281 375.06 211.648 369.788C208.702 367.745 206.613 364.936 205.446 361.817C203.613 356.847 204.142 351.092 207.379 346.404C209.641 343.139 212.851 340.923 216.381 339.875C221.105 338.452 226.395 339.127 230.763 342.145C238.397 347.417 240.303 357.887 235.022 365.52Z" fill="white"/>
</mask>
<g mask="url(#mask0_279_6036)">
<path opacity="0.3" d="M232.832 364.008C228.391 370.428 219.59 372.033 213.161 367.592C206.731 363.15 205.135 354.349 209.576 347.92C214.018 341.499 222.819 339.894 229.248 344.336C235.669 348.777 237.274 357.578 232.832 364.008Z" fill="black" fill-opacity="0.7"/>
</g>
<mask id="mask1_279_6036" style="mask-type:luminance" maskUnits="userSpaceOnUse" x="204" y="339" width="35" height="34">
<path d="M235.022 365.52C229.751 373.153 219.281 375.06 211.648 369.788C208.702 367.745 206.613 364.936 205.446 361.817C203.613 356.847 204.142 351.092 207.379 346.404C209.641 343.139 212.851 340.923 216.381 339.875C221.105 338.452 226.395 339.127 230.763 342.145C238.397 347.417 240.303 357.887 235.022 365.52Z" fill="white"/>
</mask>
<g mask="url(#mask1_279_6036)">
<path d="M232.832 364.008C228.391 370.428 219.59 372.033 213.161 367.592C206.731 363.15 205.135 354.349 209.576 347.92C214.018 341.499 222.819 339.894 229.248 344.336C235.669 348.777 237.274 357.578 232.832 364.008Z" stroke="#2A3342" stroke-miterlimit="10" stroke-linecap="round" stroke-linejoin="round"/>
</g>
<mask id="mask2_279_6036" style="mask-type:luminance" maskUnits="userSpaceOnUse" x="204" y="339" width="35" height="34">
<path d="M235.022 365.52C229.751 373.153 219.281 375.06 211.648 369.788C208.702 367.745 206.613 364.936 205.446 361.817C203.613 356.847 204.142 351.092 207.379 346.404C209.641 343.139 212.851 340.923 216.381 339.875C221.105 338.452 226.395 339.127 230.763 342.145C238.397 347.417 240.303 357.887 235.022 365.52Z" fill="white"/>
</mask>
<g mask="url(#mask2_279_6036)">
<path d="M224.825 348.903L225.5 347.918L227.196 349.094L226.521 350.079C227.789 351.402 227.753 353.053 226.521 354.84L226.23 355.26L224.269 353.901L224.643 353.354C225.299 352.414 225.163 351.794 224.506 351.338C223.849 350.882 223.22 350.982 222.572 351.922C221.925 352.861 221.843 353.782 222.472 355.862C223.229 358.397 223.101 359.838 222.053 361.343C220.812 363.13 219.244 363.75 217.566 363.03L216.9 363.997L215.204 362.82L215.869 361.853C214.583 360.522 214.629 358.853 215.869 357.056L216.499 356.153L218.459 357.512L217.739 358.552C217.082 359.491 217.265 360.121 217.93 360.577C218.587 361.033 219.244 360.978 219.891 360.038C220.539 359.099 220.639 358.16 219.992 356.099C219.216 353.581 219.362 352.122 220.411 350.618C221.633 348.848 223.156 348.219 224.825 348.903Z" fill="#86EFAC" stroke="#2A3342" stroke-miterlimit="10" stroke-linecap="round" stroke-linejoin="round"/>
</g>
<mask id="mask3_279_6036" style="mask-type:luminance" maskUnits="userSpaceOnUse" x="204" y="339" width="35" height="34">
<path d="M235.022 365.52C229.751 373.153 219.281 375.06 211.648 369.788C208.702 367.745 206.613 364.936 205.446 361.817C203.613 356.847 204.142 351.092 207.379 346.404C209.641 343.139 212.851 340.923 216.381 339.875C221.105 338.452 226.395 339.127 230.763 342.145C238.397 347.417 240.303 357.887 235.022 365.52Z" fill="white"/>
</mask>
<g mask="url(#mask3_279_6036)">
<path opacity="0.2" d="M216.518 342.347C216.518 350.627 212.076 357.869 205.446 361.818C203.613 356.847 204.142 351.093 207.379 346.405C209.641 343.14 212.851 340.924 216.381 339.875C216.472 340.687 216.518 341.507 216.518 342.347Z" fill="black" fill-opacity="0.7"/>
</g>
<path d="M235.022 365.52C229.751 373.153 219.281 375.06 211.648 369.788C208.702 367.745 206.613 364.936 205.446 361.817C203.613 356.847 204.142 351.092 207.379 346.404C209.641 343.139 212.851 340.923 216.381 339.875C221.105 338.452 226.395 339.127 230.763 342.145C238.397 347.417 240.303 357.887 235.022 365.52Z" stroke="#2A3342" stroke-miterlimit="10" stroke-linecap="round" stroke-linejoin="round"/>
<path d="M197.211 358.636C206.493 358.636 214.019 351.111 214.019 341.828C214.019 332.545 206.493 325.02 197.211 325.02C187.928 325.02 180.402 332.545 180.402 341.828C180.402 351.111 187.928 358.636 197.211 358.636Z" fill="#86EFAC" stroke="#2A3342" stroke-miterlimit="10" stroke-linecap="round" stroke-linejoin="round"/>
<path opacity="0.3" d="M197.21 355.963C205.017 355.963 211.346 349.635 211.346 341.827C211.346 334.02 205.017 327.691 197.21 327.691C189.403 327.691 183.074 334.02 183.074 341.827C183.074 349.635 189.403 355.963 197.21 355.963Z" fill="black" fill-opacity="0.7"/>
<path d="M197.21 355.963C205.017 355.963 211.346 349.635 211.346 341.827C211.346 334.02 205.017 327.691 197.21 327.691C189.403 327.691 183.074 334.02 183.074 341.827C183.074 349.635 189.403 355.963 197.21 355.963Z" stroke="#2A3342" stroke-miterlimit="10" stroke-linecap="round" stroke-linejoin="round"/>
<path d="M196.18 333.956V332.762H198.241V333.956C200.029 334.321 200.95 335.698 200.95 337.878V338.38H198.56V337.714C198.56 336.565 198.104 336.127 197.302 336.127C196.499 336.127 196.043 336.565 196.043 337.714C196.043 338.863 196.499 339.666 198.196 341.015C200.257 342.666 200.968 343.925 200.968 345.758C200.968 347.937 200.029 349.333 198.241 349.698V350.865H196.18V349.698C194.365 349.333 193.453 347.928 193.453 345.758V344.654H195.843V345.913C195.843 347.062 196.344 347.472 197.147 347.472C197.949 347.472 198.451 347.062 198.451 345.913C198.451 344.764 197.995 343.943 196.299 342.611C194.237 340.979 193.526 339.702 193.526 337.86C193.517 335.726 194.411 334.349 196.18 333.956Z" fill="#86EFAC" stroke="#2A3342" stroke-miterlimit="10" stroke-linecap="round" stroke-linejoin="round"/>
<path d="M291.545 355.937C296.553 348.12 294.277 337.724 286.46 332.716C278.644 327.708 268.248 329.984 263.24 337.801C258.232 345.617 260.508 356.013 268.324 361.021C276.141 366.029 286.537 363.753 291.545 355.937Z" fill="#86EFAC" stroke="#2A3342" stroke-miterlimit="10" stroke-linecap="round" stroke-linejoin="round"/>
<path opacity="0.3" d="M287.745 337.267C293.062 342.985 292.725 351.932 287.007 357.249C281.288 362.566 272.342 362.228 267.025 356.51C261.708 350.792 262.045 341.845 267.763 336.528C273.491 331.211 282.438 331.539 287.745 337.267Z" fill="black" fill-opacity="0.7"/>
<path d="M287.745 337.267C293.062 342.985 292.725 351.932 287.007 357.249C281.288 362.566 272.342 362.228 267.025 356.51C261.708 350.792 262.045 341.845 267.763 336.528C273.491 331.211 282.438 331.539 287.745 337.267Z" stroke="#2A3342" stroke-miterlimit="10" stroke-linecap="round" stroke-linejoin="round"/>
<path d="M271.284 341.827L270.473 340.951L271.987 339.547L272.798 340.422C274.358 339.474 275.963 339.857 277.449 341.453L277.796 341.827L276.045 343.45L275.589 342.967C274.805 342.128 274.175 342.119 273.592 342.666C273.008 343.213 272.962 343.842 273.747 344.681C274.531 345.52 275.407 345.794 277.577 345.63C280.213 345.438 281.59 345.876 282.839 347.217C284.326 348.813 284.581 350.482 283.523 351.959L284.317 352.816L282.803 354.221L282.009 353.364C280.432 354.33 278.808 353.929 277.331 352.333L276.583 351.531L278.334 349.907L279.191 350.828C279.976 351.667 280.623 351.631 281.207 351.084C281.791 350.536 281.882 349.889 281.107 349.05C280.322 348.211 279.428 347.919 277.276 348.101C274.659 348.311 273.263 347.855 272.014 346.515C270.536 344.928 270.254 343.313 271.284 341.827Z" fill="#86EFAC" stroke="#2A3342" stroke-miterlimit="10" stroke-linecap="round" stroke-linejoin="round"/>
<path opacity="0.2" d="M270.473 273.828C270.473 273.828 270.401 308.703 270.473 310.737C270.546 312.771 273.182 325.019 273.182 325.019L264.719 340.623L272.006 346.496L286.187 332.552C286.187 332.552 298.262 340.012 300.469 350.682C302.676 361.353 315.818 369.123 329.452 398.672C343.087 428.221 358.636 332.552 358.636 332.552L316.566 279.583L270.473 273.828Z" fill="black" fill-opacity="0.7"/>
<path d="M399.082 86.4659L386.196 212.212L378.27 289.568L267.517 278.223L245.967 276.016L232.168 274.602L244.398 155.222L252.98 71.5L399.082 86.4659Z" fill="white"/>
<mask id="mask4_279_6036" style="mask-type:luminance" maskUnits="userSpaceOnUse" x="232" y="71" width="168" height="219">
<path d="M399.082 86.4659L386.196 212.212L378.27 289.568L267.517 278.223L245.967 276.016L232.168 274.602L244.398 155.222L252.98 71.5L399.082 86.4659Z" fill="white"/>
</mask>
<g mask="url(#mask4_279_6036)">
<path d="M356.598 91.6619L356.599 91.662C357.511 91.7532 358.174 92.5659 358.076 93.4731L358.076 93.4769C357.985 94.3848 357.175 95.0445 356.261 94.9535C356.261 94.9535 356.261 94.9534 356.261 94.9534L293.197 88.4875L293.196 88.4873C292.288 88.3965 291.628 87.5861 291.719 86.6725C291.81 85.7646 292.62 85.1049 293.534 85.1959C293.534 85.1959 293.534 85.196 293.534 85.196L356.598 91.6619Z" fill="#333F51" stroke="#2A3342"/>
</g>
<mask id="mask5_279_6036" style="mask-type:luminance" maskUnits="userSpaceOnUse" x="232" y="71" width="168" height="219">
<path d="M399.082 86.4659L386.196 212.212L378.27 289.568L267.517 278.223L245.967 276.016L232.168 274.602L244.398 155.222L252.98 71.5L399.082 86.4659Z" fill="white"/>
</mask>
<g mask="url(#mask5_279_6036)">
<path d="M339.936 98.8571L339.94 98.8575C340.243 98.8859 340.481 99.1645 340.447 99.4917C340.412 99.8063 340.125 100.039 339.812 100.006L339.809 100.005L308.276 96.7774C308.275 96.7773 308.275 96.7773 308.275 96.7772C307.96 96.742 307.728 96.4552 307.761 96.1427C307.796 95.828 308.083 95.5946 308.396 95.6283L308.399 95.6286L339.936 98.8571Z" fill="#333F51" stroke="#2A3342"/>
</g>
<mask id="mask6_279_6036" style="mask-type:luminance" maskUnits="userSpaceOnUse" x="232" y="71" width="168" height="219">
<path d="M399.082 86.4659L386.196 212.212L378.27 289.568L267.517 278.223L245.967 276.016L232.168 274.602L244.398 155.222L252.98 71.5L399.082 86.4659Z" fill="white"/>
</mask>
<g mask="url(#mask6_279_6036)">
<path d="M374.625 191.66L374.63 191.66C374.935 191.688 375.171 191.978 375.136 192.293L375.633 192.348L375.136 192.293C375.102 192.608 374.814 192.842 374.501 192.808L374.499 192.808L272.139 182.32C272.139 182.32 272.138 182.32 272.138 182.32C271.824 182.285 271.591 181.998 271.624 181.686C271.659 181.371 271.946 181.138 272.259 181.171L272.262 181.172L374.625 191.66Z" fill="#333F51" stroke="#2A3342"/>
<path d="M254.806 187.171L254.809 187.172L373.831 199.365C373.832 199.365 373.832 199.365 373.832 199.365C374.152 199.4 374.379 199.683 374.345 200C374.311 200.314 374.023 200.547 373.71 200.514L373.708 200.513L254.686 188.32C254.686 188.32 254.685 188.32 254.685 188.32C254.371 188.285 254.138 187.998 254.171 187.686C254.206 187.371 254.493 187.138 254.806 187.171Z" fill="#333F51" stroke="#2A3342"/>
<path d="M339.715 203.661L339.72 203.662C340.025 203.69 340.261 203.979 340.227 204.295C340.192 204.61 339.905 204.844 339.592 204.81L339.589 204.81L253.901 196.027C253.9 196.027 253.9 196.027 253.9 196.027C253.585 195.992 253.353 195.705 253.386 195.393C253.421 195.078 253.708 194.845 254.021 194.878L254.024 194.879L339.715 203.661Z" fill="#333F51" stroke="#2A3342"/>
</g>
<mask id="mask7_279_6036" style="mask-type:luminance" maskUnits="userSpaceOnUse" x="151" y="123" width="231" height="187">
<path d="M181.303 123.987L305.082 149.62L381.228 165.386L358.656 274.408L354.265 295.621L351.453 309.204L233.939 284.873L151.527 267.804L181.303 123.987Z" fill="white"/>
</mask>
<g mask="url(#mask7_279_6036)">
<path d="M252.716 202.69L249.234 236.676L369.228 248.967L372.71 214.981L252.716 202.69Z" fill="#BFBFBF" stroke="#2A3342" stroke-miterlimit="10"/>
</g>
<mask id="mask8_279_6036" style="mask-type:luminance" maskUnits="userSpaceOnUse" x="232" y="71" width="168" height="219">
<path d="M399.082 86.4659L386.196 212.212L378.27 289.568L267.517 278.223L245.967 276.016L232.168 274.602L244.398 155.222L252.98 71.5L399.082 86.4659Z" fill="white"/>
</mask>
<g mask="url(#mask8_279_6036)">
<path d="M307.748 163.373C319.082 153.93 320.615 137.086 311.172 125.752C301.729 114.417 284.885 112.884 273.55 122.327C262.216 131.77 260.683 148.614 270.126 159.949C279.569 171.283 296.413 172.817 307.748 163.373Z" fill="#86EFAC"/>
<mask id="mask9_279_6036" style="mask-type:luminance" maskUnits="userSpaceOnUse" x="263" y="116" width="55" height="54">
<path d="M316.913 147.666C319.577 133.155 309.973 119.233 295.463 116.569C280.952 113.905 267.03 123.509 264.366 138.019C261.702 152.53 271.306 166.452 285.817 169.116C300.327 171.78 314.25 162.176 316.913 147.666Z" fill="white"/>
</mask>
<g mask="url(#mask9_279_6036)">
<path opacity="0.5" d="M307.748 163.374C319.083 153.93 320.616 137.086 311.172 125.752C301.729 114.417 284.885 112.884 273.551 122.327C262.216 131.77 260.683 148.614 270.126 159.949C279.569 171.284 296.413 172.817 307.748 163.374Z" fill="white"/>
</g>
<path d="M307.748 163.373C319.082 153.93 320.615 137.086 311.172 125.752C301.729 114.417 284.885 112.884 273.55 122.327C262.216 131.77 260.683 148.614 270.126 159.949C279.569 171.283 296.413 172.817 307.748 163.373Z" stroke="#2A3342" stroke-width="1.00001" stroke-miterlimit="10"/>
<path d="M291.422 142.784L313.638 153.965C314.897 151.366 315.727 148.511 316.037 145.474C316.739 138.616 314.651 132.114 310.702 127.098L291.422 142.784Z" fill="white"/>
<path d="M291.566 141.58L310.171 126.441C307.426 123.185 303.878 120.604 299.784 119.035L296.427 128.246L291.566 141.58Z" fill="#86EFAC"/>
<path d="M293.675 117.539L291.422 139.555L299.001 118.752C297.304 118.168 295.526 117.758 293.675 117.539Z" fill="#757575"/>
<path d="M290.262 142.582L292.834 117.447C278.989 116.252 266.686 126.385 265.264 140.256C264.799 144.78 265.556 149.139 267.243 153.024L290.262 142.582Z" fill="#999999"/>
<path d="M288.054 168.244C298.742 169.338 308.556 163.666 313.252 154.701L290.644 143.328L267.598 153.798C271.3 161.577 278.852 167.305 288.054 168.244Z" fill="#BFBFBF"/>
<path d="M333.09 129.705L330.044 129.395C329.734 129.359 329.506 129.085 329.533 128.766L329.844 125.72C329.88 125.41 330.154 125.182 330.473 125.209L333.519 125.519C333.829 125.556 334.057 125.829 334.03 126.149L333.72 129.195C333.683 129.505 333.409 129.733 333.09 129.705Z" fill="#86EFAC" stroke="#2A3342" stroke-miterlimit="10"/>
<mask id="path-55-inside-1_279_6036" fill="white">
<path d="M375.866 131.4L336.595 127.378C336.331 127.351 336.139 127.114 336.167 126.849C336.194 126.585 336.431 126.393 336.696 126.421L375.957 130.442C376.222 130.47 376.413 130.707 376.386 130.971C376.368 131.236 376.131 131.427 375.866 131.4Z"/>
</mask>
<path d="M375.866 131.4L336.595 127.378C336.331 127.351 336.139 127.114 336.167 126.849C336.194 126.585 336.431 126.393 336.696 126.421L375.957 130.442C376.222 130.47 376.413 130.707 376.386 130.971C376.368 131.236 376.131 131.427 375.866 131.4Z" fill="#333F51"/>
<path d="M375.866 131.4L375.969 130.405L375.968 130.405L375.866 131.4ZM336.595 127.378L336.492 128.373L336.493 128.373L336.595 127.378ZM336.696 126.421L336.593 127.415L336.594 127.415L336.696 126.421ZM375.957 130.442L376.06 129.448L376.059 129.448L375.957 130.442ZM376.386 130.971L375.391 130.869L375.389 130.886L375.388 130.903L376.386 130.971ZM375.968 130.405L336.697 126.383L336.493 128.373L375.764 132.395L375.968 130.405ZM336.698 126.383C336.986 126.413 337.19 126.671 337.161 126.952L335.172 126.746C335.088 127.557 335.675 128.288 336.492 128.373L336.698 126.383ZM337.161 126.952C337.132 127.24 336.874 127.444 336.593 127.415L336.799 125.426C335.988 125.342 335.257 125.929 335.172 126.746L337.161 126.952ZM336.594 127.415L375.855 131.437L376.059 129.448L336.798 125.426L336.594 127.415ZM375.854 131.437C375.566 131.407 375.362 131.15 375.391 130.869L377.381 131.074C377.464 130.264 376.877 129.532 376.06 129.448L375.854 131.437ZM375.388 130.903C375.411 130.578 375.696 130.377 375.969 130.405L375.763 132.395C376.565 132.478 377.325 131.894 377.383 131.04L375.388 130.903Z" fill="#2A3342" mask="url(#path-55-inside-1_279_6036)"/>
<mask id="path-57-inside-2_279_6036" fill="white">
<path d="M371.806 133.098L336.384 129.468C336.12 129.441 335.928 129.204 335.956 128.939C335.983 128.675 336.22 128.483 336.485 128.51L371.907 132.14C372.171 132.168 372.363 132.405 372.335 132.669C372.308 132.934 372.071 133.125 371.806 133.098Z"/>
</mask>
<path d="M371.806 133.098L336.384 129.468C336.12 129.441 335.928 129.204 335.956 128.939C335.983 128.675 336.22 128.483 336.485 128.51L371.907 132.14C372.171 132.168 372.363 132.405 372.335 132.669C372.308 132.934 372.071 133.125 371.806 133.098Z" fill="#333F51"/>
<path d="M371.806 133.098L371.909 132.103L371.908 132.103L371.806 133.098ZM336.384 129.468L336.281 130.463L336.282 130.463L336.384 129.468ZM336.485 128.51L336.382 129.505L336.383 129.505L336.485 128.51ZM371.907 132.14L372.01 131.145L372.009 131.145L371.907 132.14ZM371.908 132.103L336.486 128.473L336.282 130.463L371.705 134.093L371.908 132.103ZM336.487 128.473C336.776 128.503 336.98 128.76 336.95 129.042L334.961 128.836C334.877 129.647 335.464 130.378 336.281 130.463L336.487 128.473ZM336.95 129.042C336.921 129.33 336.663 129.534 336.382 129.505L336.588 127.516C335.777 127.432 335.046 128.019 334.961 128.836L336.95 129.042ZM336.383 129.505L371.805 133.135L372.009 131.145L336.587 127.516L336.383 129.505ZM371.804 133.135C371.516 133.105 371.312 132.848 371.341 132.566L373.33 132.772C373.414 131.962 372.827 131.23 372.01 131.145L371.804 133.135ZM371.341 132.566C371.371 132.278 371.628 132.074 371.909 132.103L371.704 134.092C372.514 134.176 373.246 133.589 373.33 132.772L371.341 132.566Z" fill="#2A3342" mask="url(#path-57-inside-2_279_6036)"/>
<path d="M332.133 139.073L329.087 138.763C328.777 138.726 328.549 138.452 328.576 138.133L328.887 135.087C328.923 134.777 329.197 134.549 329.516 134.576L332.562 134.887C332.872 134.923 333.1 135.197 333.073 135.516L332.763 138.562C332.726 138.881 332.443 139.109 332.133 139.073Z" fill="#757575" stroke="#2A3342" stroke-miterlimit="10" stroke-linecap="round" stroke-linejoin="round"/>
<mask id="path-60-inside-3_279_6036" fill="white">
<path d="M374.904 140.767L335.642 136.745C335.378 136.718 335.186 136.481 335.214 136.216C335.241 135.952 335.478 135.76 335.743 135.788L375.004 139.81C375.269 139.837 375.46 140.074 375.433 140.339C375.405 140.603 375.168 140.795 374.904 140.767Z"/>
</mask>
<path d="M374.904 140.767L335.642 136.745C335.378 136.718 335.186 136.481 335.214 136.216C335.241 135.952 335.478 135.76 335.743 135.788L375.004 139.81C375.269 139.837 375.46 140.074 375.433 140.339C375.405 140.603 375.168 140.795 374.904 140.767Z" fill="#333F51"/>
<path d="M374.904 140.767L375.007 139.773L375.006 139.772L374.904 140.767ZM335.642 136.745L335.539 137.74L335.54 137.74L335.642 136.745ZM335.743 135.788L335.64 136.782L335.641 136.783L335.743 135.788ZM375.004 139.81L375.107 138.815L375.106 138.815L375.004 139.81ZM375.006 139.772L335.744 135.751L335.54 137.74L374.802 141.762L375.006 139.772ZM335.745 135.751C336.033 135.78 336.237 136.038 336.208 136.319L334.219 136.114C334.135 136.924 334.722 137.656 335.539 137.74L335.745 135.751ZM336.208 136.319C336.178 136.608 335.921 136.812 335.64 136.782L335.845 134.793C335.035 134.709 334.303 135.296 334.219 136.114L336.208 136.319ZM335.641 136.783L374.902 140.804L375.106 138.815L335.844 134.793L335.641 136.783ZM374.901 140.804C374.613 140.775 374.409 140.517 374.438 140.236L376.427 140.442C376.511 139.631 375.924 138.9 375.107 138.815L374.901 140.804ZM374.438 140.236C374.468 139.947 374.725 139.743 375.007 139.773L374.801 141.762C375.611 141.846 376.343 141.259 376.427 140.442L374.438 140.236Z" fill="#2A3342" mask="url(#path-60-inside-3_279_6036)"/>
<mask id="path-62-inside-4_279_6036" fill="white">
<path d="M370.838 142.473L335.416 138.843C335.151 138.816 334.96 138.579 334.987 138.314C335.014 138.05 335.251 137.858 335.516 137.885L370.938 141.515C371.203 141.543 371.394 141.78 371.367 142.044C371.348 142.299 371.111 142.5 370.838 142.473Z"/>
</mask>
<path d="M370.838 142.473L335.416 138.843C335.151 138.816 334.96 138.579 334.987 138.314C335.014 138.05 335.251 137.858 335.516 137.885L370.938 141.515C371.203 141.543 371.394 141.78 371.367 142.044C371.348 142.299 371.111 142.5 370.838 142.473Z" fill="#333F51"/>
<path d="M370.838 142.473L370.736 143.468L370.738 143.468L370.838 142.473ZM335.416 138.843L335.313 139.838L335.314 139.838L335.416 138.843ZM335.516 137.885L335.413 138.88L335.414 138.88L335.516 137.885ZM370.938 141.515L371.041 140.52L371.04 140.52L370.938 141.515ZM371.367 142.044L370.372 141.941L370.37 141.957L370.369 141.973L371.367 142.044ZM370.94 141.478L335.518 137.848L335.314 139.838L370.736 143.468L370.94 141.478ZM335.519 137.848C335.807 137.878 336.011 138.135 335.982 138.417L333.992 138.211C333.908 139.022 334.496 139.753 335.313 139.838L335.519 137.848ZM335.982 138.417C335.952 138.705 335.695 138.909 335.413 138.88L335.619 136.891C334.808 136.807 334.077 137.394 333.992 138.211L335.982 138.417ZM335.414 138.88L370.836 142.51L371.04 140.52L335.618 136.891L335.414 138.88ZM370.835 142.51C370.547 142.48 370.343 142.223 370.372 141.941L372.361 142.147C372.445 141.337 371.858 140.605 371.041 140.52L370.835 142.51ZM370.369 141.973C370.393 141.643 370.674 141.451 370.937 141.478L370.738 143.468C371.549 143.549 372.304 142.956 372.364 142.115L370.369 141.973Z" fill="#2A3342" mask="url(#path-62-inside-4_279_6036)"/>
<path d="M331.176 148.44L328.13 148.13C327.82 148.093 327.592 147.82 327.619 147.5L327.929 144.454C327.966 144.144 328.24 143.916 328.559 143.944L331.605 144.254C331.915 144.29 332.143 144.564 332.116 144.883L331.805 147.929C331.769 148.248 331.486 148.476 331.176 148.44Z" fill="#999999" stroke="#2A3342" stroke-miterlimit="10" stroke-linecap="round" stroke-linejoin="round"/>
<mask id="path-65-inside-5_279_6036" fill="white">
<path d="M373.939 150.146L334.677 146.124C334.413 146.097 334.221 145.86 334.249 145.595C334.276 145.331 334.513 145.139 334.778 145.167L374.039 149.189C374.304 149.216 374.495 149.453 374.468 149.718C374.441 149.982 374.203 150.174 373.939 150.146Z"/>
</mask>
<path d="M373.939 150.146L334.677 146.124C334.413 146.097 334.221 145.86 334.249 145.595C334.276 145.331 334.513 145.139 334.778 145.167L374.039 149.189C374.304 149.216 374.495 149.453 374.468 149.718C374.441 149.982 374.203 150.174 373.939 150.146Z" fill="#333F51"/>
<path d="M373.939 150.146L374.042 149.151L374.041 149.151L373.939 150.146ZM334.677 146.124L334.574 147.119L334.575 147.119L334.677 146.124ZM334.778 145.167L334.675 146.161L334.676 146.161L334.778 145.167ZM374.039 149.189L374.142 148.194L374.141 148.194L374.039 149.189ZM374.041 149.151L334.779 145.129L334.575 147.119L373.837 151.141L374.041 149.151ZM334.78 145.13C335.068 145.159 335.273 145.417 335.243 145.698L333.254 145.492C333.17 146.303 333.757 147.034 334.574 147.119L334.78 145.13ZM335.243 145.698C335.214 145.986 334.956 146.19 334.675 146.161L334.881 144.172C334.07 144.088 333.339 144.675 333.254 145.492L335.243 145.698ZM334.676 146.161L373.937 150.183L374.141 148.194L334.88 144.172L334.676 146.161ZM373.936 150.183C373.648 150.153 373.444 149.896 373.473 149.615L375.463 149.82C375.546 149.01 374.959 148.278 374.142 148.194L373.936 150.183ZM373.473 149.615C373.503 149.326 373.76 149.122 374.042 149.151L373.836 151.141C374.646 151.225 375.378 150.638 375.463 149.82L373.473 149.615Z" fill="#2A3342" mask="url(#path-65-inside-5_279_6036)"/>
<mask id="path-67-inside-6_279_6036" fill="white">
<path d="M369.881 151.844L334.459 148.214C334.194 148.187 334.003 147.95 334.03 147.685C334.057 147.421 334.294 147.229 334.559 147.257L369.981 150.886C370.245 150.914 370.437 151.151 370.41 151.415C370.382 151.68 370.145 151.871 369.881 151.844Z"/>
</mask>
<path d="M369.881 151.844L334.459 148.214C334.194 148.187 334.003 147.95 334.03 147.685C334.057 147.421 334.294 147.229 334.559 147.257L369.981 150.886C370.245 150.914 370.437 151.151 370.41 151.415C370.382 151.68 370.145 151.871 369.881 151.844Z" fill="#333F51"/>
<path d="M369.881 151.844L369.984 150.849L369.983 150.849L369.881 151.844ZM334.459 148.214L334.356 149.209L334.357 149.209L334.459 148.214ZM334.559 147.257L334.456 148.251L334.457 148.251L334.559 147.257ZM369.981 150.886L370.084 149.892L370.083 149.891L369.981 150.886ZM369.983 150.849L334.561 147.219L334.357 149.209L369.779 152.839L369.983 150.849ZM334.561 147.219C334.85 147.249 335.054 147.507 335.025 147.788L333.035 147.582C332.951 148.393 333.538 149.124 334.356 149.209L334.561 147.219ZM335.025 147.788C334.995 148.076 334.737 148.28 334.456 148.251L334.662 146.262C333.851 146.178 333.12 146.765 333.035 147.582L335.025 147.788ZM334.457 148.251L369.879 151.881L370.083 149.891L334.661 146.262L334.457 148.251ZM369.878 151.881C369.59 151.851 369.386 151.594 369.415 151.312L371.404 151.518C371.488 150.708 370.901 149.976 370.084 149.892L369.878 151.881ZM369.415 151.312C369.445 151.024 369.702 150.82 369.984 150.849L369.778 152.839C370.588 152.922 371.32 152.335 371.404 151.518L369.415 151.312Z" fill="#2A3342" mask="url(#path-67-inside-6_279_6036)"/>
<path d="M330.207 157.815L327.161 157.505C326.851 157.468 326.623 157.195 326.651 156.875L326.961 153.829C326.997 153.519 327.271 153.291 327.59 153.319L330.636 153.629C330.946 153.665 331.174 153.939 331.147 154.258L330.837 157.304C330.809 157.614 330.527 157.842 330.207 157.815Z" fill="#BFBFBF" stroke="#2A3342" stroke-miterlimit="10"/>
<mask id="path-70-inside-7_279_6036" fill="white">
<path d="M372.982 159.509L333.72 155.488C333.456 155.46 333.264 155.223 333.292 154.959C333.319 154.694 333.556 154.503 333.821 154.53L373.082 158.552C373.347 158.579 373.538 158.816 373.511 159.081C373.483 159.345 373.246 159.537 372.982 159.509Z"/>
</mask>
<path d="M372.982 159.509L333.72 155.488C333.456 155.46 333.264 155.223 333.292 154.959C333.319 154.694 333.556 154.503 333.821 154.53L373.082 158.552C373.347 158.579 373.538 158.816 373.511 159.081C373.483 159.345 373.246 159.537 372.982 159.509Z" fill="#333F51"/>
<path d="M372.982 159.509L373.085 158.515L373.084 158.515L372.982 159.509ZM333.72 155.488L333.617 156.482L333.618 156.482L333.72 155.488ZM333.821 154.53L333.718 155.525L333.719 155.525L333.821 154.53ZM373.082 158.552L373.185 157.557L373.184 157.557L373.082 158.552ZM373.084 158.515L333.822 154.493L333.618 156.482L372.88 160.504L373.084 158.515ZM333.823 154.493C334.111 154.523 334.315 154.78 334.286 155.061L332.297 154.856C332.213 155.666 332.8 156.398 333.617 156.482L333.823 154.493ZM334.286 155.061C334.257 155.35 333.999 155.554 333.718 155.525L333.924 153.535C333.113 153.451 332.382 154.039 332.297 154.856L334.286 155.061ZM333.719 155.525L372.98 159.547L373.184 157.557L333.923 153.535L333.719 155.525ZM372.979 159.547C372.691 159.517 372.487 159.259 372.516 158.978L374.506 159.184C374.589 158.373 374.002 157.642 373.185 157.557L372.979 159.547ZM372.516 158.978C372.546 158.69 372.803 158.486 373.085 158.515L372.879 160.504C373.689 160.588 374.421 160.001 374.506 159.184L372.516 158.978Z" fill="#2A3342" mask="url(#path-70-inside-7_279_6036)"/>
<path d="M333.602 156.62L333.602 156.62L333.602 156.62Z" fill="#333F51" stroke="#2A3342"/>
<path d="M329.25 167.178L326.204 166.868C325.894 166.832 325.666 166.558 325.694 166.239L326.004 163.193C326.04 162.883 326.314 162.655 326.633 162.682L329.679 162.992C329.989 163.028 330.217 163.302 330.19 163.621L329.88 166.667C329.843 166.987 329.57 167.215 329.25 167.178Z" fill="white" stroke="#2A3342" stroke-miterlimit="10" stroke-linecap="round" stroke-linejoin="round"/>
<mask id="path-74-inside-8_279_6036" fill="white">
<path d="M372.025 168.873L332.763 164.851C332.499 164.823 332.307 164.586 332.335 164.322C332.362 164.057 332.599 163.866 332.864 163.893L372.125 167.915C372.39 167.942 372.581 168.18 372.554 168.444C372.526 168.709 372.289 168.9 372.025 168.873Z"/>
</mask>
<path d="M372.025 168.873L332.763 164.851C332.499 164.823 332.307 164.586 332.335 164.322C332.362 164.057 332.599 163.866 332.864 163.893L372.125 167.915C372.39 167.942 372.581 168.18 372.554 168.444C372.526 168.709 372.289 168.9 372.025 168.873Z" fill="#333F51"/>
<path d="M372.025 168.873L372.128 167.878L372.127 167.878L372.025 168.873ZM332.763 164.851L332.66 165.846L332.661 165.846L332.763 164.851ZM332.864 163.893L332.761 164.888L332.762 164.888L332.864 163.893ZM372.125 167.915L372.228 166.92L372.227 166.92L372.125 167.915ZM372.127 167.878L332.865 163.856L332.661 165.846L371.923 169.868L372.127 167.878ZM332.866 163.856C333.154 163.886 333.358 164.143 333.329 164.425L331.34 164.219C331.256 165.029 331.843 165.761 332.66 165.846L332.866 163.856ZM333.329 164.425C333.299 164.713 333.042 164.917 332.761 164.888L332.967 162.899C332.156 162.815 331.424 163.402 331.34 164.219L333.329 164.425ZM332.762 164.888L372.023 168.91L372.227 166.92L332.966 162.898L332.762 164.888ZM372.022 168.91C371.734 168.88 371.53 168.623 371.559 168.341L373.549 168.547C373.632 167.737 373.045 167.005 372.228 166.92L372.022 168.91ZM371.559 168.341C371.589 168.053 371.846 167.849 372.128 167.878L371.922 169.867C372.732 169.951 373.464 169.364 373.549 168.547L371.559 168.341Z" fill="#2A3342" mask="url(#path-74-inside-8_279_6036)"/>
<mask id="path-76-inside-9_279_6036" fill="white">
<path d="M367.967 170.57L332.545 166.941C332.28 166.913 332.089 166.676 332.116 166.412C332.143 166.147 332.38 165.956 332.645 165.983L368.067 169.613C368.331 169.64 368.523 169.877 368.496 170.142C368.468 170.406 368.231 170.598 367.967 170.57Z"/>
</mask>
<path d="M367.967 170.57L332.545 166.941C332.28 166.913 332.089 166.676 332.116 166.412C332.143 166.147 332.38 165.956 332.645 165.983L368.067 169.613C368.331 169.64 368.523 169.877 368.496 170.142C368.468 170.406 368.231 170.598 367.967 170.57Z" fill="#333F51"/>
<path d="M367.967 170.57L368.069 169.576L368.069 169.576L367.967 170.57ZM332.545 166.941L332.442 167.935L332.443 167.935L332.545 166.941ZM332.645 165.983L332.542 166.978L332.543 166.978L332.645 165.983ZM368.067 169.613L368.17 168.618L368.169 168.618L368.067 169.613ZM368.069 169.576L332.646 165.946L332.443 167.935L367.865 171.565L368.069 169.576ZM332.647 165.946C332.936 165.976 333.14 166.233 333.111 166.515L331.121 166.309C331.037 167.119 331.624 167.851 332.442 167.935L332.647 165.946ZM333.111 166.515C333.081 166.803 332.823 167.007 332.542 166.978L332.748 164.988C331.937 164.905 331.206 165.492 331.121 166.309L333.111 166.515ZM332.543 166.978L367.965 170.608L368.169 168.618L332.747 164.988L332.543 166.978ZM367.964 170.608C367.676 170.578 367.472 170.32 367.501 170.039L369.49 170.245C369.574 169.434 368.987 168.703 368.17 168.618L367.964 170.608ZM367.501 170.039C367.531 169.751 367.788 169.547 368.069 169.576L367.864 171.565C368.674 171.649 369.406 171.062 369.49 170.245L367.501 170.039Z" fill="#2A3342" mask="url(#path-76-inside-9_279_6036)"/>
</g>
<mask id="mask10_279_6036" style="mask-type:luminance" maskUnits="userSpaceOnUse" x="232" y="71" width="168" height="219">
<path d="M399.082 86.4659L386.196 212.212L378.27 289.568L267.517 278.223L245.967 276.016L232.168 274.602L244.398 155.222L252.98 71.5L399.082 86.4659Z" fill="white"/>
</mask>
<g mask="url(#mask10_279_6036)">
<path d="M354.564 237.493L356.805 237.723L358.119 224.903L355.878 224.673L354.564 237.493Z" fill="#757575" stroke="#2A3342" stroke-miterlimit="10" stroke-linecap="round" stroke-linejoin="round"/>
<path d="M354.743 235.583L356.984 235.812L357.602 229.779L355.361 229.55L354.743 235.583Z" fill="#86EFAC" stroke="#2A3342" stroke-miterlimit="10"/>
<path d="M359.931 234.798L362.172 235.027L363.485 222.208L361.244 221.978L359.931 234.798Z" fill="#757575" stroke="#2A3342" stroke-miterlimit="10" stroke-linecap="round" stroke-linejoin="round"/>
<path d="M360.919 225.373L360.301 231.406L362.542 231.636L363.16 225.603L360.919 225.373Z" fill="#86EFAC" stroke="#2A3342" stroke-miterlimit="10"/>
<path d="M364.724 237.767L366.965 237.996L368.278 225.177L366.037 224.947L364.724 237.767Z" fill="#757575" stroke="#2A3342" stroke-miterlimit="10" stroke-linecap="round" stroke-linejoin="round"/>
<path d="M365.232 232.919L367.473 233.148L368.091 227.115L365.85 226.885L365.232 232.919Z" fill="#86EFAC" stroke="#2A3342" stroke-miterlimit="10"/>
<path d="M349.779 234.438L352.02 234.668L353.334 221.848L351.093 221.619L349.779 234.438Z" fill="#757575" stroke="#2A3342" stroke-miterlimit="10" stroke-linecap="round" stroke-linejoin="round"/>
<path d="M349.958 232.528L352.199 232.758L352.817 226.725L350.576 226.495L349.958 232.528Z" fill="#86EFAC" stroke="#2A3342" stroke-miterlimit="10"/>
<path d="M344.329 237.735L346.57 237.965L347.883 225.145L345.643 224.916L344.329 237.735Z" fill="#757575" stroke="#2A3342" stroke-miterlimit="10" stroke-linecap="round" stroke-linejoin="round"/>
<path d="M344.49 236.262L346.73 236.492L347.349 230.459L345.108 230.229L344.49 236.262Z" fill="#86EFAC" stroke="#2A3342" stroke-miterlimit="10"/>
<path d="M339.622 233.911L341.863 234.141L343.176 221.321L340.935 221.092L339.622 233.911Z" fill="#757575" stroke="#2A3342" stroke-miterlimit="10" stroke-linecap="round" stroke-linejoin="round"/>
<path d="M339.685 233.403L341.926 233.633L342.544 227.6L340.303 227.37L339.685 233.403Z" fill="#86EFAC" stroke="#2A3342" stroke-miterlimit="10"/>
<path d="M333.904 240.067L336.145 240.297L337.459 227.477L335.218 227.248L333.904 240.067Z" fill="#757575" stroke="#2A3342" stroke-miterlimit="10" stroke-linecap="round" stroke-linejoin="round"/>
<path d="M333.947 239.591L336.188 239.82L336.806 233.787L334.565 233.557L333.947 239.591Z" fill="#86EFAC" stroke="#2A3342" stroke-miterlimit="10"/>
<path d="M329.665 231.501L331.906 231.73L333.219 218.911L330.978 218.681L329.665 231.501Z" fill="#757575" stroke="#2A3342" stroke-miterlimit="10" stroke-linecap="round" stroke-linejoin="round"/>
<path d="M329.868 229.567L332.109 229.797L332.727 223.764L330.486 223.534L329.868 229.567Z" fill="#86EFAC" stroke="#2A3342" stroke-miterlimit="10"/>
<path d="M324.704 230.216L326.945 230.445L328.26 217.626L326.019 217.396L324.704 230.216Z" fill="#757575" stroke="#2A3342" stroke-miterlimit="10" stroke-linecap="round" stroke-linejoin="round"/>
<path d="M325.189 225.403L327.43 225.633L328.048 219.6L325.807 219.37L325.189 225.403Z" fill="#86EFAC" stroke="#2A3342" stroke-miterlimit="10"/>
<path d="M318.825 237.77L321.066 238L322.38 225.18L320.139 224.951L318.825 237.77Z" fill="#757575" stroke="#2A3342" stroke-miterlimit="10" stroke-linecap="round" stroke-linejoin="round"/>
<path d="M319.372 232.458L321.613 232.688L322.231 226.654L319.99 226.425L319.372 232.458Z" fill="#86EFAC" stroke="#2A3342" stroke-miterlimit="10"/>
<path d="M314.353 231.614L316.594 231.844L317.907 219.024L315.666 218.795L314.353 231.614Z" fill="#757575" stroke="#2A3342" stroke-miterlimit="10" stroke-linecap="round" stroke-linejoin="round"/>
<path d="M314.599 229.2L316.84 229.43L317.458 223.396L315.217 223.167L314.599 229.2Z" fill="#86EFAC" stroke="#2A3342" stroke-miterlimit="10"/>
<path d="M308.974 234.423L311.215 234.652L312.529 221.833L310.288 221.603L308.974 234.423Z" fill="#757575" stroke="#2A3342" stroke-miterlimit="10" stroke-linecap="round" stroke-linejoin="round"/>
<path d="M309.165 232.513L311.406 232.742L312.024 226.709L309.783 226.479L309.165 232.513Z" fill="#86EFAC" stroke="#2A3342" stroke-miterlimit="10"/>
<path d="M303.337 239.661L305.578 239.891L306.893 227.071L304.652 226.841L303.337 239.661Z" fill="#757575" stroke="#2A3342" stroke-miterlimit="10" stroke-linecap="round" stroke-linejoin="round"/>
<path d="M303.333 239.677L305.574 239.906L306.192 233.873L303.951 233.643L303.333 239.677Z" fill="#86EFAC" stroke="#2A3342" stroke-miterlimit="10"/>
<path d="M299.118 231.048L301.359 231.277L302.673 218.458L300.432 218.228L299.118 231.048Z" fill="#757575" stroke="#2A3342" stroke-miterlimit="10" stroke-linecap="round" stroke-linejoin="round"/>
<path d="M299.259 229.591L301.5 229.82L302.118 223.787L299.877 223.558L299.259 229.591Z" fill="#86EFAC" stroke="#2A3342" stroke-miterlimit="10"/>
<path d="M294.658 224.876L296.898 225.105L298.213 212.286L295.972 212.056L294.658 224.876Z" fill="#757575" stroke="#2A3342" stroke-miterlimit="10" stroke-linecap="round" stroke-linejoin="round"/>
<path d="M294.794 223.446L297.035 223.676L297.653 217.643L295.412 217.413L294.794 223.446Z" fill="#86EFAC" stroke="#2A3342" stroke-miterlimit="10"/>
<path d="M288.9 231.165L291.141 231.395L292.454 218.575L290.213 218.345L288.9 231.165Z" fill="#757575" stroke="#2A3342" stroke-miterlimit="10" stroke-linecap="round" stroke-linejoin="round"/>
<path d="M289.408 226.313L291.648 226.543L292.267 220.51L290.026 220.28L289.408 226.313Z" fill="#86EFAC" stroke="#2A3342" stroke-miterlimit="10"/>
<path d="M283.111 237.892L285.352 238.121L286.665 225.302L284.424 225.072L283.111 237.892Z" fill="#757575" stroke="#2A3342" stroke-miterlimit="10" stroke-linecap="round" stroke-linejoin="round"/>
<path d="M283.704 232.095L285.945 232.324L286.563 226.291L284.322 226.061L283.704 232.095Z" fill="#86EFAC" stroke="#2A3342" stroke-miterlimit="10"/>
<path d="M278.806 230.126L281.047 230.355L282.36 217.536L280.119 217.306L278.806 230.126Z" fill="#757575" stroke="#2A3342" stroke-miterlimit="10" stroke-linecap="round" stroke-linejoin="round"/>
<path d="M279.021 228.176L281.262 228.406L281.88 222.373L279.639 222.143L279.021 228.176Z" fill="#86EFAC" stroke="#2A3342" stroke-miterlimit="10"/>
<path d="M273.993 227.462L276.234 227.691L277.549 214.872L275.308 214.642L273.993 227.462Z" fill="#757575" stroke="#2A3342" stroke-miterlimit="10" stroke-linecap="round" stroke-linejoin="round"/>
<path d="M274.521 222.165L276.762 222.395L277.38 216.361L275.139 216.132L274.521 222.165Z" fill="#86EFAC" stroke="#2A3342" stroke-miterlimit="10"/>
<path d="M268.536 230.942L270.777 231.172L272.092 218.352L269.851 218.123L268.536 230.942Z" fill="#757575" stroke="#2A3342" stroke-miterlimit="10" stroke-linecap="round" stroke-linejoin="round"/>
<path d="M268.525 230.954L270.766 231.184L271.384 225.15L269.143 224.921L268.525 230.954Z" fill="#86EFAC" stroke="#2A3342" stroke-miterlimit="10"/>
<path d="M263.884 226.438L266.125 226.668L267.438 213.848L265.197 213.619L263.884 226.438Z" fill="#757575" stroke="#2A3342" stroke-miterlimit="10" stroke-linecap="round" stroke-linejoin="round"/>
<path d="M264.001 225.454L266.242 225.684L266.861 219.65L264.62 219.421L264.001 225.454Z" fill="#86EFAC" stroke="#2A3342" stroke-miterlimit="10"/>
<path d="M258.658 227.653L260.898 227.883L262.212 215.063L259.971 214.834L258.658 227.653Z" fill="#757575" stroke="#2A3342" stroke-miterlimit="10" stroke-linecap="round" stroke-linejoin="round"/>
<path d="M258.708 227.169L260.949 227.398L261.567 221.365L259.326 221.136L258.708 227.169Z" fill="#86EFAC" stroke="#2A3342" stroke-miterlimit="10"/>
<path d="M253.783 225.485L256.023 225.715L257.337 212.895L255.096 212.666L253.783 225.485Z" fill="#757575" stroke="#2A3342" stroke-miterlimit="10" stroke-linecap="round" stroke-linejoin="round"/>
<path d="M254.427 219.216L256.668 219.445L257.286 213.412L255.045 213.183L254.427 219.216Z" fill="#86EFAC" stroke="#2A3342" stroke-miterlimit="10"/>
</g>
<mask id="mask11_279_6036" style="mask-type:luminance" maskUnits="userSpaceOnUse" x="232" y="71" width="168" height="219">
<path d="M399.082 86.4659L386.196 212.212L378.27 289.568L267.517 278.223L245.967 276.016L232.168 274.602L244.398 155.222L252.98 71.5L399.082 86.4659Z" fill="white"/>
</mask>
<g mask="url(#mask11_279_6036)">
<path d="M368.258 253.742L368.263 253.742C368.571 253.771 368.803 254.045 368.769 254.375C368.735 254.69 368.447 254.924 368.134 254.89L368.132 254.89L265.772 244.402C265.772 244.402 265.771 244.402 265.771 244.402C265.457 244.367 265.224 244.08 265.257 243.768C265.292 243.453 265.579 243.22 265.892 243.253L265.895 243.254L368.258 253.742Z" fill="#333F51" stroke="#2A3342"/>
<path d="M367.48 261.448L367.475 261.447L248.449 249.254L248.447 249.253C248.134 249.22 247.847 249.453 247.812 249.768C247.778 250.08 248.011 250.367 248.325 250.402C248.326 250.402 248.326 250.402 248.327 250.402L367.348 262.595L367.351 262.596C367.664 262.629 367.951 262.397 367.986 262.082L367.48 261.448ZM367.48 261.448C367.788 261.476 368.02 261.751 367.986 262.081L367.48 261.448Z" fill="#333F51" stroke="#2A3342"/>
<path d="M247.654 256.953L247.656 256.953L316.683 264.03C316.684 264.03 316.684 264.03 316.684 264.03C317.003 264.065 317.231 264.348 317.197 264.664C317.163 264.979 316.875 265.212 316.562 265.179L316.56 265.178L247.534 258.102C247.533 258.101 247.533 258.101 247.532 258.101C247.218 258.066 246.985 257.779 247.019 257.467C247.054 257.152 247.341 256.919 247.654 256.953Z" fill="#333F51" stroke="#2A3342"/>
</g>
<mask id="mask12_279_6036" style="mask-type:luminance" maskUnits="userSpaceOnUse" x="232" y="71" width="168" height="219">
<path d="M399.082 86.4659L386.196 212.212L378.27 289.568L267.517 278.223L245.967 276.016L232.168 274.602L244.398 155.222L252.98 71.5L399.082 86.4659Z" fill="white"/>
</mask>
<g mask="url(#mask12_279_6036)">
<path opacity="0.2" d="M379.602 194.703C376.072 194.42 374.85 200.047 374.85 200.047C374.85 200.047 369.269 192.733 370.154 175.533C370.154 175.533 367.427 167.909 360.122 172.514C352.826 177.12 345.247 193.353 347.053 211.037L332.853 163.896C327.946 164.935 317.978 171.529 320.605 203.367L305.11 186.988C305.11 186.988 300.915 185.638 298.543 189.35C296.172 193.071 297.303 219.646 299.264 229.587C301.234 239.537 296.227 259.501 296.227 259.501C296.227 259.501 290.883 236.883 281.215 231.156L244.398 155.223L232.168 274.603L245.967 276.017L268.128 265.228C268 270.217 267.882 274.804 267.517 278.224L378.27 289.569L386.196 212.214C383.505 202.574 380.933 194.803 379.602 194.703Z" fill="black" fill-opacity="0.7"/>
</g>
<path d="M399.082 86.4659L386.196 212.212L378.27 289.568L267.517 278.223L245.967 276.016L232.168 274.602L244.398 155.222L252.98 71.5L399.082 86.4659Z" stroke="#2A3342" stroke-miterlimit="10" stroke-linecap="round" stroke-linejoin="round"/>
<path d="M397.254 410.188L332.502 421.205C332.502 421.205 321.23 361.332 314.509 351.902C307.787 342.463 309.018 338.587 305.753 332.23C303.783 328.391 293.907 321.231 286.155 314.163H286.145C285.471 313.552 284.814 312.941 284.185 312.33C283.911 312.084 283.656 311.82 283.4 311.573C282.37 310.552 281.412 309.558 280.564 308.582C280.254 308.235 279.962 307.889 279.688 307.542C278.074 305.545 276.934 303.675 276.551 301.988C276.524 301.897 276.506 301.806 276.496 301.705C276.469 301.587 276.451 301.477 276.442 301.368C276.268 299.954 276.086 298.34 275.904 296.589C275.867 296.243 275.831 295.878 275.785 295.513C275.767 295.367 275.749 295.23 275.73 295.075C275.575 293.616 275.402 292.066 275.201 290.47C275.001 288.801 274.782 287.068 274.527 285.326C274.444 284.724 274.362 284.122 274.262 283.511C274.262 283.502 274.262 283.493 274.253 283.493C274.153 282.818 274.043 282.143 273.934 281.459C273.833 280.875 273.733 280.292 273.633 279.708C273.615 279.608 273.587 279.516 273.578 279.434C273.45 278.75 273.323 278.085 273.195 277.41C273.168 277.337 273.159 277.264 273.149 277.182C273.022 276.589 272.903 276.005 272.766 275.412C272.484 274.09 272.164 272.795 271.818 271.536C271.134 269.028 270.331 266.685 269.401 264.605C264.732 254.181 270.806 257.948 267.148 231.126C267.148 231.126 269.839 224.906 277.509 229.876C278.102 230.259 278.667 230.679 279.223 231.126H279.232C280.774 232.366 282.142 233.834 283.309 235.485C284.832 237.628 286.018 240.082 286.829 242.745C288.042 246.712 288.435 251.153 287.869 255.786C287.869 255.786 293.633 275.54 296.67 280.036C299.716 284.532 312.265 258.705 311.453 255.695C311.289 255.093 311.061 253.625 310.806 251.609C310.751 251.162 310.696 250.688 310.633 250.187C310.578 249.685 310.514 249.165 310.459 248.627C310.423 248.372 310.395 248.098 310.359 247.834C310.35 247.724 310.341 247.615 310.323 247.514C310.213 246.484 310.085 245.389 309.967 244.259C309.939 243.939 309.903 243.638 309.867 243.328C309.812 242.79 309.757 242.234 309.702 241.687C309.684 241.605 309.684 241.513 309.675 241.413C309.639 241.103 309.602 240.784 309.575 240.456C309.502 239.817 309.438 239.17 309.374 238.522C309.31 237.966 309.265 237.409 309.21 236.853C309.1 235.804 309 234.755 308.9 233.743C308.827 232.986 308.754 232.238 308.69 231.509C308.672 231.345 308.654 231.18 308.644 231.025C308.261 227.013 307.96 223.711 307.851 222.307C307.851 222.307 298.722 208.791 297.783 202.425C296.843 196.05 296.925 189.356 300.747 186.629C309.794 180.191 307.149 190.569 311.198 194.865C315.247 199.178 321.458 206.201 324.978 208.399C328.225 210.46 331.125 218.467 331.536 219.635C331.071 217.884 326.428 200.665 326.328 197.199C326.21 193.542 323.419 174.253 328.161 167.331C332.895 160.418 339.206 165.781 339.789 167.149C340.373 168.517 340.546 187.204 342.215 192.411C343.893 197.61 350.87 219.288 350.87 219.288C350.87 219.288 351.162 198.203 352.74 188.763C354.308 179.333 358.412 171.946 362.425 171.527C366.438 171.107 370.15 175.53 370.15 175.53C370.15 175.53 368.563 190.578 369.019 194.053C369.466 197.519 368.362 210.077 370.268 216.826C370.268 216.826 370.049 198.85 372.84 196.552C375.64 194.254 378.029 193.15 379.598 194.7C381.158 196.251 381.504 206.894 383.1 213.296C384.705 219.708 384.495 228.399 385.544 238.385C386.593 248.372 390.724 262.234 389.904 270.159C389.083 278.066 386.557 297.738 384.523 309.275C382.489 320.821 377.3 336.617 377.3 336.617C377.3 336.617 379.662 345.053 379.206 352.577C378.741 360.101 397.254 410.188 397.254 410.188Z" fill="white"/>
<path opacity="0.4" d="M342.219 192.41C343.46 196.258 347.6 209.136 349.67 215.565C349.67 215.565 340.614 222.223 340.842 228.397C341.079 234.571 339.182 247.057 335.124 246.701C331.066 246.354 331.43 220.381 330.099 216.021C330.92 217.891 331.458 219.423 331.567 219.724C331.266 218.602 326.433 200.736 326.332 197.198C326.305 196.368 326.141 194.708 325.949 192.565V192.519C325.949 192.519 334.942 183.91 341.554 189.181V189.19C341.754 190.504 341.973 191.607 342.219 192.41Z" fill="#86EFAC"/>
<path opacity="0.4" d="M369.111 199.835C364.898 203.83 358.541 210.898 357.738 217.71C357.738 217.71 360.091 236.725 359.088 245.025L350.871 219.297C350.871 219.297 351.163 198.212 352.741 188.772C352.786 188.517 352.832 188.253 352.877 187.988C356.909 185.927 362.435 184.085 369.376 183.957C369.056 188.025 368.801 192.384 369.02 194.053C369.157 195.184 369.148 197.281 369.111 199.835Z" fill="#86EFAC"/>
<path opacity="0.4" d="M372.844 196.55C372.826 196.568 372.817 196.577 372.808 196.577C372.707 196.65 372.461 196.842 372.105 197.143C372.333 196.723 372.571 196.322 372.826 195.957L372.844 196.55Z" fill="#86EFAC"/>
<path opacity="0.4" d="M374.986 249.146C374.986 249.146 369.569 228.826 369.478 212.465C369.441 206.409 370.135 200.892 372.095 197.162L372.104 197.153C372.332 196.733 372.57 196.332 372.825 195.967L372.843 196.56C374.001 195.611 375.078 194.864 376.072 194.426C374.549 196.797 372.798 201.439 374.822 208.981C378.005 220.792 375.233 235.229 374.986 249.146Z" fill="#86EFAC"/>
<path opacity="0.4" d="M300.266 287.87C300.266 287.87 301.725 307.231 286.157 314.172H286.148C285.473 313.561 284.825 312.95 284.187 312.339C283.913 312.083 283.658 311.828 283.403 311.582C282.372 310.56 281.415 309.566 280.566 308.59C280.256 308.235 279.964 307.888 279.691 307.551C278.077 305.553 276.937 303.684 276.554 301.997C276.526 301.905 276.508 301.805 276.499 301.714C276.472 301.595 276.453 301.486 276.444 301.376C276.271 299.963 276.088 298.349 275.906 296.598C275.87 296.251 275.833 295.886 275.788 295.521C275.769 295.375 275.751 295.23 275.742 295.084C275.578 293.624 275.404 292.074 275.213 290.478C275.012 288.809 274.793 287.076 274.538 285.334C274.447 284.732 274.365 284.121 274.274 283.519C274.274 283.51 274.274 283.501 274.264 283.501C274.164 282.826 274.055 282.142 273.945 281.467C273.845 280.884 273.745 280.3 273.644 279.707C273.626 279.616 273.608 279.525 273.59 279.434C273.462 278.759 273.334 278.084 273.197 277.409C273.179 277.336 273.161 277.254 273.152 277.181C273.033 276.588 272.906 275.995 272.778 275.412C272.477 274.089 272.167 272.794 271.82 271.536C277.976 265.608 292.185 269.329 285.309 255.603C285.309 255.603 288.774 243.857 279.226 231.116H279.235C285.765 236.387 289.112 245.635 287.872 255.786C287.872 255.786 293.635 275.53 296.672 280.036C299.718 284.532 312.268 258.704 311.447 255.694C311.292 255.102 311.064 253.624 310.808 251.609C310.754 251.162 310.699 250.687 310.635 250.186C310.571 249.684 310.516 249.164 310.453 248.626C310.416 248.371 310.389 248.107 310.361 247.842C310.352 247.733 310.343 247.623 310.325 247.523C310.216 246.483 310.097 245.398 309.969 244.258C309.942 243.948 309.905 243.638 309.869 243.328C309.814 242.79 309.76 242.242 309.705 241.686C309.696 241.604 309.687 241.513 309.677 241.412C309.65 241.102 309.604 240.783 309.577 240.446C309.504 239.807 309.449 239.16 309.376 238.512C309.322 237.956 309.267 237.4 309.212 236.843C309.112 235.795 309.003 234.746 308.911 233.733C308.838 232.976 308.765 232.219 308.692 231.508C308.674 231.344 308.665 231.18 308.647 231.016C308.902 232.21 313.526 254.226 316.162 259.351C318.87 264.641 307.37 292.43 300.266 287.87Z" fill="#86EFAC"/>
<path opacity="0.4" d="M384.524 309.275C382.49 320.821 377.31 336.617 377.31 336.617C377.31 336.617 379.672 345.053 379.207 352.577C379.08 354.602 380.338 359.709 382.217 366.093C381.67 364.689 375.86 349.622 375.951 344.369C376.061 338.852 374.492 337.329 371.419 330.552C368.354 323.767 363.658 324.524 363.658 324.524C363.658 324.524 361.852 341.433 357.602 330.324C353.361 319.207 352.54 306.293 363.238 261.423C363.238 261.423 364.852 267.05 363.503 283.767C362.144 300.493 366.147 305.545 366.147 305.545C366.147 305.545 374.793 291.309 380.365 272.385C380.365 272.385 378.988 291.893 377.748 300.785C376.517 309.668 382.135 290.488 386.056 278.632C389.741 267.515 389.878 263.283 388.473 255.367C389.513 260.949 390.297 266.266 389.896 270.151C389.084 278.067 386.558 297.739 384.524 309.275Z" fill="#86EFAC"/>
<path opacity="0.4" d="M311.355 346.887C314.511 351.903 322.236 358.533 326.841 376.873C331.447 395.214 328.547 415.287 328.547 415.287L311.355 346.887Z" fill="#86EFAC"/>
<path opacity="0.2" d="M286.829 242.743C286.829 242.743 270.678 250.924 269.401 264.604C264.732 254.18 270.806 257.947 267.148 231.125C267.148 231.125 269.839 224.905 277.509 229.875C278.102 230.258 278.667 230.678 279.223 231.125H279.232C280.774 232.365 282.142 233.833 283.309 235.484L286.829 242.743Z" fill="black" fill-opacity="0.7"/>
<path d="M332.504 421.205C332.504 421.205 321.24 361.332 314.51 351.902C307.788 342.472 309.02 338.587 305.755 332.231C302.49 325.874 277.547 310.406 276.443 301.368C275.339 292.34 274.072 275.03 269.402 264.606C264.733 254.172 270.807 257.948 267.141 231.126C267.141 231.126 269.849 224.915 277.51 229.877C285.171 234.847 289.211 244.788 287.87 255.796C287.87 255.796 293.634 275.541 296.671 280.037C299.717 284.542 312.257 258.705 311.446 255.686C310.634 252.668 308.226 226.986 307.852 222.307C307.852 222.307 298.723 208.782 297.784 202.426C296.844 196.06 296.927 189.357 300.748 186.639C309.795 180.2 307.15 190.579 311.199 194.883C315.249 199.188 321.459 206.21 324.98 208.417C328.5 210.624 331.583 219.79 331.583 219.79C331.583 219.79 326.439 200.875 326.329 197.218C326.22 193.561 323.42 174.272 328.163 167.359C332.905 160.446 339.216 165.809 339.791 167.168C340.374 168.536 340.557 187.223 342.226 192.421C343.895 197.628 350.871 219.307 350.871 219.307C350.871 219.307 351.172 198.221 352.741 188.782C354.319 179.343 358.423 171.956 362.426 171.545C366.439 171.126 370.151 175.549 370.151 175.549C370.151 175.549 368.564 190.597 369.011 194.072C369.458 197.546 368.363 210.095 370.27 216.844C370.27 216.844 370.042 198.869 372.841 196.571C375.641 194.272 378.031 193.169 379.59 194.719C381.159 196.27 381.496 206.913 383.101 213.315C384.697 219.717 384.497 228.418 385.546 238.404C386.594 248.39 390.726 262.253 389.905 270.169C389.084 278.085 386.549 297.748 384.515 309.294C382.481 320.84 377.301 336.635 377.301 336.635C377.301 336.635 379.663 345.071 379.198 352.595C378.733 360.119 397.247 410.207 397.247 410.207" stroke="#2A3342" stroke-miterlimit="10" stroke-linecap="round" stroke-linejoin="round"/>
<path d="M350.863 219.289C352.751 223.721 357.411 242.436 359.08 245.026C360.749 247.616 362.637 248.4 362.637 248.4" stroke="#2A3342" stroke-miterlimit="10" stroke-linecap="round" stroke-linejoin="round"/>
<path d="M370.27 216.824C370.27 216.824 369.868 220.655 371.939 232.885C374.009 245.105 375.021 250.313 376.179 253.04" stroke="#2A3342" stroke-miterlimit="10" stroke-linecap="round" stroke-linejoin="round"/>
<path d="M331.582 219.773C334.117 227.224 335.54 239.099 336.981 242.674C338.422 246.249 339.708 246.988 339.708 246.988" stroke="#2A3342" stroke-miterlimit="10" stroke-linecap="round" stroke-linejoin="round"/>
<path d="M335.676 237.648C335.676 237.648 338.33 239.618 339.178 242.072" stroke="#2A3342" stroke-miterlimit="10" stroke-linecap="round" stroke-linejoin="round"/>
<path d="M296.68 280.035C296.68 280.035 298.066 289.912 304.258 289.128" stroke="#2A3342" stroke-miterlimit="10" stroke-linecap="round" stroke-linejoin="round"/>
<path d="M311.445 255.688C311.445 255.688 313.05 267.425 310.414 272.414" stroke="#2A3342" stroke-miterlimit="10" stroke-linecap="round" stroke-linejoin="round"/>
<path d="M360.914 255.797C360.914 255.797 365.073 258.341 362.291 265.811C359.509 273.28 354.676 303.412 354.676 303.412" stroke="#2A3342" stroke-miterlimit="10" stroke-linecap="round" stroke-linejoin="round"/>
<path d="M379.014 263.676C380.756 270.425 380.911 270.598 378.084 278.888C375.248 287.178 370.688 307.479 370.688 307.479" stroke="#2A3342" stroke-miterlimit="10" stroke-linecap="round" stroke-linejoin="round"/>
<path d="M377.311 336.618C377.311 336.618 374.593 331.128 376.837 326.613" stroke="#2A3342" stroke-miterlimit="10" stroke-linecap="round" stroke-linejoin="round"/>
<path d="M314.512 351.902C314.512 351.902 321.388 361.56 324.38 372.368" stroke="#2A3342" stroke-miterlimit="10" stroke-linecap="round" stroke-linejoin="round"/>
<path d="M365.109 182.607L366.97 180.774L367.809 180.527L367.754 181.439L366.04 183.619L365.109 182.607Z" fill="#757575" stroke="#2A3342" stroke-miterlimit="10" stroke-linecap="round" stroke-linejoin="round"/>
<path d="M366.614 183.627L363.595 190.495L282.245 298.959L273.18 293.186L285.483 277.755L358.552 186.099L365 182.004C364.991 181.995 366.368 182.351 366.614 183.627Z" fill="#86EFAC"/>
<mask id="mask13_279_6036" style="mask-type:luminance" maskUnits="userSpaceOnUse" x="273" y="182" width="94" height="117">
<path d="M366.614 183.627L363.595 190.495L282.245 298.959L273.18 293.186L285.483 277.755L358.552 186.099L365 182.004C364.991 181.995 366.368 182.351 366.614 183.627Z" fill="white"/>
</mask>
<g mask="url(#mask13_279_6036)">
<path opacity="0.3" d="M366.614 183.627L363.595 190.495L282.245 298.959L273.18 293.186L285.483 277.755C291.137 277.171 292.076 280.509 292.076 280.509L362.164 189.036C361.48 186.573 358.552 186.099 358.552 186.099L365 182.004C364.991 181.995 366.368 182.351 366.614 183.627Z" fill="black" fill-opacity="0.7"/>
</g>
<path d="M366.614 183.627L363.595 190.495L282.245 298.959L273.18 293.186L285.483 277.755L358.552 186.099L365 182.004C364.991 181.995 366.368 182.351 366.614 183.627Z" stroke="#2A3342" stroke-miterlimit="10" stroke-linecap="round" stroke-linejoin="round"/>
<path d="M308.775 266.839C308.775 266.839 299.701 284.86 290.964 297.61L284.726 299.224C284.726 299.224 270.407 313.452 261.671 320.556C261.671 320.556 259.427 319.252 257.402 316.972C257.402 316.972 269.806 293.15 283.531 278.075C283.531 278.075 285.528 278.686 288.036 280.464C289.523 281.522 291.201 282.982 292.733 284.97L308.027 265.727L308.775 266.839Z" fill="#86EFAC"/>
<mask id="mask14_279_6036" style="mask-type:luminance" maskUnits="userSpaceOnUse" x="257" y="265" width="52" height="56">
<path d="M308.775 266.839C308.775 266.839 299.701 284.86 290.964 297.61L284.726 299.224C284.726 299.224 270.407 313.452 261.671 320.556C261.671 320.556 259.427 319.252 257.402 316.972C257.402 316.972 269.806 293.15 283.531 278.075C283.531 278.075 285.528 278.686 288.036 280.464C289.523 281.522 291.201 282.982 292.733 284.97L308.027 265.727L308.775 266.839Z" fill="white"/>
</mask>
<g mask="url(#mask14_279_6036)">
<path opacity="0.3" d="M308.777 266.839C308.777 266.839 299.702 284.86 290.965 297.61L284.727 299.224C284.727 299.224 270.409 313.452 261.672 320.556L261.909 316.689C271.385 302.216 283.423 286.429 288.029 280.464C289.515 281.522 291.193 282.982 292.725 284.97L284.226 296.315L289.096 295.44L308.02 265.727L308.777 266.839Z" fill="black" fill-opacity="0.7"/>
</g>
<path d="M308.775 266.839C308.775 266.839 299.701 284.86 290.964 297.61L284.726 299.224C284.726 299.224 270.407 313.452 261.671 320.556C261.671 320.556 259.427 319.252 257.402 316.972C257.402 316.972 269.806 293.15 283.531 278.075C283.531 278.075 285.528 278.686 288.036 280.464C289.523 281.522 291.201 282.982 292.733 284.97L308.027 265.727L308.775 266.839Z" stroke="#2A3342" stroke-miterlimit="10" stroke-linecap="round" stroke-linejoin="round"/>
<path d="M339.702 246.984L314.294 271.626L310.236 275.566C313.017 268.416 311.667 257.372 311.494 256.022C311.494 256.013 311.494 256.004 311.494 256.004C311.485 255.931 311.476 255.885 311.476 255.885C311.476 255.821 311.467 255.739 311.458 255.694C311.303 255.101 311.075 253.624 310.819 251.608C310.764 251.161 310.71 250.687 310.646 250.185C310.582 249.684 310.527 249.164 310.464 248.626C310.427 248.37 310.4 248.106 310.372 247.841C310.363 247.732 310.354 247.623 310.336 247.522C310.226 246.492 310.099 245.397 309.98 244.257C309.953 243.947 309.916 243.637 309.88 243.327C309.825 242.789 309.77 242.242 309.716 241.685C309.707 241.603 309.697 241.512 309.688 241.412C309.661 241.102 309.615 240.783 309.588 240.445C309.515 239.807 309.46 239.159 309.387 238.512C309.333 237.955 309.278 237.399 309.223 236.843C309.123 235.794 309.013 234.745 308.922 233.733C308.84 232.976 308.767 232.228 308.703 231.508C308.685 231.343 308.676 231.179 308.658 231.015C308.275 227.002 307.974 223.71 307.864 222.296C307.864 222.296 298.744 208.781 297.796 202.415C296.856 196.049 296.939 189.346 300.76 186.628C309.807 180.18 307.153 190.559 311.202 194.863C315.252 199.177 321.471 206.19 324.983 208.397C328.494 210.614 331.585 219.77 331.585 219.77C334.112 227.221 335.544 239.086 336.984 242.67C338.425 246.245 339.702 246.984 339.702 246.984Z" fill="white"/>
<path d="M335.68 237.645C335.68 237.645 338.334 239.614 339.182 242.068" stroke="#2A3342" stroke-miterlimit="10" stroke-linecap="round" stroke-linejoin="round"/>
<path opacity="0.4" d="M311.2 194.862C315.231 199.167 321.423 206.144 324.943 208.378C324.451 208.132 317.967 204.967 314.346 208.487C310.579 212.154 307.853 222.304 307.853 222.304C307.853 222.304 298.733 208.788 297.784 202.423C296.845 196.057 296.927 189.354 300.748 186.636C309.795 180.188 307.15 190.567 311.2 194.862Z" fill="#86EFAC"/>
<path opacity="0.4" d="M314.292 271.627L310.234 275.567C313.016 268.417 311.666 257.372 311.493 256.023C311.493 256.014 311.493 256.004 311.493 256.004C311.493 255.877 311.474 255.776 311.456 255.694C311.301 255.102 311.073 253.624 310.818 251.609C310.763 251.162 310.708 250.687 310.644 250.186C310.581 249.684 310.526 249.164 310.462 248.626C310.426 248.371 310.398 248.107 310.371 247.842C310.362 247.733 310.353 247.623 310.334 247.523C310.225 246.483 310.106 245.398 309.979 244.258C309.951 243.948 309.915 243.638 309.878 243.328C309.824 242.79 309.769 242.242 309.714 241.686C309.705 241.604 309.696 241.513 309.687 241.412C309.659 241.102 309.614 240.783 309.586 240.446C309.514 239.807 309.459 239.16 309.386 238.512C309.331 237.956 309.276 237.4 309.222 236.843C309.121 235.795 309.012 234.746 308.921 233.733C308.848 232.976 308.775 232.219 308.702 231.508C308.684 231.344 308.674 231.18 308.656 231.016C308.912 232.21 313.535 254.226 316.171 259.351C317.156 261.303 316.226 266.31 314.292 271.627Z" fill="#86EFAC"/>
<path d="M339.701 246.985C339.701 246.985 338.415 246.246 336.974 242.671C335.533 239.096 334.101 227.221 331.575 219.77C331.575 219.77 328.483 210.605 324.972 208.398C321.452 206.191 315.25 199.168 311.192 194.864C307.142 190.559 309.787 180.181 300.74 186.619C296.919 189.337 296.846 196.04 297.776 202.406C298.716 208.772 307.845 222.288 307.845 222.288C308.219 226.975 310.626 252.657 311.438 255.667" stroke="#2A3342" stroke-miterlimit="10" stroke-linecap="round" stroke-linejoin="round"/>
<path d="M311.449 255.684C311.449 255.684 313.054 267.421 310.418 272.41" stroke="#2A3342" stroke-miterlimit="10" stroke-linecap="round" stroke-linejoin="round"/>
<path opacity="0.2" d="M155.469 270.055C155.469 270.055 161.242 296.859 148.738 316.366C136.234 335.865 126.613 341.072 122.281 346.891C117.949 352.71 101.013 385.241 101.013 385.241L81.2227 326.626L101.013 254.113L155.469 270.055Z" fill="black" fill-opacity="0.7"/>
<path d="M272.113 249.561L149.394 301.208L136.745 306.534L112.905 249.889L57.5469 118.352L192.915 61.3789L272.113 249.561Z" fill="white"/>
<mask id="mask15_279_6036" style="mask-type:luminance" maskUnits="userSpaceOnUse" x="57" y="61" width="216" height="246">
<path d="M272.113 249.561L149.394 301.208L136.745 306.534L112.905 249.889L57.5469 118.352L192.915 61.3789L272.113 249.561Z" fill="white"/>
</mask>
<g mask="url(#mask15_279_6036)">
<path d="M158.133 86.328L158.135 86.3273C158.975 85.97 159.946 86.3631 160.295 87.2073L160.297 87.2119C160.652 88.0475 160.257 89.0146 159.413 89.3739C159.413 89.374 159.413 89.3741 159.412 89.3742L100.982 113.961L100.981 113.962C100.145 114.317 99.1772 113.922 98.8182 113.077C98.4631 112.242 98.8578 111.275 99.7019 110.915C99.7022 110.915 99.7025 110.915 99.7028 110.915L158.133 86.328Z" fill="#333F51" stroke="#2A3342"/>
</g>
<mask id="mask16_279_6036" style="mask-type:luminance" maskUnits="userSpaceOnUse" x="57" y="61" width="216" height="246">
<path d="M272.113 249.561L149.394 301.208L136.745 306.534L112.905 249.889L57.5469 118.352L192.915 61.3789L272.113 249.561Z" fill="white"/>
</mask>
<g mask="url(#mask16_279_6036)">
<path d="M146.963 100.638L146.963 100.638L146.968 100.636C147.249 100.514 147.589 100.644 147.722 100.947C147.844 101.244 147.702 101.585 147.416 101.704L147.414 101.704L118.195 113.997C118.195 113.998 118.195 113.998 118.195 113.998C117.897 114.121 117.555 113.979 117.436 113.692C117.311 113.394 117.454 113.052 117.741 112.932L117.742 112.932L146.963 100.638Z" fill="#333F51" stroke="#2A3342"/>
</g>
<mask id="mask17_279_6036" style="mask-type:luminance" maskUnits="userSpaceOnUse" x="57" y="61" width="216" height="246">
<path d="M272.113 249.561L149.394 301.208L136.745 306.534L112.905 249.889L57.5469 118.352L192.915 61.3789L272.113 249.561Z" fill="white"/>
</mask>
<g mask="url(#mask17_279_6036)">
<path d="M194.836 175.078C194.836 175.078 196.068 184.754 192.465 186.277C189.173 187.664 184.841 182.465 181.056 184.061C177.271 185.657 180.253 199.374 176.605 200.915C172.957 202.447 168.562 196.811 165.415 198.133C162.269 199.456 164.175 206.515 160.928 207.883C158.247 209.014 154.416 203.396 151.352 202.165C150.705 201.9 150.084 201.836 149.528 202.073C146.318 203.423 147.914 218.17 145.141 219.328C144.22 219.721 143.418 219.784 142.679 219.73C141.585 219.657 140.618 219.328 139.551 219.438C139.177 219.474 138.794 219.565 138.384 219.739C136.021 220.733 136.341 228.494 134.179 229.406C132.018 230.318 129.884 229.187 127.576 230.163C125.269 231.139 125.305 235.17 121.867 236.62L123.326 240.076L207.331 204.727" fill="#BFBFBF"/>
<path d="M194.836 175.078C194.836 175.078 196.068 184.754 192.465 186.277C189.173 187.664 184.841 182.465 181.056 184.061C177.271 185.657 180.253 199.374 176.605 200.915C172.957 202.447 168.562 196.811 165.415 198.133C162.269 199.456 164.175 206.515 160.928 207.883C158.247 209.014 154.416 203.396 151.352 202.165C150.705 201.9 150.084 201.836 149.528 202.073C146.318 203.423 147.914 218.17 145.141 219.328C144.22 219.721 143.418 219.784 142.679 219.73C141.585 219.657 140.618 219.328 139.551 219.438C139.177 219.474 138.794 219.565 138.384 219.739C136.021 220.733 136.341 228.494 134.179 229.406C132.018 230.318 129.884 229.187 127.576 230.163C125.269 231.139 125.305 235.17 121.867 236.62L123.326 240.076L207.331 204.727" stroke="#2A3342" stroke-miterlimit="10"/>
<path d="M106.301 199.656L123.31 240.067L211.263 203.058" stroke="#2A3342" stroke-miterlimit="10" stroke-linecap="round" stroke-linejoin="round"/>
<path d="M201.597 191.139C201.597 191.139 201.186 190.629 200.557 190.027C199.472 188.978 197.748 187.646 196.435 188.194C195.149 188.732 195.04 190.866 195.067 193.137C195.094 195.909 195.341 198.882 193.945 199.475C192.76 199.977 191.702 199.22 190.607 198.408C189.358 197.478 188.081 196.456 186.54 197.104C183.95 198.198 184.734 201.573 183.822 204.464C183.357 205.941 182.445 207.291 180.411 208.148C178.168 209.088 175.897 208.166 173.763 206.707C170.151 204.245 166.904 200.25 164.798 201.135C161.451 202.539 165.144 211.596 161.542 213.109C159.535 213.958 155.377 207.619 151.337 202.175C148.145 197.861 145.026 194.113 143.101 194.915C138.76 196.739 145.91 218.381 142.755 219.712C142.727 219.721 142.691 219.74 142.654 219.749C141.341 220.269 140.374 219.94 139.526 219.457C138.386 218.809 137.465 217.897 136.206 218.426C133.881 219.402 135.249 227.884 132.686 228.969C130.123 230.045 128.591 228.486 125.709 229.699C123.274 230.72 121.824 236.63 121.824 236.63L123.283 240.086L207.288 204.737" fill="#757575"/>
<path d="M201.597 191.139C201.597 191.139 201.186 190.629 200.557 190.027C199.472 188.978 197.748 187.646 196.435 188.194C195.149 188.732 195.04 190.866 195.067 193.137C195.094 195.909 195.341 198.882 193.945 199.475C192.76 199.977 191.702 199.22 190.607 198.408C189.358 197.478 188.081 196.456 186.54 197.104C183.95 198.198 184.734 201.573 183.822 204.464C183.357 205.941 182.445 207.291 180.411 208.148C178.168 209.088 175.897 208.166 173.763 206.707C170.151 204.245 166.904 200.25 164.798 201.135C161.451 202.539 165.144 211.596 161.542 213.109C159.535 213.958 155.377 207.619 151.337 202.175C148.145 197.861 145.026 194.113 143.101 194.915C138.76 196.739 145.91 218.381 142.755 219.712C142.727 219.721 142.691 219.74 142.654 219.749C141.341 220.269 140.374 219.94 139.526 219.457C138.386 218.809 137.465 217.897 136.206 218.426C133.881 219.402 135.249 227.884 132.686 228.969C130.123 230.045 128.591 228.486 125.709 229.699C123.274 230.72 121.824 236.63 121.824 236.63L123.283 240.086L207.288 204.737" stroke="#2A3342" stroke-miterlimit="10" stroke-linecap="round" stroke-linejoin="round"/>
<path d="M154.784 232.737L154.785 232.736L184.002 220.444C184.002 220.444 184.003 220.444 184.003 220.444C184.311 220.319 184.645 220.462 184.764 220.749C184.888 221.046 184.746 221.389 184.459 221.508L184.457 221.509L155.238 233.802C155.238 233.802 155.238 233.802 155.238 233.802C154.94 233.926 154.598 233.784 154.479 233.497C154.354 233.199 154.497 232.857 154.784 232.737Z" fill="#333F51" stroke="#2A3342"/>
<path d="M208.592 175.442L205.765 176.628C205.473 176.746 205.136 176.61 205.017 176.327L203.832 173.5C203.713 173.208 203.85 172.87 204.133 172.752L206.96 171.566C207.252 171.448 207.589 171.584 207.708 171.867L208.893 174.694C209.021 174.977 208.884 175.315 208.592 175.442Z" fill="#BFBFBF" stroke="#2A3342" stroke-miterlimit="10"/>
<path d="M210.368 171.284L210.369 171.283L210.368 171.284Z" fill="#333F51" stroke="#2A3342"/>
<mask id="path-182-inside-10_279_6036" fill="white">
<path d="M219.482 170.242L211.366 173.653C211.119 173.753 210.837 173.644 210.736 173.398C210.636 173.151 210.745 172.869 210.992 172.768L219.108 169.357C219.355 169.257 219.637 169.366 219.738 169.613C219.838 169.85 219.729 170.133 219.482 170.242Z"/>
</mask>
<path d="M219.482 170.242L211.366 173.653C211.119 173.753 210.837 173.644 210.736 173.398C210.636 173.151 210.745 172.869 210.992 172.768L219.108 169.357C219.355 169.257 219.637 169.366 219.738 169.613C219.838 169.85 219.729 170.133 219.482 170.242Z" fill="#333F51"/>
<path d="M219.482 170.242L219.87 171.164L219.879 171.16L219.888 171.156L219.482 170.242ZM211.366 173.653L211.743 174.579L211.753 174.575L211.366 173.653ZM210.992 172.768L211.369 173.694L211.379 173.69L210.992 172.768ZM219.108 169.357L218.731 168.431L218.721 168.435L219.108 169.357ZM219.738 169.613L218.812 169.99L218.817 170.002L219.738 169.613ZM219.095 169.32L210.978 172.731L211.753 174.575L219.87 171.164L219.095 169.32ZM210.988 172.727C211.222 172.632 211.542 172.724 211.662 173.02L209.81 173.775C210.132 174.564 211.017 174.875 211.743 174.579L210.988 172.727ZM211.662 173.02C211.757 173.254 211.665 173.574 211.369 173.694L210.614 171.842C209.825 172.164 209.514 173.049 209.81 173.775L211.662 173.02ZM211.379 173.69L219.496 170.279L218.721 168.435L210.604 171.846L211.379 173.69ZM219.486 170.283C219.252 170.379 218.932 170.286 218.812 169.99L220.664 169.235C220.342 168.447 219.457 168.136 218.731 168.431L219.486 170.283ZM218.817 170.002C218.701 169.73 218.832 169.437 219.076 169.328L219.888 171.156C220.626 170.828 220.975 169.97 220.659 169.223L218.817 170.002Z" fill="#2A3342" mask="url(#path-182-inside-10_279_6036)"/>
<path d="M212.249 184.114L209.422 185.3C209.13 185.418 208.792 185.281 208.674 184.999L207.488 182.172C207.37 181.88 207.506 181.542 207.789 181.424L210.616 180.238C210.908 180.12 211.246 180.256 211.364 180.539L212.55 183.366C212.668 183.658 212.531 183.996 212.249 184.114Z" fill="#757575" stroke="#2A3342" stroke-miterlimit="10" stroke-linecap="round" stroke-linejoin="round"/>
<mask id="path-185-inside-11_279_6036" fill="white">
<path d="M225.875 175.488L214.201 180.404C213.955 180.504 213.673 180.395 213.572 180.148C213.472 179.902 213.581 179.619 213.828 179.519L225.501 174.603C225.747 174.503 226.03 174.613 226.13 174.859C226.24 175.096 226.121 175.379 225.875 175.488Z"/>
</mask>
<path d="M225.875 175.488L214.201 180.404C213.955 180.504 213.673 180.395 213.572 180.148C213.472 179.902 213.581 179.619 213.828 179.519L225.501 174.603C225.747 174.503 226.03 174.613 226.13 174.859C226.24 175.096 226.121 175.379 225.875 175.488Z" fill="#333F51"/>
<path d="M225.875 175.488L226.263 176.41L226.272 176.406L226.281 176.402L225.875 175.488ZM214.201 180.404L214.579 181.33L214.59 181.325L214.201 180.404ZM213.828 179.519L214.205 180.445L214.216 180.441L213.828 179.519ZM225.501 174.603L225.124 173.677L225.113 173.682L225.501 174.603ZM226.13 174.859L225.204 175.236L225.213 175.257L225.222 175.278L226.13 174.859ZM225.487 174.566L213.813 179.482L214.59 181.325L226.263 176.41L225.487 174.566ZM213.824 179.478C214.058 179.383 214.378 179.475 214.498 179.771L212.646 180.526C212.968 181.315 213.853 181.626 214.579 181.33L213.824 179.478ZM214.498 179.771C214.593 180.005 214.501 180.324 214.205 180.445L213.45 178.593C212.661 178.914 212.35 179.8 212.646 180.526L214.498 179.771ZM214.216 180.441L225.889 175.525L225.113 173.682L213.439 178.598L214.216 180.441ZM225.878 175.53C225.645 175.625 225.325 175.533 225.204 175.236L227.057 174.482C226.735 173.693 225.85 173.382 225.124 173.677L225.878 175.53ZM225.222 175.278C225.075 174.959 225.256 174.669 225.469 174.574L226.281 176.402C226.986 176.089 227.404 175.233 227.038 174.44L225.222 175.278Z" fill="#2A3342" mask="url(#path-185-inside-11_279_6036)"/>
<mask id="path-187-inside-12_279_6036" fill="white">
<path d="M223.131 178.918L215.014 182.329C214.768 182.429 214.485 182.32 214.385 182.073C214.284 181.827 214.394 181.544 214.64 181.444L222.757 178.033C223.003 177.933 223.286 178.042 223.386 178.289C223.496 178.535 223.377 178.817 223.131 178.918Z"/>
</mask>
<path d="M223.131 178.918L215.014 182.329C214.768 182.429 214.485 182.32 214.385 182.073C214.284 181.827 214.394 181.544 214.64 181.444L222.757 178.033C223.003 177.933 223.286 178.042 223.386 178.289C223.496 178.535 223.377 178.817 223.131 178.918Z" fill="#333F51"/>
<path d="M223.131 178.918L222.753 177.992L222.743 177.996L223.131 178.918ZM215.014 182.329L215.391 183.255L215.401 183.251L215.014 182.329ZM214.64 181.444L215.017 182.37L215.027 182.366L214.64 181.444ZM222.757 178.033L222.38 177.107L222.369 177.111L222.757 178.033ZM223.386 178.289L222.46 178.666L222.466 178.68L222.472 178.695L223.386 178.289ZM222.743 177.996L214.627 181.407L215.401 183.251L223.518 179.84L222.743 177.996ZM214.637 181.403C214.87 181.307 215.19 181.4 215.311 181.696L213.459 182.451C213.78 183.239 214.665 183.551 215.391 183.255L214.637 181.403ZM215.311 181.696C215.406 181.929 215.314 182.249 215.017 182.37L214.263 180.518C213.474 180.839 213.163 181.725 213.459 182.451L215.311 181.696ZM215.027 182.366L223.144 178.955L222.369 177.111L214.253 180.522L215.027 182.366ZM223.134 178.959C222.901 179.054 222.581 178.962 222.46 178.666L224.312 177.911C223.991 177.122 223.106 176.811 222.38 177.107L223.134 178.959ZM222.472 178.695C222.348 178.414 222.488 178.1 222.753 177.992L223.508 179.844C224.266 179.535 224.644 178.655 224.3 177.882L222.472 178.695Z" fill="#2A3342" mask="url(#path-187-inside-12_279_6036)"/>
</g>
<mask id="mask18_279_6036" style="mask-type:luminance" maskUnits="userSpaceOnUse" x="57" y="61" width="216" height="246">
<path d="M272.113 249.561L149.394 301.208L136.745 306.534L112.905 249.889L57.5469 118.352L192.915 61.3789L272.113 249.561Z" fill="white"/>
</mask>
<g mask="url(#mask18_279_6036)">
<path d="M241.425 211.736L241.43 211.733C241.711 211.612 242.051 211.742 242.185 212.045C242.306 212.342 242.164 212.682 241.878 212.801L241.876 212.802L147.039 252.71C147.039 252.711 147.038 252.711 147.038 252.711C146.741 252.834 146.399 252.692 146.279 252.405C146.155 252.107 146.298 251.765 146.585 251.645L146.586 251.645L241.425 211.736L241.425 211.736Z" fill="#333F51" stroke="#2A3342"/>
<path d="M244.436 218.876L244.44 218.874C244.722 218.752 245.062 218.882 245.195 219.185C245.317 219.482 245.174 219.823 244.888 219.942L244.887 219.943L134.609 266.354C134.609 266.354 134.609 266.354 134.608 266.354C134.311 266.477 133.969 266.335 133.85 266.048C133.726 265.751 133.868 265.408 134.155 265.289L134.157 265.288L244.436 218.876Z" fill="#333F51" stroke="#2A3342"/>
<path d="M247.436 226.017L247.44 226.015C247.728 225.89 248.071 226.029 248.194 226.323C248.318 226.621 248.175 226.963 247.888 227.083L247.887 227.083L137.609 273.494C137.609 273.494 137.609 273.495 137.608 273.495C137.311 273.618 136.969 273.475 136.85 273.189C136.726 272.891 136.868 272.549 137.155 272.429L137.157 272.428L247.436 226.017Z" fill="#333F51" stroke="#2A3342"/>
<path d="M250.447 233.157L250.452 233.155C250.734 233.033 251.073 233.164 251.207 233.467C251.328 233.764 251.186 234.104 250.9 234.223L250.898 234.224L140.621 280.635C140.621 280.635 140.621 280.635 140.621 280.635C140.323 280.759 139.981 280.616 139.861 280.33C139.737 280.032 139.88 279.689 140.167 279.57L140.168 279.569L250.447 233.157Z" fill="#333F51" stroke="#2A3342"/>
<path d="M143.167 286.704L143.168 286.703L207.125 259.791C207.125 259.791 207.126 259.791 207.126 259.791C207.417 259.67 207.756 259.804 207.886 260.099C208.008 260.396 207.865 260.737 207.58 260.856L207.578 260.857L143.621 287.769C143.621 287.769 143.621 287.769 143.62 287.77C143.323 287.893 142.981 287.75 142.861 287.464C142.737 287.166 142.88 286.824 143.167 286.704Z" fill="#333F51" stroke="#2A3342"/>
</g>
<mask id="mask19_279_6036" style="mask-type:luminance" maskUnits="userSpaceOnUse" x="57" y="61" width="216" height="246">
<path d="M272.113 249.561L149.394 301.208L136.745 306.534L112.905 249.889L57.5469 118.352L192.915 61.3789L272.113 249.561Z" fill="white"/>
</mask>
<g mask="url(#mask19_279_6036)">
<path d="M171.711 120.113C171.711 120.113 172.943 129.79 169.34 131.313C166.048 132.699 161.716 127.5 157.931 129.096C154.146 130.692 157.128 144.409 153.48 145.95C149.832 147.482 145.437 141.846 142.29 143.169C139.144 144.491 141.05 151.55 137.803 152.918C135.122 154.049 131.291 148.431 128.227 147.2C127.58 146.935 126.959 146.871 126.403 147.108C123.193 148.458 124.789 163.205 122.016 164.364C121.095 164.756 120.293 164.82 119.554 164.765C118.46 164.692 117.493 164.364 116.426 164.473C116.052 164.509 115.669 164.601 115.259 164.774C112.896 165.768 113.216 173.529 111.054 174.441C108.893 175.353 106.759 174.222 104.451 175.198C102.144 176.174 102.18 180.205 98.7422 181.655L100.201 185.112L184.206 149.762" fill="#BFBFBF"/>
<path d="M171.711 120.113C171.711 120.113 172.943 129.79 169.34 131.313C166.048 132.699 161.716 127.5 157.931 129.096C154.146 130.692 157.128 144.409 153.48 145.95C149.832 147.482 145.437 141.846 142.29 143.169C139.144 144.491 141.05 151.55 137.803 152.918C135.122 154.049 131.291 148.431 128.227 147.2C127.58 146.935 126.959 146.871 126.403 147.108C123.193 148.458 124.789 163.205 122.016 164.364C121.095 164.756 120.293 164.82 119.554 164.765C118.46 164.692 117.493 164.364 116.426 164.473C116.052 164.509 115.669 164.601 115.259 164.774C112.896 165.768 113.216 173.529 111.054 174.441C108.893 175.353 106.759 174.222 104.451 175.198C102.144 176.174 102.18 180.205 98.7422 181.655L100.201 185.112L184.206 149.762" stroke="#2A3342" stroke-miterlimit="10"/>
<path d="M177.136 133.02C177.136 133.02 177.902 137.707 176.051 138.492C174.51 139.139 173.561 138.236 171.938 138.181C171.29 138.154 170.533 138.264 169.585 138.665C168.098 139.285 167.743 141.291 167.478 143.453C167.15 146.107 166.986 148.98 165.043 149.8C163.684 150.375 162.216 150.037 160.702 149.508C158.294 148.669 155.75 147.338 153.306 148.368C152.12 148.87 151.29 150.156 150.643 151.752C149.12 155.519 148.645 160.972 146.995 161.665C144.651 162.65 140.355 158.619 138.276 159.495C136.197 160.37 137.045 163.991 135.357 164.702C133.67 165.414 132.704 163.316 129.73 164.566C126.757 165.815 128.207 170.211 124.012 171.971C119.817 173.731 117.984 170.494 113.925 172.199C109.867 173.904 110.606 176.978 107.751 178.182C104.897 179.386 103.684 177.297 101.641 178.154C99.6527 178.993 99.1146 182.249 99.0781 182.459L100.2 185.122L184.204 149.773" fill="#86EFAC"/>
<path d="M177.136 133.02C177.136 133.02 177.902 137.707 176.051 138.492C174.51 139.139 173.561 138.236 171.938 138.181C171.29 138.154 170.533 138.264 169.585 138.665C168.098 139.285 167.743 141.291 167.478 143.453C167.15 146.107 166.986 148.98 165.043 149.8C163.684 150.375 162.216 150.037 160.702 149.508C158.294 148.669 155.75 147.338 153.306 148.368C152.12 148.87 151.29 150.156 150.643 151.752C149.12 155.519 148.645 160.972 146.995 161.665C144.651 162.65 140.355 158.619 138.276 159.495C136.197 160.37 137.045 163.991 135.357 164.702C133.67 165.414 132.704 163.316 129.73 164.566C126.757 165.815 128.207 170.211 124.012 171.971C119.817 173.731 117.984 170.494 113.925 172.199C109.867 173.904 110.606 176.978 107.751 178.182C104.897 179.386 103.684 177.297 101.641 178.154C99.6527 178.993 99.1146 182.249 99.0781 182.459L100.2 185.122L184.204 149.773" stroke="#2A3342" stroke-miterlimit="10"/>
<path d="M83.1758 144.699L100.185 185.11L188.138 148.101" stroke="#2A3342" stroke-miterlimit="10" stroke-linecap="round" stroke-linejoin="round"/>
<path d="M131.393 177.155L131.395 177.154L160.611 164.862C160.612 164.862 160.612 164.862 160.613 164.862C160.921 164.737 161.254 164.88 161.373 165.167C161.498 165.464 161.355 165.807 161.068 165.926L161.067 165.927L131.848 178.22C131.847 178.22 131.847 178.22 131.847 178.22C131.549 178.344 131.207 178.201 131.088 177.915C130.964 177.617 131.106 177.275 131.393 177.155Z" fill="#333F51" stroke="#2A3342"/>
<path d="M183.987 116.977L181.16 118.163C180.868 118.282 180.531 118.145 180.412 117.862L179.226 115.035C179.108 114.743 179.245 114.406 179.527 114.287L182.355 113.101C182.646 112.983 182.984 113.12 183.102 113.402L184.288 116.23C184.416 116.521 184.279 116.85 183.987 116.977Z" fill="#BFBFBF" stroke="#2A3342" stroke-miterlimit="10"/>
<mask id="path-203-inside-13_279_6036" fill="white">
<path d="M197.621 108.34L185.948 113.255C185.701 113.356 185.419 113.246 185.318 113C185.218 112.754 185.327 112.471 185.574 112.371L197.247 107.455C197.494 107.355 197.776 107.464 197.877 107.71C197.986 107.957 197.867 108.239 197.621 108.34Z"/>
</mask>
<path d="M197.621 108.34L185.948 113.255C185.701 113.356 185.419 113.246 185.318 113C185.218 112.754 185.327 112.471 185.574 112.371L197.247 107.455C197.494 107.355 197.776 107.464 197.877 107.71C197.986 107.957 197.867 108.239 197.621 108.34Z" fill="#333F51"/>
<path d="M197.621 108.34L197.244 107.414L197.233 107.418L197.621 108.34ZM185.948 113.255L186.325 114.181L186.336 114.177L185.948 113.255ZM185.574 112.371L185.951 113.297L185.962 113.292L185.574 112.371ZM197.247 107.455L196.87 106.529L196.859 106.533L197.247 107.455ZM197.877 107.71L196.95 108.088L196.956 108.102L196.963 108.117L197.877 107.71ZM197.233 107.418L185.559 112.334L186.336 114.177L198.009 109.261L197.233 107.418ZM185.57 112.329C185.804 112.234 186.124 112.326 186.244 112.623L184.392 113.377C184.714 114.166 185.599 114.477 186.325 114.181L185.57 112.329ZM186.244 112.623C186.34 112.856 186.247 113.176 185.951 113.297L185.196 111.445C184.407 111.766 184.096 112.651 184.392 113.377L186.244 112.623ZM185.962 113.292L197.635 108.377L196.859 106.533L185.186 111.449L185.962 113.292ZM197.625 108.381C197.391 108.476 197.071 108.384 196.95 108.088L198.803 107.333C198.481 106.544 197.596 106.233 196.87 106.529L197.625 108.381ZM196.963 108.117C196.838 107.836 196.978 107.522 197.244 107.414L197.998 109.266C198.756 108.957 199.134 108.077 198.79 107.304L196.963 108.117Z" fill="#2A3342" mask="url(#path-203-inside-13_279_6036)"/>
<mask id="path-205-inside-14_279_6036" fill="white">
<path d="M194.877 111.777L186.76 115.188C186.514 115.288 186.231 115.179 186.131 114.933C186.03 114.686 186.14 114.404 186.386 114.303L194.503 110.893C194.749 110.792 195.032 110.902 195.132 111.148C195.233 111.385 195.123 111.668 194.877 111.777Z"/>
</mask>
<path d="M194.877 111.777L186.76 115.188C186.514 115.288 186.231 115.179 186.131 114.933C186.03 114.686 186.14 114.404 186.386 114.303L194.503 110.893C194.749 110.792 195.032 110.902 195.132 111.148C195.233 111.385 195.123 111.668 194.877 111.777Z" fill="#333F51"/>
<path d="M194.877 111.777L195.264 112.699L195.274 112.695L195.283 112.691L194.877 111.777ZM186.76 115.188L187.137 116.114L187.147 116.11L186.76 115.188ZM186.386 114.303L186.763 115.23L186.774 115.225L186.386 114.303ZM194.503 110.893L194.126 109.966L194.116 109.971L194.503 110.893ZM195.132 111.148L194.206 111.525L194.211 111.538L195.132 111.148ZM194.489 110.855L186.373 114.266L187.147 116.11L195.264 112.699L194.489 110.855ZM186.383 114.262C186.616 114.167 186.936 114.259 187.057 114.555L185.205 115.31C185.526 116.099 186.411 116.41 187.137 116.114L186.383 114.262ZM187.057 114.555C187.152 114.789 187.06 115.109 186.763 115.229L186.009 113.377C185.22 113.699 184.909 114.584 185.205 115.31L187.057 114.555ZM186.774 115.225L194.89 111.814L194.116 109.971L185.999 113.381L186.774 115.225ZM194.88 111.819C194.647 111.914 194.327 111.822 194.206 111.525L196.058 110.771C195.737 109.982 194.852 109.671 194.126 109.966L194.88 111.819ZM194.211 111.538C194.096 111.265 194.226 110.972 194.471 110.863L195.283 112.691C196.02 112.363 196.369 111.505 196.053 110.758L194.211 111.538Z" fill="#2A3342" mask="url(#path-205-inside-14_279_6036)"/>
<path d="M187.643 125.661L184.816 126.847C184.524 126.965 184.187 126.828 184.068 126.546L182.883 123.718C182.764 123.427 182.901 123.089 183.184 122.971L186.011 121.785C186.303 121.666 186.64 121.803 186.759 122.086L187.944 124.913C188.063 125.196 187.926 125.533 187.643 125.661Z" fill="#86EFAC" stroke="#2A3342" stroke-miterlimit="10"/>
<mask id="path-208-inside-15_279_6036" fill="white">
<path d="M201.27 117.023L189.596 121.939C189.35 122.039 189.067 121.93 188.967 121.684C188.866 121.437 188.976 121.155 189.222 121.054L200.896 116.139C201.142 116.038 201.425 116.148 201.525 116.394C201.625 116.64 201.516 116.914 201.27 117.023Z"/>
</mask>
<path d="M201.27 117.023L189.596 121.939C189.35 122.039 189.067 121.93 188.967 121.684C188.866 121.437 188.976 121.155 189.222 121.054L200.896 116.139C201.142 116.038 201.425 116.148 201.525 116.394C201.625 116.64 201.516 116.914 201.27 117.023Z" fill="#333F51"/>
<path d="M201.27 117.023L201.658 117.945L201.667 117.941L201.676 117.937L201.27 117.023ZM189.596 121.939L189.973 122.865L189.984 122.861L189.596 121.939ZM189.222 121.054L189.599 121.98L189.61 121.976L189.222 121.054ZM200.896 116.139L200.518 115.212L200.508 115.217L200.896 116.139ZM200.882 116.102L189.208 121.017L189.984 122.861L201.658 117.945L200.882 116.102ZM189.219 121.013C189.452 120.918 189.772 121.01 189.893 121.306L188.041 122.061C188.362 122.85 189.247 123.161 189.973 122.865L189.219 121.013ZM189.893 121.306C189.988 121.54 189.896 121.86 189.599 121.98L188.845 120.128C188.056 120.45 187.745 121.335 188.041 122.061L189.893 121.306ZM189.61 121.976L201.284 117.06L200.508 115.217L188.834 120.133L189.61 121.976ZM201.273 117.065C201.039 117.16 200.72 117.068 200.599 116.771L202.451 116.017C202.13 115.228 201.244 114.917 200.518 115.213L201.273 117.065ZM200.599 116.771C200.495 116.515 200.618 116.218 200.863 116.109L201.676 117.937C202.414 117.609 202.756 116.765 202.451 116.017L200.599 116.771Z" fill="#2A3342" mask="url(#path-208-inside-15_279_6036)"/>
<mask id="path-210-inside-16_279_6036" fill="white">
<path d="M198.525 120.461L190.409 123.872C190.162 123.972 189.88 123.863 189.779 123.616C189.679 123.37 189.788 123.087 190.035 122.987L198.151 119.576C198.398 119.476 198.68 119.585 198.781 119.831C198.89 120.069 198.772 120.351 198.525 120.461Z"/>
</mask>
<path d="M198.525 120.461L190.409 123.872C190.162 123.972 189.88 123.863 189.779 123.616C189.679 123.37 189.788 123.087 190.035 122.987L198.151 119.576C198.398 119.476 198.68 119.585 198.781 119.831C198.89 120.069 198.772 120.351 198.525 120.461Z" fill="#333F51"/>
<path d="M198.525 120.461L198.913 121.383L198.922 121.379L198.931 121.375L198.525 120.461ZM190.409 123.872L190.786 124.798L190.796 124.794L190.409 123.872ZM190.035 122.987L190.412 123.913L190.422 123.909L190.035 122.987ZM198.151 119.576L197.774 118.65L197.764 118.654L198.151 119.576ZM198.781 119.831L197.855 120.209L197.863 120.23L197.873 120.251L198.781 119.831ZM198.138 119.539L190.021 122.95L190.796 124.794L198.913 121.383L198.138 119.539ZM190.031 122.946C190.265 122.85 190.585 122.943 190.705 123.239L188.853 123.994C189.175 124.782 190.06 125.094 190.786 124.798L190.031 122.946ZM190.705 123.239C190.8 123.472 190.708 123.792 190.412 123.913L189.657 122.061C188.868 122.382 188.557 123.268 188.853 123.994L190.705 123.239ZM190.422 123.909L198.539 120.498L197.764 118.654L189.647 122.065L190.422 123.909ZM198.529 120.502C198.295 120.597 197.975 120.505 197.855 120.209L199.707 119.454C199.385 118.665 198.5 118.354 197.774 118.65L198.529 120.502ZM197.873 120.251C197.726 119.932 197.907 119.641 198.119 119.547L198.931 121.375C199.636 121.061 200.055 120.205 199.689 119.412L197.873 120.251Z" fill="#2A3342" mask="url(#path-210-inside-16_279_6036)"/>
</g>
<mask id="mask20_279_6036" style="mask-type:luminance" maskUnits="userSpaceOnUse" x="57" y="61" width="216" height="246">
<path d="M272.113 249.561L149.394 301.208L136.745 306.534L112.905 249.889L57.5469 118.352L192.915 61.3789L272.113 249.561Z" fill="white"/>
</mask>
<g mask="url(#mask20_279_6036)">
<path opacity="0.2" d="M149.395 301.207L136.746 306.533L112.906 249.888C114.402 248.466 116.153 246.031 116.892 242.073C118.314 234.485 117.311 210.089 136.308 207.572C155.296 205.055 139.281 247.773 140.157 255.917C140.959 263.331 151.785 284.882 149.395 301.207Z" fill="black" fill-opacity="0.7"/>
</g>
<path d="M272.113 249.561L149.394 301.208L136.745 306.534L112.905 249.889L57.5469 118.352L192.915 61.3789L272.113 249.561Z" stroke="#2A3342" stroke-miterlimit="10" stroke-linecap="round" stroke-linejoin="round"/>
<path d="M141.752 259.007C143.877 251.729 152.195 228.355 151.109 218.022C151.009 217.092 150.808 216.253 150.526 215.505C147.607 207.789 135.678 208.537 131.091 214.93C126.057 221.962 121.953 234.62 121.597 242.318C121.406 246.577 119.582 250.48 117.986 253.134C117.976 253.152 117.976 253.161 117.967 253.17C116.681 255.305 115.551 256.6 115.551 256.6L88.3273 192.012C88.3273 192.012 83.9315 195.569 81.2046 199.964C80.1011 201.725 79.2803 203.64 79.1161 205.5C78.5598 211.857 71.355 237.995 68.3545 249.03C68.2998 249.267 68.2268 249.486 68.1721 249.705C65.2902 260.302 72.8963 299.664 70.7257 311.101C68.5461 322.528 67.1963 322.282 66.8862 330.399C66.6582 336.327 58.1766 354.348 48.6736 372.852C43.2289 383.459 37.4377 394.211 32.668 402.921L102.272 400.03C103.476 391.576 104.716 382.647 105.847 374.01C106.312 370.454 107.069 366.797 107.926 363.331C107.926 363.331 107.926 363.331 107.926 363.322C109.458 357.12 111.337 351.511 112.468 348.228C114.246 343.103 116.098 333.545 116.098 333.545C124.196 324.972 134.812 311.511 137.885 302.382C137.895 302.364 137.904 302.336 137.904 302.318C138.679 300.011 138.962 297.986 138.597 296.399C138.287 295.086 138.123 293.381 138.05 291.42C138.059 291.411 138.059 291.411 138.05 291.401C137.712 281.515 139.965 265.072 141.752 259.007Z" fill="white"/>
<path opacity="0.4" d="M117.976 253.163C115.815 257.495 113.216 261.699 111.556 266.56C109.896 271.412 108.118 272.105 103.238 275.899C98.3683 279.702 94.8115 273.436 94.8115 273.436C94.8115 273.436 101.259 266.742 99.1161 263.012C96.9638 259.282 88.9564 250.007 89.4307 244.891C89.8958 239.774 84.5697 228.302 84.5697 228.302C84.5697 228.302 96.7267 221.17 94.3646 212.834C93.0787 208.265 86.7129 203.413 81.2227 199.957C83.9495 195.561 88.3454 192.004 88.3454 192.004L115.569 256.592C115.559 256.592 116.69 255.288 117.976 253.163Z" fill="#86EFAC"/>
<path opacity="0.4" d="M73.8366 292.781C74.0007 293.328 77.9588 306.397 74.6209 311.842C71.2009 317.405 67.8538 324.51 69.4863 331.897C70.7905 337.807 59.8465 359.147 48.6836 372.846C58.1866 354.341 66.6682 336.32 66.8962 330.392C67.2154 322.275 68.5561 322.522 70.7358 311.094C72.9063 299.658 65.3094 260.296 68.1822 249.698C68.2369 249.479 68.3098 249.261 68.3646 249.023C70.4895 261.034 75.4417 284.956 76.8006 292.644C78.5334 302.43 74.019 293.164 73.8366 292.781Z" fill="#86EFAC"/>
<path opacity="0.4" d="M98.8984 371.641C106.988 336.812 134.211 310.109 137.896 302.375C134.822 311.495 124.206 324.965 116.108 333.538C116.108 333.538 114.257 343.087 112.478 348.221C111.338 351.504 109.469 357.113 107.936 363.315C107.936 363.324 107.936 363.324 107.936 363.324C100.029 372.635 98.8984 371.641 98.8984 371.641Z" fill="#86EFAC"/>
<path opacity="0.4" d="M141.752 259.007C139.964 265.072 137.702 281.515 138.058 291.392C136.626 285.191 133.872 277.311 133.416 266.34C132.641 247.735 143.183 254.411 139.508 245.245C135.833 236.089 125.354 247.826 130.516 228.428C134.282 214.265 145.016 214.392 150.525 215.496C150.808 216.244 151.008 217.083 151.109 218.013C152.203 228.346 143.886 251.72 141.752 259.007Z" fill="#86EFAC"/>
<path d="M43.2656 383.705C51.9935 367.754 60.4842 351.347 66.5946 333.654C67.3242 331.11 66.3483 327.799 67.0871 325.255C75.3589 302.273 65.9744 278.351 67.5157 254.821C68.8107 245.546 71.7747 236.198 74.7387 226.859C76.1341 220.092 76.6631 212.532 78.8883 205.728C81.1866 200.603 83.4575 194.638 88.3458 192.012C97.6482 213.334 106.923 234.739 115.569 256.6C119.472 254.338 120.102 249.285 120.767 245.063C122.865 234.912 124.99 225.61 128.829 217.064C132.733 210.197 142.674 207.269 148.775 212.878C150.517 214.483 151.456 216.955 151.566 219.472C150.38 231.255 146.677 243.148 142.947 254.201C141.479 259.29 139.983 263.549 139.354 268.601C139.427 270.28 139.454 271.109 139.527 272.788C137.366 281.26 139.354 288.72 138.861 297.129C136.974 312.295 124.844 322.865 116.089 334.12C113.927 342.592 111.766 351.065 108.765 359.573C105.099 372.305 103.95 384.927 102.701 397.193" stroke="#2A3342" stroke-miterlimit="10" stroke-linecap="round" stroke-linejoin="round"/>
<path d="M115.571 256.59C115.571 256.59 112.707 262.089 111.567 266.558C110.427 271.027 104.654 270.379 101.672 273.161" stroke="#2A3342" stroke-miterlimit="10" stroke-linecap="round" stroke-linejoin="round"/>
<path d="M93.7891 248.719C93.7891 248.719 101.641 251.491 106.211 255.057C110.78 258.623 114.163 259.499 114.163 259.499" stroke="#2A3342" stroke-miterlimit="10" stroke-linecap="round" stroke-linejoin="round"/>
<path d="M88.7852 229.25C88.7852 229.25 95.1236 231.029 99.8204 228.794C99.8204 228.794 100.167 224.909 101.015 222.055" stroke="#2A3342" stroke-miterlimit="10" stroke-linecap="round" stroke-linejoin="round"/>
<path d="M101.332 229.715C101.332 229.715 101.396 230.599 104.633 230.636" stroke="#2A3342" stroke-miterlimit="10" stroke-linecap="round" stroke-linejoin="round"/>
<path d="M116.107 333.535C116.107 333.535 109.924 339.144 106.148 349.249" stroke="#2A3342" stroke-miterlimit="10" stroke-linecap="round" stroke-linejoin="round"/>
<path d="M67.8177 251.637C67.5349 257.1 73.9463 276.516 75.898 286.156C77.8497 295.805 78.5701 302.627 78.5701 302.627" stroke="#2A3342" stroke-miterlimit="10" stroke-linecap="round" stroke-linejoin="round"/>
</svg>
