<svg width="480" height="456" viewBox="0 0 480 456" fill="none" xmlns="http://www.w3.org/2000/svg">
<g clip-path="url(#clip0_279_6541)">
<g clip-path="url(#clip1_279_6541)">
<path d="M381.853 192.197V283.997C377.356 284.711 366.318 286.445 361.617 287.261C355.587 288.281 342.914 287.261 345.878 281.243C348.944 275.225 349.455 261.557 337.293 260.537C325.132 259.517 323.599 268.085 328.198 276.245C332.797 284.303 325.643 288.383 315.525 287.873C309.291 287.567 297.538 287.057 285.58 287.465C287.829 269.615 290.486 250.235 288.135 247.991C284.047 243.911 274.44 252.581 268.922 250.031C263.301 247.481 259.826 234.323 265.856 230.345C271.885 226.265 278.017 231.365 283.536 231.875C289.157 232.385 290.077 230.855 291.099 224.837C291.712 221.267 290.179 204.233 288.544 189.953C313.583 190.055 326.869 188.525 325.54 194.951C324.007 201.989 319.408 212.597 328.095 216.677C336.68 220.757 344.345 217.697 345.367 210.149C346.389 202.601 338.315 195.461 343.323 191.483C346.083 188.933 364.274 190.667 381.853 192.197Z" fill="#263238" stroke="#263238" stroke-miterlimit="10" stroke-linecap="round" stroke-linejoin="round"/>
<path d="M167.028 331.733C165.495 340.811 174.08 346.931 179.701 343.871C185.322 340.811 193.907 338.363 193.907 347.441C193.907 352.133 193.396 366.005 192.885 378.245H101.723V285.833C105.095 286.139 110.103 286.139 116.439 284.609C129.623 281.549 139.23 278.591 138.208 287.159C137.186 295.727 131.667 308.375 143.727 309.395C155.889 310.415 159.466 303.785 158.444 295.217C157.422 286.649 159.977 280.529 168.05 281.549C172.138 282.059 183.278 283.589 194.214 285.119C195.031 299.603 196.155 313.475 195.951 316.943C195.44 324.491 190.33 325.511 183.278 323.471C176.124 321.635 168.459 322.655 167.028 331.733Z" fill="#4ADE80" stroke="#263238" stroke-miterlimit="10" stroke-linecap="round" stroke-linejoin="round"/>
<path d="M290.998 224.736C289.976 230.754 288.954 232.284 283.435 231.774C277.814 231.264 271.784 226.164 265.652 230.244C259.52 234.324 263.097 247.482 268.718 249.93C274.339 252.48 283.946 243.81 287.932 247.89C290.283 250.236 287.625 269.616 285.377 287.466C278.019 287.67 270.456 288.282 264.119 289.404C247.359 292.464 248.381 283.794 251.958 276.246C255.535 268.698 251.447 260.028 238.263 262.068C225.079 264.108 229.678 272.166 232.131 279.816C234.686 287.364 225.59 288.894 218.436 288.384C214.961 288.18 204.537 286.752 193.908 285.324C192.988 268.392 192.579 250.848 195.645 248.4C201.266 243.81 204.23 252.48 211.384 251.46C218.436 250.44 220.48 245.85 218.947 235.752C217.414 225.654 210.362 226.674 202.697 229.632C195.134 232.692 190.535 229.632 190.024 221.064C189.718 216.168 191.149 202.092 192.477 189.648C198.405 190.056 203.924 190.26 208.216 189.75C220.889 188.22 234.584 187.71 235.095 194.34C235.606 200.868 229.474 204.948 230.496 211.068C231.518 217.188 244.19 220.656 250.731 215.148C257.272 209.538 246.643 198.93 251.242 192.402C255.841 185.874 250.731 189.342 280.676 189.852C283.333 189.852 285.888 189.954 288.341 189.954C290.078 204.132 291.611 221.166 290.998 224.736Z" fill="#4ADE80" stroke="#263238" stroke-miterlimit="10" stroke-linecap="round" stroke-linejoin="round"/>
<path d="M229.881 446.994C229.881 446.994 228.757 437.814 225.487 425.37C222.216 412.926 214.449 400.788 214.449 394.872C214.449 388.956 226.611 354.48 228.042 352.236C229.473 349.992 237.649 336.834 239.795 337.548C242.043 338.262 243.065 341.628 243.065 341.628C243.065 341.628 248.175 334.998 251.139 336.12C254.103 337.242 253.387 339.384 253.387 339.384C253.387 339.384 259.315 338.67 260.746 341.22C262.177 343.77 261.155 347.136 261.155 347.136C261.155 347.136 266.673 350.808 266.673 354.888C266.673 358.968 264.118 388.65 264.118 390.894C264.118 393.138 267.082 409.254 265.243 419.964C263.403 430.674 261.563 436.488 261.563 436.488L263.403 447.912L229.881 446.994Z" fill="white" stroke="#263238" stroke-miterlimit="10" stroke-linecap="round" stroke-linejoin="round"/>
<path d="M303.262 348.768C297.13 349.278 294.677 341.73 289.056 345.198C283.435 348.768 283.435 350.808 283.946 360.396C284.355 367.332 285.683 376.818 286.501 381.612H192.681C193.192 369.27 193.703 355.5 193.703 350.808C193.703 341.73 185.119 344.28 179.498 347.238C173.877 350.298 165.292 344.178 166.825 335.1C168.358 326.022 175.921 325.002 183.075 327.042C190.126 329.082 195.236 328.062 195.747 320.514C195.952 317.046 194.828 303.072 194.01 288.69C204.639 290.118 215.063 291.444 218.538 291.75C225.59 292.26 234.788 290.73 232.233 283.182C229.678 275.634 225.181 267.474 238.365 265.536C251.549 263.496 255.637 272.064 252.06 279.714C248.483 287.262 247.461 295.932 264.222 292.872C270.558 291.75 278.121 291.138 285.479 290.934C283.844 304.296 282.413 316.842 283.435 320.718C285.99 329.796 290.998 330.306 296.108 328.266C301.218 326.226 310.314 325.716 311.847 334.284C313.482 342.648 309.394 348.258 303.262 348.768Z" fill="#263238" stroke="#263238" stroke-miterlimit="10" stroke-linecap="round" stroke-linejoin="round"/>
<path d="M226.611 404.459C226.611 404.459 227.02 393.851 228.451 389.057C229.882 384.263 232.846 375.491 233.254 370.289C233.663 365.189 231.824 356.315 235.809 357.029C239.795 357.743 243.168 362.537 244.292 368.759C245.416 374.981 242.044 384.569 242.452 387.119C242.861 389.669 249.811 397.013 250.526 403.643C251.242 410.273 250.117 417.923 249.811 419.759" fill="white"/>
<path d="M226.611 404.459C226.611 404.459 227.02 393.851 228.451 389.057C229.882 384.263 232.846 375.491 233.254 370.289C233.663 365.189 231.824 356.315 235.809 357.029C239.795 357.743 243.168 362.537 244.292 368.759C245.416 374.981 242.044 384.569 242.452 387.119C242.861 389.669 249.811 397.013 250.526 403.643C251.242 410.273 250.117 417.923 249.811 419.759" stroke="#263238" stroke-miterlimit="10" stroke-linecap="round" stroke-linejoin="round"/>
<path d="M225.795 442.301H270.354V463.211L225.795 461.375V442.301Z" fill="white" stroke="#263238" stroke-miterlimit="10" stroke-linecap="round" stroke-linejoin="round"/>
<path d="M392.277 291.243L381.138 384.879L286.5 373.659C286.296 368.763 285.989 359.175 286.5 352.239C287.114 342.651 287.318 340.611 293.348 337.755C299.275 334.899 300.911 342.753 307.043 342.957C313.175 343.161 317.774 338.163 317.365 329.391C316.854 320.721 307.758 320.109 302.444 321.537C297.129 322.965 292.224 321.843 290.793 312.561C290.18 308.583 293.041 296.343 296.312 283.185C308.269 284.205 319.818 286.041 325.95 287.163C335.965 288.897 343.426 285.633 339.951 277.065C336.374 268.497 338.929 260.133 350.886 262.581C362.844 265.029 360.698 278.493 357.018 284.205C353.339 289.917 365.705 292.365 371.94 292.059C376.641 291.753 387.678 291.345 392.277 291.243Z" fill="#4ADE80" stroke="#263238" stroke-miterlimit="10" stroke-linecap="round" stroke-linejoin="round"/>
<path d="M411.389 307.97C411.389 307.97 422.324 311.948 427.741 310.724C433.157 309.5 437.756 307.052 437.756 307.052L427.434 298.586L415.068 302.972L411.389 307.97Z" fill="#D6D6D6" stroke="#263238" stroke-miterlimit="10" stroke-linecap="round" stroke-linejoin="round"/>
<path d="M495.295 261.559C481.191 266.047 469.643 270.433 467.803 271.045C463.613 272.371 443.275 270.943 437.961 270.127C432.748 269.311 409.345 258.397 405.665 259.009C401.986 259.621 401.577 258.907 399.227 261.049C396.876 263.191 377.254 282.163 376.13 284.611C375.005 287.059 367.749 305.929 367.034 310.417C366.318 314.905 366.012 319.087 367.647 320.311C369.282 321.535 371.224 322.045 372.961 320.923C374.801 319.801 375.721 317.251 376.845 314.701C377.969 312.253 377.867 309.907 377.867 309.907C377.867 309.907 387.678 316.945 389.518 317.047C391.357 317.149 394.321 315.313 394.321 315.313C394.321 315.313 397.285 316.129 398.818 316.231C400.453 316.231 410.264 316.027 413.126 314.803C415.885 313.579 418.236 310.723 418.236 309.091C418.236 307.459 417.725 304.603 417.725 304.603L426.003 302.053C426.003 302.053 438.267 312.253 447.363 311.131C456.459 310.009 464.022 306.541 465.248 305.725C466.372 304.807 469.949 303.685 469.949 303.685L495.397 300.829V261.559H495.295Z" fill="#D6D6D6" stroke="#263238" stroke-miterlimit="10" stroke-linecap="round" stroke-linejoin="round"/>
<path d="M409.447 291.547C409.447 291.547 397.183 302.155 397.592 304.195C398.001 306.133 399.534 310.315 401.067 311.947C402.6 313.579 405.053 315.619 407.097 315.925C409.141 316.231 412.309 314.497 412.922 312.355C413.535 310.213 412.82 309.193 412.82 309.193" stroke="#263238" stroke-miterlimit="10" stroke-linecap="round" stroke-linejoin="round"/>
<path d="M410.264 311.337C410.264 311.337 417.213 306.849 417.826 304.707" stroke="#263238" stroke-miterlimit="10" stroke-linecap="round" stroke-linejoin="round"/>
<path d="M400.76 281.855C400.76 281.855 385.123 291.035 385.021 294.095C384.919 297.155 385.941 308.375 387.065 310.109C387.065 310.109 390.029 314.903 394.321 315.515" stroke="#263238" stroke-miterlimit="10" stroke-linecap="round" stroke-linejoin="round"/>
<path d="M397.284 271.555C397.284 271.555 378.786 282.367 377.355 283.285C375.924 284.305 374.698 288.385 375.004 292.057C375.311 295.729 375.822 304.195 376.129 306.235C376.435 308.275 376.844 309.193 377.866 309.907" stroke="#263238" stroke-miterlimit="10" stroke-linecap="round" stroke-linejoin="round"/>
<path d="M414.147 264.009C414.147 264.009 410.775 262.377 408.322 264.111C405.869 265.743 404.336 267.273 404.336 267.273" stroke="#263238" stroke-miterlimit="10" stroke-linecap="round" stroke-linejoin="round"/>
<path d="M421.199 273.494C420.586 272.168 415.885 272.678 414.658 275.228" stroke="#263238" stroke-miterlimit="10" stroke-linecap="round" stroke-linejoin="round"/>
<path d="M425.287 283.693C425.287 283.693 422.937 283.591 421.608 284.815C420.279 286.039 420.279 286.141 420.279 286.141" stroke="#263238" stroke-miterlimit="10" stroke-linecap="round" stroke-linejoin="round"/>
<path d="M393.606 71.7383L400.863 166.598C383.284 166.394 364.99 166.088 362.333 168.536C357.632 172.922 366.217 179.45 365.808 186.998C365.399 194.648 358.041 198.218 349.149 194.852C340.258 191.486 343.937 180.572 344.959 173.33C345.879 166.802 332.695 169.352 307.758 171.188C305.817 161.09 303.875 152.42 303.159 151.196C301.422 148.238 299.685 139.262 303.977 135.386C308.269 131.51 316.854 137.426 321.249 135.59C325.643 133.754 326.461 131.102 326.359 122.534C326.154 113.966 317.57 113.558 312.766 117.536C307.963 121.412 299.889 122.534 298.969 110.498C298.254 101.726 299.276 86.5283 299.889 78.9803L393.606 71.7383Z" fill="#4ADE80" stroke="#263238" stroke-miterlimit="10" stroke-linecap="round" stroke-linejoin="round"/>
<path d="M491.206 -27.1016C471.277 -8.63956 445.319 15.6364 442.866 17.6764C438.88 21.1444 411.593 22.4704 409.753 22.5724C407.913 22.6744 399.942 20.8384 399.942 20.8384C399.942 20.8384 391.664 22.8784 390.437 22.9804C389.211 23.1844 370.713 28.5904 368.464 28.4884C366.216 28.3864 361.617 28.6924 362.026 30.4264C362.434 32.1604 362.332 32.7724 364.376 33.8944C366.42 35.0164 371.326 34.9144 371.326 34.9144C371.326 34.9144 358.755 42.0544 355.894 42.5644C352.93 43.0744 346.9 42.6664 347.207 46.0324C347.615 49.2964 353.441 49.8064 355.996 49.1944C358.551 48.4804 375.414 42.7684 375.414 42.7684C375.414 42.7684 364.172 50.6224 360.288 52.1524C356.507 53.6824 350.375 54.8044 349.353 55.5184C348.331 56.2324 346.491 65.7184 357.427 61.7404C368.362 57.7624 379.808 50.1124 379.808 50.1124C379.808 50.1124 374.596 55.9264 374.29 57.5584C374.085 58.8844 372.041 68.6764 370.713 73.7764L380.83 72.9604C383.079 68.7784 385.225 63.9844 385.634 63.1684C386.145 62.0464 397.898 52.9684 397.898 52.9684L403.825 49.0924C403.825 49.0924 409.957 55.7224 409.753 57.6604C409.549 59.5984 407.811 64.6984 406.074 67.2484C404.234 69.7984 400.862 74.5924 396.467 76.3264C392.072 78.0604 386.962 87.2404 387.167 89.3824C387.371 91.5244 391.255 98.0524 394.423 94.2784C397.591 90.5044 418.849 71.2264 426.923 68.0644C435.099 64.9024 448.487 55.2124 452.779 49.3984C457.072 43.6864 460.955 40.8304 460.955 40.8304L495.294 23.4904V-27.1016H491.206Z" fill="white" stroke="#263238" stroke-miterlimit="10" stroke-linecap="round" stroke-linejoin="round"/>
<path d="M379.91 50.0109C379.91 50.0109 388.597 43.4829 394.934 35.6289L379.91 50.0109Z" fill="white"/>
<path d="M379.91 50.0109C379.91 50.0109 388.597 43.4829 394.934 35.6289" stroke="#263238" stroke-miterlimit="10" stroke-linecap="round" stroke-linejoin="round"/>
<path d="M375.414 42.77C375.414 42.77 385.941 36.14 390.642 29.918L375.414 42.77Z" fill="white"/>
<path d="M375.414 42.77C375.414 42.77 385.941 36.14 390.642 29.918" stroke="#263238" stroke-miterlimit="10" stroke-linecap="round" stroke-linejoin="round"/>
<path d="M371.428 34.9144C371.428 34.9144 384.918 31.1404 390.641 25.7344L371.428 34.9144Z" fill="white"/>
<path d="M371.428 34.9144C371.428 34.9144 384.918 31.1404 390.641 25.7344" stroke="#263238" stroke-miterlimit="10" stroke-linecap="round" stroke-linejoin="round"/>
<path d="M280.063 92.6477C279.347 89.3837 277.508 86.7317 277.508 86.7317C277.508 86.7317 279.347 87.4457 277.916 83.0597C276.486 78.6737 263.608 62.4557 263.608 62.4557C263.608 62.4557 266.163 44.0957 264.324 36.7517C262.484 29.4077 259.214 25.0217 259.214 25.0217L260.236 -26.4883H225.692C225.794 -8.33228 236.832 15.7397 228.145 42.9737C226.407 48.3797 222.217 63.1697 224.057 68.6777C225.896 74.1857 237.649 96.6257 240.204 98.4617C242.759 100.298 266.368 110.906 270.354 110.6C274.442 110.192 273.624 106.214 273.317 104.684C272.909 103.256 272.909 103.256 272.909 103.256C272.909 103.256 278.836 104.684 279.143 101.828C279.551 98.8697 276.894 96.7277 276.894 96.7277C276.894 96.7277 280.778 95.9117 280.063 92.6477Z" fill="white" stroke="#263238" stroke-miterlimit="10" stroke-linecap="round" stroke-linejoin="round"/>
<path d="M313.686 124.266C313.175 132.834 312.153 135.384 307.554 136.914C302.955 138.444 294.882 131.814 290.283 135.384C285.684 138.954 286.706 148.032 288.239 151.092C288.852 152.316 290.18 161.19 291.305 171.39C288.852 171.39 286.297 171.39 283.64 171.288C253.695 170.778 258.805 167.208 254.206 173.838C249.607 180.366 260.236 191.076 253.695 196.584C247.154 202.194 234.481 198.624 233.459 192.504C232.437 186.486 238.569 182.406 238.058 175.776C237.547 169.248 223.853 169.758 211.18 171.186C206.887 171.696 201.369 171.492 195.441 171.084C196.463 161.7 197.587 153.132 197.996 149.97C199.018 142.422 200.04 135.792 196.463 132.732C192.886 129.672 180.213 138.24 175.716 136.302C171.117 134.262 170.095 118.554 176.738 113.046C183.279 107.436 190.433 115.086 193.499 114.576C196.565 114.066 198.098 114.576 198.609 107.028C199.018 101.112 196.667 85.4039 195.543 78.6719H290.589C289.363 86.2199 287.217 101.214 287.217 109.986C287.217 122.124 295.29 121.614 300.4 118.044C305.613 114.678 314.197 115.698 313.686 124.266Z" fill="#263238" stroke="#263238" stroke-miterlimit="10" stroke-linecap="round" stroke-linejoin="round"/>
<path d="M239.898 59.9076C239.898 59.9076 246.133 83.3676 246.848 85.3056C247.563 87.1416 250.936 92.6496 252.776 95.9136C254.615 99.1776 260.543 95.5056 261.258 90.8136C261.974 86.1216 254.615 74.2896 254.615 74.2896L253.491 65.5176C253.491 65.5176 260.441 57.0516 260.441 49.4016C260.441 41.7516 253.184 33.1836 253.184 33.1836" fill="white"/>
<path d="M239.898 59.9076C239.898 59.9076 246.133 83.3676 246.848 85.3056C247.563 87.1416 250.936 92.6496 252.776 95.9136C254.615 99.1776 260.543 95.5056 261.258 90.8136C261.974 86.1216 254.615 74.2896 254.615 74.2896L253.491 65.5176C253.491 65.5176 260.441 57.0516 260.441 49.4016C260.441 41.7516 253.184 33.1836 253.184 33.1836" stroke="#263238" stroke-miterlimit="10" stroke-linecap="round" stroke-linejoin="round"/>
<path d="M56.0403 72.0429C56.0403 72.0429 72.0857 72.3489 74.9473 72.3489C77.9111 72.3489 102.541 61.5369 106.629 61.9449C110.717 62.3529 137.085 76.9389 138.72 78.5709C140.355 80.2029 152.926 99.3789 151.699 102.337C150.473 105.295 146.692 106.111 146.692 106.111L143.728 104.887C143.728 104.887 142.093 106.927 139.129 107.437C136.165 107.845 132.895 106.213 132.895 106.213C132.895 106.213 129.931 107.845 127.478 107.845C124.923 107.845 122.061 104.887 122.061 104.887H116.338C116.338 104.887 119.302 108.253 118.893 109.477C118.484 110.701 116.338 112.027 113.477 110.701C110.513 109.477 107.651 105.703 107.651 105.703L94.6719 99.4809C94.6719 99.4809 86.7003 102.439 79.6485 102.847C72.5967 103.255 61.2525 99.4809 61.2525 99.4809L45.5137 94.0749L56.0403 72.0429Z" fill="#D5DAE1" stroke="#263238" stroke-miterlimit="10" stroke-linecap="round" stroke-linejoin="round"/>
<path d="M183.891 155.071C183.482 158.335 182.358 166.903 181.336 176.185C169.685 175.369 156.297 173.737 147.917 174.757C135.244 176.287 143.318 186.385 141.887 193.933C140.354 201.481 135.346 206.071 126.659 201.991C118.074 197.911 121.549 190.873 126.148 182.815C130.747 174.757 122.571 175.777 112.453 176.287C105.81 176.593 95.9992 177.409 90.1738 177.919V83.7734H181.438C182.46 90.4034 184.913 106.213 184.504 112.129C183.993 119.677 182.46 119.167 179.394 119.677C176.328 120.187 169.277 112.639 162.634 118.147C156.093 123.655 157.115 139.363 161.612 141.403C166.211 143.443 178.883 134.875 182.358 137.833C185.935 140.893 184.913 147.523 183.891 155.071Z" fill="#4ADE80" stroke="#263238" stroke-miterlimit="10" stroke-linecap="round" stroke-linejoin="round"/>
<path d="M104.584 74.4922C104.584 74.4922 113.782 78.6742 117.564 80.3062C121.345 81.9382 127.988 85.3042 127.988 85.3042C127.988 85.3042 137.186 91.5262 138.412 91.9342C139.639 92.3422 139.639 95.7082 134.222 96.9322C128.806 98.1562 119.608 91.5262 117.972 91.1182C116.337 90.7102 105.402 93.6682 103.767 93.6682C102.131 93.6682 92.1158 97.4422 84.9618 97.0342C77.91 96.6262 73.7198 92.8522 71.9824 89.9962" fill="#D5DAE1"/>
<path d="M104.584 74.4922C104.584 74.4922 113.782 78.6742 117.564 80.3062C121.345 81.9382 127.988 85.3042 127.988 85.3042C127.988 85.3042 137.186 91.5262 138.412 91.9342C139.639 92.3422 139.639 95.7082 134.222 96.9322C128.806 98.1562 119.608 91.5262 117.972 91.1182C116.337 90.7102 105.402 93.6682 103.767 93.6682C102.131 93.6682 92.1158 97.4422 84.9618 97.0342C77.91 96.6262 73.7198 92.8522 71.9824 89.9962" stroke="#263238" stroke-miterlimit="10" stroke-linecap="round" stroke-linejoin="round"/>
<path d="M63.6037 62.7597L43.5725 100.908L30.6953 96.1137L53.6903 57.7617L63.6037 62.7597Z" fill="white" stroke="#263238" stroke-miterlimit="10" stroke-linecap="round" stroke-linejoin="round"/>
<path d="M-15.5 13.8008V80.1008L31.4098 103.459L55.8356 56.1308L-15.5 13.8008Z" fill="#4ADE80" stroke="#263238" stroke-miterlimit="10" stroke-linecap="round" stroke-linejoin="round"/>
<path d="M92.4232 295.624C92.0144 292.36 90.5836 289.81 87.3132 287.566C84.0428 285.424 60.4346 269.41 59.617 268.9C58.7994 268.492 54.3026 269.716 54.3026 269.716C54.3026 269.716 28.8548 283.588 16.7952 287.974C4.73564 292.36 -4.46236 303.274 -5.58656 303.886C-5.89316 304.09 -7.01736 305.11 -15.1934 311.638V360.292L15.9776 324.898C15.9776 324.898 25.9932 324.898 28.957 323.674C31.9208 322.348 38.8704 316.942 40.4034 314.902C41.9364 312.862 44.3892 312.046 47.4552 310.822C50.419 309.496 52.2586 308.476 52.2586 308.476C52.2586 308.476 59.617 312.25 60.5368 312.964C61.4566 313.678 59.9236 317.044 59.9236 317.044C59.9236 317.044 53.485 319.084 51.7476 320.002C50.0102 320.92 47.5574 322.756 47.6596 324.388C47.864 326.02 51.441 327.04 51.441 327.04C51.441 327.04 50.8278 330.814 52.5652 332.752C54.4048 334.69 55.018 332.956 58.4928 331.222C61.9676 329.386 79.6482 320.716 79.6482 320.716C79.6482 320.716 81.2834 324.082 83.9407 324.49C86.5978 324.796 86.7 319.696 87.9264 313.678C89.255 307.66 92.7298 298.888 92.4232 295.624Z" fill="white" stroke="#263238" stroke-miterlimit="10" stroke-linecap="round" stroke-linejoin="round"/>
<path d="M58.3912 281.242C58.3912 281.242 59.9242 286.648 57.9824 291.034" stroke="#263238" stroke-miterlimit="10" stroke-linecap="round" stroke-linejoin="round"/>
<path d="M67.9967 282.57C67.9967 282.57 69.8363 286.854 67.8945 289.71" stroke="#263238" stroke-miterlimit="10" stroke-linecap="round" stroke-linejoin="round"/>
<path d="M79.8529 305.926L80.9771 307.252C80.9771 307.252 77.4001 314.188 79.6485 320.716" stroke="#263238" stroke-miterlimit="10" stroke-linecap="round" stroke-linejoin="round"/>
<path d="M74.0276 306.742L73.0056 312.148C73.0056 312.148 67.078 318.064 65.545 318.574C64.012 319.084 53.0766 321.736 51.4414 326.938" stroke="#263238" stroke-miterlimit="10" stroke-linecap="round" stroke-linejoin="round"/>
<path d="M60.0254 317.044L63.2958 314.596L66.1574 310.108C66.1574 310.108 62.1716 308.884 62.0694 305.926" stroke="#263238" stroke-miterlimit="10" stroke-linecap="round" stroke-linejoin="round"/>
<path d="M65.6465 318.574C65.6465 318.574 61.3541 320.92 62.3761 324.388C63.5003 327.754 66.3619 328.264 66.3619 328.264" stroke="#263238" stroke-miterlimit="10" stroke-linecap="round" stroke-linejoin="round"/>
<path d="M180.826 259.211C173.978 261.251 169.686 253.091 164.882 258.395C162.225 261.251 165.087 278.591 168.459 295.217C157.422 295.319 146.18 295.319 142.092 295.421C133.916 295.523 132.281 301.949 134.529 310.313C136.777 318.677 134.222 325.715 121.958 326.429C109.797 327.143 113.476 313.883 113.271 305.213C113.067 296.543 103.971 300.929 91.2984 305.825C85.2686 308.171 80.363 308.885 76.8882 309.089L63.5 215.351C69.2232 214.025 78.83 211.883 85.3708 210.659C95.3864 208.721 103.256 206.579 99.8832 215.249C96.5106 223.919 94.0578 231.467 103.154 234.221C112.249 236.975 116.644 231.773 117.053 224.021C117.462 216.269 108.059 207.395 120.323 204.131C128.499 201.989 141.887 201.683 153.64 200.867C154.049 213.413 154.662 227.489 155.582 232.385C157.32 240.851 162.225 243.197 169.379 239.117C176.431 235.037 183.381 232.997 186.344 242.789C189.002 252.377 187.673 257.171 180.826 259.211Z" fill="#263238" stroke="#263238" stroke-miterlimit="10" stroke-linecap="round" stroke-linejoin="round"/>
<path d="M47.3536 289.711C47.3536 289.711 51.2372 292.771 57.9824 291.037C64.7276 289.405 71.2684 290.221 77.6048 289.813C83.9412 289.507 92.4238 291.037 92.3216 295.627C92.2194 300.217 87.416 303.073 81.3862 304.399C75.3564 305.623 58.5956 304.195 54.9164 306.745C51.3394 309.295 44.7986 312.865 40.404 314.905C36.0094 316.945 30.4906 317.251 23.2344 317.353" fill="white"/>
<path d="M47.3536 289.711C47.3536 289.711 51.2372 292.771 57.9824 291.037C64.7276 289.405 71.2684 290.221 77.6048 289.813C83.9412 289.507 92.4238 291.037 92.3216 295.627C92.2194 300.217 87.416 303.073 81.3862 304.399C75.3564 305.623 58.5956 304.195 54.9164 306.745C51.3394 309.295 44.7986 312.865 40.404 314.905C36.0094 316.945 30.4906 317.251 23.2344 317.353" stroke="#263238" stroke-miterlimit="10" stroke-linecap="round" stroke-linejoin="round"/>
</g>
</g>
<defs>
<clipPath id="clip0_279_6541">
<rect width="480" height="456" rx="6" fill="white"/>
</clipPath>
<clipPath id="clip1_279_6541">
<rect width="511" height="510" fill="white" transform="translate(-15.5 -27)"/>
</clipPath>
</defs>
</svg>
