<svg width="226" height="13" fill="none" xmlns="http://www.w3.org/2000/svg">
    <path
        d="M217.04 12.7808V.2168h8.55v2.43h-5.814v2.574h4.986v2.412h-4.986v2.718h5.814v2.43h-8.55ZM212.076 10.782h-.09c-.096.636-.42 1.164-.972 1.584-.552.42-1.302.63-2.25.63-.72 0-1.392-.138-2.016-.414-.624-.276-1.17-.684-1.638-1.224-.468-.54-.834-1.212-1.098-2.016-.264-.804-.396-1.734-.396-2.79s.138-1.992.414-2.808c.276-.816.66-1.5 1.152-2.052.504-.552 1.104-.972 1.8-1.26.696-.288 1.47-.432 2.322-.432 1.128 0 2.1.246 2.916.738.816.48 1.458 1.206 1.926 2.178l-2.232 1.278c-.192-.492-.492-.906-.9-1.242-.408-.348-.978-.522-1.71-.522-.852 0-1.53.246-2.034.738-.504.492-.756 1.266-.756 2.322v2.016c0 1.044.252 1.818.756 2.322.504.492 1.182.738 2.034.738.336 0 .654-.036.954-.108.3-.084.564-.204.792-.36.228-.168.402-.366.522-.594.132-.228.198-.498.198-.81v-.63h-2.34V5.778h4.95v7.002h-2.304v-1.998ZM194.911 6.8408l-1.206-2.52h-.054v8.46h-2.574V.2168h2.988l3.438 5.94 1.206 2.52h.054v-8.46h2.574v12.564h-2.988l-3.438-5.94ZM186.495 12.7808l-.9-2.988h-4.194l-.9 2.988h-2.772l4.14-12.564h3.384l4.086 12.564h-2.844Zm-2.97-10.08h-.09l-1.386 4.77h2.88l-1.404-4.77ZM173.253 7.6328h-4.788v5.148h-2.736V.2168h2.736v5.004h4.788V.2168h2.736v12.564h-2.736v-5.148ZM159.081 12.996c-.852 0-1.62-.132-2.304-.396-.684-.276-1.266-.678-1.746-1.206-.48-.54-.852-1.206-1.116-1.998-.264-.804-.396-1.74-.396-2.808 0-1.056.132-1.992.396-2.808.264-.828.636-1.518 1.116-2.07.48-.564 1.062-.99 1.746-1.278.684-.288 1.452-.432 2.304-.432 1.164 0 2.124.24 2.88.72.756.468 1.362 1.212 1.818 2.232l-2.358 1.224c-.168-.528-.432-.948-.792-1.26-.348-.324-.864-.486-1.548-.486-.804 0-1.452.264-1.944.792-.48.516-.72 1.272-.72 2.268v2.016c0 .996.24 1.758.72 2.286.492.516 1.14.774 1.944.774.672 0 1.206-.18 1.602-.54.408-.372.708-.816.9-1.332l2.232 1.296c-.468.96-1.086 1.704-1.854 2.232-.756.516-1.716.774-2.88.774ZM152.878 12.7808h-3.168l-2.718-4.626h-.054l-2.646 4.626h-2.952l4.032-6.498-3.834-6.066h3.186l2.448 4.248h.054l2.484-4.248h2.952l-3.87 6.12 4.086 6.444ZM131.505 12.7808V.2168h8.55v2.43h-5.814v2.574h4.986v2.412h-4.986v2.718h5.814v2.43h-8.55ZM119.092 7.3088l-1.638 1.98v3.492h-2.736V.2168h2.736v5.976h.108l1.782-2.43 2.826-3.546h3.096l-4.23 5.166 4.608 7.398h-3.222l-3.33-5.472ZM108.069 12.996c-.852 0-1.62-.132-2.304-.396-.684-.276-1.266-.678-1.746-1.206-.48-.54-.852-1.206-1.116-1.998-.264-.804-.396-1.74-.396-2.808 0-1.056.132-1.992.396-2.808.264-.828.636-1.518 1.116-2.07.48-.564 1.062-.99 1.746-1.278.684-.288 1.452-.432 2.304-.432 1.164 0 2.124.24 2.88.72.756.468 1.362 1.212 1.818 2.232l-2.358 1.224c-.168-.528-.432-.948-.792-1.26-.348-.324-.864-.486-1.548-.486-.804 0-1.452.264-1.944.792-.48.516-.72 1.272-.72 2.268v2.016c0 .996.24 1.758.72 2.286.492.516 1.14.774 1.944.774.672 0 1.206-.18 1.602-.54.408-.372.708-.816.9-1.332l2.232 1.296c-.468.96-1.086 1.704-1.854 2.232-.756.516-1.716.774-2.88.774ZM95.1832 12.996c-.828 0-1.584-.138-2.268-.414-.684-.276-1.266-.684-1.746-1.224-.48-.552-.852-1.23-1.116-2.034-.264-.816-.396-1.758-.396-2.826s.132-2.004.396-2.808c.264-.816.636-1.494 1.116-2.034.48-.552 1.062-.966 1.746-1.242.684-.276 1.44-.414 2.268-.414.828 0 1.584.138 2.268.414.684.276 1.266.69 1.746 1.242.48.54.8518 1.218 1.1158 2.034.264.804.396 1.74.396 2.808 0 1.068-.132 2.01-.396 2.826-.264.804-.6358 1.482-1.1158 2.034-.48.54-1.062.948-1.746 1.224-.684.276-1.44.414-2.268.414Zm0-2.43c.828 0 1.47-.27 1.926-.81.468-.54.702-1.314.702-2.322V5.562c0-1.008-.234-1.782-.702-2.322-.456-.54-1.098-.81-1.926-.81-.828 0-1.476.27-1.944.81-.456.54-.684 1.314-.684 2.322v1.872c0 1.008.228 1.782.684 2.322.468.54 1.116.81 1.944.81ZM85.3265 2.6468v10.134h-2.736V2.6468h-3.402v-2.43h9.54v2.43h-3.402ZM73.3462 12.996c-1.104 0-2.04-.186-2.808-.558-.768-.384-1.422-.876-1.962-1.476l1.8-1.818c.852.96 1.902 1.44 3.15 1.44.672 0 1.17-.138 1.494-.414.324-.276.486-.642.486-1.098 0-.348-.096-.636-.288-.864-.192-.24-.582-.402-1.17-.486l-1.242-.162c-1.332-.168-2.31-.57-2.934-1.206-.612-.636-.918-1.482-.918-2.538 0-.564.108-1.08.324-1.548.216-.468.522-.87.918-1.206.408-.336.9-.594 1.476-.774.588-.192 1.254-.288 1.998-.288.948 0 1.782.15 2.502.45.72.3 1.338.738 1.854 1.314L76.2082 3.6c-.3-.348-.666-.63-1.098-.846-.42-.228-.954-.342-1.602-.342-.612 0-1.068.108-1.368.324-.3.216-.45.516-.45.9 0 .432.114.744.342.936.24.192.624.33 1.152.414l1.242.198c1.296.204 2.256.606 2.88 1.206.624.588.936 1.428.936 2.52 0 .6-.108 1.152-.324 1.656-.216.504-.534.936-.954 1.296-.408.36-.918.642-1.53.846-.612.192-1.308.288-2.088.288ZM52.4736.2168h4.734c.828 0 1.584.132 2.268.396.684.264 1.266.66 1.746 1.188.48.516.852 1.17 1.116 1.962.264.78.396 1.692.396 2.736 0 1.044-.132 1.962-.396 2.754-.264.78-.636 1.434-1.116 1.962-.48.516-1.062.906-1.746 1.17-.684.264-1.44.396-2.268.396h-4.734V.2168Zm4.734 10.134c.816 0 1.458-.228 1.926-.684.468-.456.702-1.188.702-2.196v-1.944c0-1.008-.234-1.74-.702-2.196-.468-.456-1.11-.684-1.926-.684h-1.998v7.704h1.998ZM42.9287 12.7808V.2168h2.736v10.134h4.788v2.43h-7.524ZM33.5358 12.7808h-2.736V.2168h5.958c.576 0 1.098.096 1.566.288.468.192.864.468 1.188.828.336.348.594.768.774 1.26.18.492.27 1.038.27 1.638 0 .852-.192 1.596-.576 2.232-.372.636-.942 1.098-1.71 1.386l2.466 4.932h-3.042l-2.196-4.608h-1.962v4.608Zm2.88-6.912c.408 0 .726-.102.954-.306.24-.216.36-.528.36-.936v-.792c0-.408-.12-.714-.36-.918-.228-.216-.546-.324-.954-.324h-2.88v3.276h2.88ZM22.9899 12.996c-.828 0-1.584-.138-2.268-.414-.684-.276-1.266-.684-1.746-1.224-.48-.552-.852-1.23-1.116-2.034-.264-.816-.396-1.758-.396-2.826s.132-2.004.396-2.808c.264-.816.636-1.494 1.116-2.034.48-.552 1.062-.966 1.746-1.242.684-.276 1.44-.414 2.268-.414.828 0 1.584.138 2.268.414.684.276 1.266.69 1.746 1.242.48.54.852 1.218 1.116 2.034.264.804.396 1.74.396 2.808 0 1.068-.132 2.01-.396 2.826-.264.804-.636 1.482-1.116 2.034-.48.54-1.062.948-1.746 1.224-.684.276-1.44.414-2.268.414Zm0-2.43c.828 0 1.47-.27 1.926-.81.468-.54.702-1.314.702-2.322V5.562c0-1.008-.234-1.782-.702-2.322-.456-.54-1.098-.81-1.926-.81-.828 0-1.476.27-1.944.81-.456.54-.684 1.314-.684 2.322v1.872c0 1.008.228 1.782.684 2.322.468.54 1.116.81 1.944.81ZM2.844 12.7808 0 .2168h2.7l1.188 6.03.666 3.492h.054l.792-3.492 1.386-6.03h2.988l1.404 6.03.774 3.492h.054l.666-3.492 1.206-6.03h2.592l-2.916 12.564H10.44l-1.584-6.804-.612-2.754H8.19l-.63 2.754-1.584 6.804H2.844Z"
        fill="#FDFEFF" />
</svg>