<svg width="24" height="24" viewBox="0 0 24 24" fill="none" xmlns="http://www.w3.org/2000/svg">
  <path
    d="M11.29 15.71c.0951.091.2072.1624.33.21.2435.1.5165.1.76 0a1.0012 1.0012 0 0 0 .33-.21l3-3a1.0041 1.0041 0 1 0-1.42-1.42L13 12.59V9a1.0002 1.0002 0 0 0-1.7071-.7071A1.0002 1.0002 0 0 0 11 9v3.59l-1.29-1.3a1.001 1.001 0 0 0-.71-.2958.9994.9994 0 0 0-.71.2958 1.001 1.001 0 0 0-.2958.71 1.0003 1.0003 0 0 0 .2958.71l3 3ZM12 22a10.0002 10.0002 0 0 0 7.0711-17.071 10.0005 10.0005 0 0 0-10.898-2.1678A10 10 0 0 0 12 22Zm0-18a8 8 0 1 1 0 16 8 8 0 0 1 0-16Z"
    fill="#BBC3CF" />
</svg>