<svg width="39" height="13" fill="none" viewBox="0 0 39 13" xmlns="http://www.w3.org/2000/svg">
  <path
    d="M29.6045 12.7808V.2168h8.55v2.43h-5.814v2.574h4.986v2.412h-4.986v2.718h5.814v2.43h-8.55Zm-7.1646.2152c-1.104 0-2.04-.186-2.808-.558-.768-.384-1.422-.876-1.962-1.476l1.8-1.818c.852.96 1.902 1.44 3.15 1.44.672 0 1.17-.138 1.494-.414.324-.276.486-.642.486-1.098 0-.348-.096-.636-.288-.864-.192-.24-.582-.402-1.17-.486l-1.242-.162c-1.332-.168-2.31-.57-2.934-1.206-.612-.636-.918-1.482-.918-2.538 0-.564.108-1.08.324-1.548.216-.468.522-.87.918-1.206.408-.336.9-.594 1.476-.774.588-.192 1.254-.288 1.998-.288.948 0 1.782.15 2.502.45.72.3 1.338.738 1.854 1.314L25.3019 3.6c-.3-.348-.666-.63-1.098-.846-.42-.228-.954-.342-1.602-.342-.612 0-1.068.108-1.368.324-.3.216-.45.516-.45.9 0 .432.114.744.342.936.24.192.624.33 1.152.414l1.242.198c1.296.204 2.256.606 2.88 1.206.624.588.936 1.428.936 2.52 0 .6-.108 1.152-.324 1.656-.216.504-.534.936-.954 1.296-.408.36-.918.642-1.53.846-.612.192-1.308.288-2.088.288ZM2.844 12.7808 0 .2168h2.7l1.188 6.03.666 3.492h.054l.792-3.492 1.386-6.03h2.988l1.404 6.03.774 3.492h.054l.666-3.492 1.206-6.03h2.592l-2.916 12.564H10.44l-1.584-6.804-.612-2.754H8.19l-.63 2.754-1.584 6.804H2.844Z"
    fill="#2A3342" />
</svg>