<svg width="20" height="20" viewBox="0 0 20 20" fill="none" xmlns="http://www.w3.org/2000/svg">
  <path
    d="M9.29 13.71c.0951.091.2073.1624.33.21.2435.1.5165.1.76 0a1.0012 1.0012 0 0 0 .33-.21l3-3a1.0041 1.0041 0 1 0-1.42-1.42L11 10.59V7a1.0002 1.0002 0 0 0-1.7071-.7071A1 1 0 0 0 9 7v3.59l-1.29-1.3a1 1 0 0 0-1.42 0 1 1 0 0 0 0 1.42l3 3ZM10 20a10.0002 10.0002 0 0 0 7.0711-17.071A10.0004 10.0004 0 0 0 6.1731.7611 10 10 0 0 0 10 20Zm0-18a8 8 0 1 1 0 16 8 8 0 0 1 0-16Z"
    fill="#BBC3CF" />
</svg>