<svg xmlns="http://www.w3.org/2000/svg" width="40" height="14" fill="none"><path fill="#2A3342" d="M25.718.179h3.414l3.605 8.795h.153L36.495.18h3.414v13.09h-2.685V4.75h-.109l-3.387 8.457h-1.829l-3.387-8.489h-.109v8.553h-2.685V.179ZM21.025 3.944c-.051-.516-.27-.916-.658-1.202-.388-.285-.914-.428-1.58-.428-.45 0-.832.064-1.143.192-.311.123-.55.296-.716.517a1.246 1.246 0 0 0-.243.755c-.009.234.04.439.147.613.11.175.262.326.454.454.191.124.413.232.665.326.25.09.52.166.805.23l1.176.282a8.294 8.294 0 0 1 1.572.51c.478.214.891.476 1.24.787.35.311.62.678.812 1.1.196.421.296.905.3 1.45-.004.802-.208 1.496-.613 2.084-.4.584-.98 1.038-1.739 1.362-.754.32-1.664.48-2.729.48-1.057 0-1.977-.163-2.761-.486-.78-.324-1.39-.804-1.828-1.439-.435-.639-.663-1.43-.684-2.371h2.678c.03.439.155.805.377 1.1.226.289.526.508.901.658.38.145.808.217 1.285.217.469 0 .876-.068 1.221-.205.35-.136.62-.326.812-.569.192-.242.287-.522.287-.837 0-.294-.087-.541-.262-.741-.17-.2-.422-.371-.754-.512a7.675 7.675 0 0 0-1.208-.383l-1.425-.358c-1.104-.269-1.976-.688-2.615-1.26-.639-.57-.957-1.34-.952-2.307-.005-.793.206-1.485.633-2.077.43-.593 1.02-1.055 1.77-1.387C17 .166 17.852 0 18.807 0c.972 0 1.82.166 2.544.499.729.332 1.296.794 1.7 1.387.405.592.614 1.278.627 2.058h-2.653ZM8.91 4.41a2.87 2.87 0 0 0-.377-.824 2.328 2.328 0 0 0-.594-.614 2.55 2.55 0 0 0-.793-.39 3.35 3.35 0 0 0-.978-.134c-.669 0-1.257.166-1.764.499-.503.332-.895.816-1.176 1.45-.281.631-.422 1.403-.422 2.315 0 .912.139 1.687.416 2.326.277.64.669 1.127 1.176 1.464.507.332 1.106.499 1.796.499.626 0 1.161-.111 1.604-.333a2.382 2.382 0 0 0 1.023-.952c.239-.41.358-.893.358-1.451l.562.083H6.366V6.264h5.479v1.65c0 1.15-.243 2.139-.73 2.965a4.967 4.967 0 0 1-2.006 1.905c-.853.443-1.828.665-2.928.665-1.227 0-2.305-.27-3.234-.812-.93-.545-1.654-1.319-2.174-2.32C.258 9.31 0 8.117 0 6.737 0 5.677.153 4.73.46 3.9c.311-.835.746-1.542 1.304-2.122A5.635 5.635 0 0 1 3.714.454 6.317 6.317 0 0 1 6.124 0c.741 0 1.431.109 2.07.326.64.213 1.207.516 1.7.908.5.392.906.858 1.222 1.4.315.536.518 1.129.607 1.777H8.911Z"/></svg>