<svg xmlns="http://www.w3.org/2000/svg" width="201" height="13" fill="none"><path fill="#2A3342" d="M191.19 2.38V.18H201v2.2h-3.66v10.44h-2.5V2.38h-3.65ZM181.59 12.82V.17h8.05v2.2h-5.53V5.4h5.11v2.2h-5.1v3.03h5.54v2.2h-8.07ZM170.27 12.82V.17h2.52v5.58h.16l4.3-5.58h3.02l-4.43 5.67 4.49 6.98h-3.03l-3.27-5.2-1.24 1.6v3.6h-2.52ZM159.49 12.82V.17h4.71c.9 0 1.67.17 2.31.52.64.33 1.13.81 1.46 1.43.34.62.51 1.35.51 2.18 0 .84-.17 1.57-.51 2.17a3.4 3.4 0 0 1-1.49 1.39c-.64.32-1.43.48-2.34.48h-3.16V6.19h2.75a3 3 0 0 0 1.2-.21c.32-.14.56-.35.71-.63.16-.28.24-.63.24-1.05 0-.42-.08-.77-.24-1.06a1.5 1.5 0 0 0-.72-.65 2.8 2.8 0 0 0-1.2-.23h-1.7v10.46h-2.53Zm6.45-5.75 2.97 5.75h-2.8l-2.9-5.75h2.73ZM149.26 12.82h-2.7L150.68.17h3.25l4.12 12.65h-2.7l-3-9.76h-.1l-2.99 9.76Zm-.17-4.97h6.4v2.09h-6.4v-2.1ZM132.18.17h3.1l3.3 8.5h.14L142 .17h3.11v12.65h-2.45V4.6h-.1l-3.09 8.17h-1.67l-3.09-8.2h-.1v8.26h-2.44V.17ZM117.05 12.82V.17h2.53v5.58h.15l4.3-5.58h3.03l-4.43 5.67 4.48 6.98h-3.02l-3.27-5.2-1.24 1.6v3.6h-2.53ZM115.24 4.6h-2.55a2.76 2.76 0 0 0-.3-.93 2.34 2.34 0 0 0-1.33-1.15c-.29-.1-.6-.15-.95-.15-.61 0-1.15.16-1.61.48-.46.32-.82.8-1.07 1.41a5.87 5.87 0 0 0-.38 2.24c0 .9.13 1.66.38 2.27.26.61.61 1.08 1.07 1.39.46.31 1 .47 1.6.47.33 0 .65-.05.93-.14a2.34 2.34 0 0 0 1.34-1.09c.15-.26.26-.56.31-.9l2.56.01a5.1 5.1 0 0 1-3.13 4.12c-.6.24-1.29.36-2.05.36a5.4 5.4 0 0 1-2.86-.76A5.32 5.32 0 0 1 105.2 10a7.81 7.81 0 0 1-.72-3.51c0-1.38.25-2.56.74-3.52A5.3 5.3 0 0 1 110.06 0c.69 0 1.33.1 1.92.3a4.8 4.8 0 0 1 3.26 4.3ZM102.83 6.5c0 1.38-.25 2.55-.74 3.52a5.31 5.31 0 0 1-4.85 2.97 5.41 5.41 0 0 1-2.86-.76 5.33 5.33 0 0 1-2-2.22 7.7 7.7 0 0 1-.74-3.51c0-1.38.25-2.56.74-3.52A5.29 5.29 0 0 1 97.24 0a5.27 5.27 0 0 1 4.85 2.98c.5.96.74 2.14.74 3.52Zm-2.56 0c0-.9-.13-1.65-.38-2.26a2.72 2.72 0 0 0-2.65-1.87 2.72 2.72 0 0 0-2.66 1.87 6.03 6.03 0 0 0-.38 2.26c0 .89.13 1.64.38 2.26a2.72 2.72 0 0 0 2.66 1.87 2.72 2.72 0 0 0 2.65-1.87c.25-.62.38-1.37.38-2.26ZM80.97 2.38V.18h9.81v2.2h-3.65v10.44h-2.5V2.38h-3.66ZM77.15 3.81c-.05-.5-.25-.88-.6-1.16a2.28 2.28 0 0 0-1.44-.41c-.42 0-.76.06-1.05.18-.28.12-.5.29-.65.5-.15.22-.22.46-.22.73-.01.23.03.42.13.6.1.16.24.3.41.43.18.12.38.23.61.32.23.08.48.16.74.22l1.07.27c.52.12 1 .29 1.43.5.44.2.82.45 1.14.75.31.3.56.66.74 1.07.17.4.27.87.27 1.4 0 .77-.19 1.44-.56 2.01-.37.57-.9 1-1.59 1.32-.68.3-1.51.46-2.49.46-.96 0-1.8-.16-2.52-.47a3.73 3.73 0 0 1-1.66-1.39c-.4-.62-.6-1.38-.63-2.29h2.45c.02.42.14.78.34 1.06s.48.5.82.64c.35.14.74.2 1.17.2.43 0 .8-.06 1.12-.19.32-.13.56-.31.74-.55.17-.23.26-.5.26-.8 0-.3-.08-.53-.24-.72-.15-.2-.38-.36-.69-.5-.3-.13-.66-.26-1.1-.37l-1.3-.34c-1-.26-1.8-.67-2.38-1.22a2.9 2.9 0 0 1-.87-2.23c0-.77.19-1.44.57-2 .4-.58.94-1.03 1.62-1.35A5.43 5.43 0 0 1 75.12 0c.89 0 1.66.16 2.32.48.67.32 1.19.77 1.56 1.34.36.57.56 1.24.57 1.99h-2.42ZM57.55 12.82V.17h2.52v10.45h5.12v2.2h-7.64ZM47.32 12.82h-2.7L48.73.17h3.25l4.12 12.65h-2.7l-3-9.76h-.1l-2.99 9.76Zm-.17-4.97h6.4v2.09h-6.4v-2.1ZM34.4 12.82V.17h4.79c.88 0 1.6.14 2.2.42a2.97 2.97 0 0 1 1.76 2.83c0 .49-.1.92-.28 1.3-.18.37-.44.67-.77.91-.32.24-.69.4-1.1.5v.13c.45.02.88.15 1.27.4.4.25.73.6.98 1.06.24.45.37.98.37 1.6a3.24 3.24 0 0 1-1.85 3.04c-.62.3-1.37.46-2.26.46h-5.1Zm2.53-2.19h2.06c.7 0 1.22-.14 1.54-.42.32-.29.48-.67.48-1.15a1.66 1.66 0 0 0-.92-1.56c-.3-.15-.64-.22-1.04-.22h-2.12v3.35Zm0-5.16h1.87c.35 0 .65-.07.92-.2a1.51 1.51 0 0 0 .88-1.41c0-.46-.15-.83-.46-1.1-.3-.29-.73-.43-1.3-.43h-1.91v3.14ZM32.53 6.5c0 1.38-.24 2.55-.74 3.52a5.32 5.32 0 0 1-2 2.21c-.85.51-1.8.76-2.85.76a5.41 5.41 0 0 1-2.86-.76 5.33 5.33 0 0 1-2-2.22 7.7 7.7 0 0 1-.73-3.51c0-1.38.24-2.56.73-3.52A5.29 5.29 0 0 1 26.94 0a5.27 5.27 0 0 1 4.85 2.98c.5.96.74 2.14.74 3.52Zm-2.56 0c0-.9-.12-1.65-.38-2.26a2.72 2.72 0 0 0-2.65-1.87 2.72 2.72 0 0 0-2.66 1.87 6.03 6.03 0 0 0-.37 2.26c0 .89.12 1.64.37 2.26a2.72 2.72 0 0 0 2.66 1.87 2.72 2.72 0 0 0 2.65-1.87c.26-.62.38-1.37.38-2.26ZM12.7 12.82V.17h2.53v10.45h5.12v2.2H12.7ZM8.13 4.26c-.08-.3-.2-.56-.34-.8a2.28 2.28 0 0 0-1.27-.97 2.9 2.9 0 0 0-.9-.12c-.6 0-1.14.16-1.6.48-.46.32-.82.79-1.07 1.4-.26.6-.39 1.35-.39 2.23 0 .89.13 1.63.38 2.25.25.62.61 1.1 1.07 1.42.47.32 1.01.48 1.64.48.57 0 1.06-.1 1.47-.32.4-.22.71-.53.93-.92.22-.4.32-.87.32-1.4l.52.08H5.8V6.05h5v1.6c0 1.1-.22 2.06-.67 2.86-.44.8-1.05 1.4-1.83 1.84-.78.43-1.67.64-2.67.64a5.5 5.5 0 0 1-2.95-.78A5.33 5.33 0 0 1 .7 9.97 7.86 7.86 0 0 1 0 6.5c0-1.03.14-1.94.42-2.74.28-.81.68-1.5 1.19-2.05A5.14 5.14 0 0 1 5.59 0a5.54 5.54 0 0 1 3.44 1.2 4.68 4.68 0 0 1 1.67 3.06H8.13Z"/></svg>