<svg width="30" height="30" fill="none" xmlns="http://www.w3.org/2000/svg">
  <path
    d="M25.8042 16.9596c-.3208 0-.6562-.102-.977-.175a14.378 14.378 0 0 1-1.9105-.5687 2.9164 2.9164 0 0 0-3.6166 1.4583l-.3209.6709a19.2086 19.2086 0 0 1-3.8937-2.9167 19.212 19.212 0 0 1-2.9167-3.8938l.6709-.3062a2.9168 2.9168 0 0 0 1.4583-3.6167 15.2766 15.2766 0 0 1-.5688-1.925 11.4713 11.4713 0 0 1-.175-.977 4.375 4.375 0 0 0-4.375-3.6313H4.7897A4.375 4.375 0 0 0 1.523 2.5367a4.375 4.375 0 0 0-1.0646 3.5A27.8104 27.8104 0 0 0 8.348 22.0784a27.8112 27.8112 0 0 0 16.0417 7.8896c.1893.0144.3794.0144.5687 0a4.3754 4.3754 0 0 0 2.9167-1.1084 4.3753 4.3753 0 0 0 1.4583-3.2666v-4.375a4.3753 4.3753 0 0 0-3.5292-4.2584Zm.7146 8.75a1.458 1.458 0 0 1-.4812 1.0792 1.4586 1.4586 0 0 1-1.1959.3646 25.0256 25.0256 0 0 1-14.3937-7.0583A25.0251 25.0251 0 0 1 3.3313 5.6576a1.4581 1.4581 0 0 1 .3646-1.1959 1.4581 1.4581 0 0 1 1.0938-.4812h4.375A1.4583 1.4583 0 0 1 10.623 5.118c0 .3937.1312.802.2187 1.1958a16.046 16.046 0 0 0 .6709 2.2458l-2.0417.9625a1.4583 1.4583 0 0 0-.7583.8167 1.4582 1.4582 0 0 0 0 1.1083 21.1314 21.1314 0 0 0 10.2083 10.2084 1.4588 1.4588 0 0 0 1.1083 0 1.4583 1.4583 0 0 0 .8167-.7584l.9188-2.0416a18.1056 18.1056 0 0 0 2.3041.6708c.3792.0875.7875.1604 1.1813.2188a1.458 1.458 0 0 1 1.1375 1.4583l.1312 4.5062ZM17.9147.918h-1.0209a1.4639 1.4639 0 0 0-1.3343 1.5823 1.4633 1.4633 0 0 0 1.5822 1.3343h.773a8.7498 8.7498 0 0 1 8.75 8.75v.773a1.4584 1.4584 0 0 0 1.327 1.575h.1167a1.4587 1.4587 0 0 0 1.4583-1.3271v-1.0209A11.6665 11.6665 0 0 0 17.9147.918Zm2.9166 11.6666a1.4583 1.4583 0 0 0 2.9167 0 5.8331 5.8331 0 0 0-5.8333-5.8333 1.4583 1.4583 0 1 0 0 2.9167 2.917 2.917 0 0 1 2.0624.8542 2.917 2.917 0 0 1 .8542 2.0624Z"
    fill="#FDFEFF" />
</svg>