<svg width="526" height="437" viewBox="0 0 526 437" fill="none" xmlns="http://www.w3.org/2000/svg">
<path opacity="0.16" d="M265.7 436.056C353.295 436.056 424.305 427.394 424.305 416.709C424.305 406.025 353.295 397.363 265.7 397.363C178.105 397.363 107.095 406.025 107.095 416.709C107.095 427.394 178.105 436.056 265.7 436.056Z" fill="#333F51"/>
<path d="M436.031 34.936C436.031 34.936 424.76 38.3585 420.759 38.3999C416.757 38.4412 404.846 36.4663 399.427 32.2786C394.009 28.0909 389.191 23.0553 385.841 19.1985C382.48 15.352 379.978 15.5174 379.74 20.5427C379.492 25.5576 382.418 31.3376 385.468 34.1915C388.519 37.0453 393.43 39.3925 393.637 40.2507C393.844 41.1089 394.402 42.7323 394.402 42.7323C394.402 42.7323 385.592 47.6231 380.288 49.8049C374.984 51.9866 371.096 54.158 372.357 56.4845C373.619 58.811 376.938 61.4787 378.83 63.5571C380.722 65.6354 391.352 73.1629 394.712 74.1866C398.073 75.2103 400.782 75.903 402.416 75.9341C404.06 75.9754 404.535 76.6372 407.265 75.0862C409.995 73.5352 413.211 71.8394 414.338 71.4362C415.465 71.0329 417.067 71.3017 421.369 68.0136C425.681 64.7255 429.072 61.2926 429.072 61.2926L445.813 56.774L436.031 34.936Z" fill="#FDFEFF" stroke="#333F51" stroke-width="0.7755" stroke-miterlimit="10"/>
<path d="M429.939 35.4532L441.458 63.1231L452.987 60.3313L439.856 32.3926L429.939 35.4532Z" fill="#FDFEFF" stroke="#333F51" stroke-width="0.7755" stroke-miterlimit="10"/>
<path d="M455.729 23.8711L435.204 32.0914L449.039 64.9726L480.741 59.0581L479.315 56.835L455.729 23.8711Z" fill="#333F51" stroke="#333F51" stroke-width="0.7755" stroke-miterlimit="10"/>
<path d="M394.713 44.3145C394.713 44.3145 398.663 52.3797 399.914 54.1168C401.155 55.8539 408.238 57.8495 409.758 57.1567" stroke="#333F51" stroke-width="0.7755" stroke-miterlimit="10"/>
<path d="M405.031 64.3752C405.031 64.3752 407.378 63.7031 407.989 65.6884C408.599 67.6736 406.22 72.8023 405.114 75.2115C404.008 77.6207 403.242 77.9619 400.254 78.2825C397.256 78.6134 395.291 76.99 395.291 76.99C395.291 76.99 398.527 74.467 399.013 73.7225C399.489 72.9781 405.031 64.3752 405.031 64.3752Z" fill="#FDFEFF" stroke="#333F51" stroke-width="0.7755" stroke-miterlimit="10"/>
<path d="M387.206 71.8813C387.206 71.8813 391.6 78.0233 393.451 77.5063C395.302 76.9893 397.587 75.9553 398.425 75.1591C399.262 74.3526 404.008 67.735 404.639 66.0703C405.27 64.4055 405.228 61.8205 403.419 60.6935C401.609 59.5664 401.609 59.5664 401.609 59.5664C401.609 59.5664 399.19 62.11 395.85 64.4882C392.51 66.8768 386.141 69.8133 386.027 70.5061C385.903 71.1989 387.206 71.8813 387.206 71.8813Z" fill="#FDFEFF" stroke="#333F51" stroke-width="0.7755" stroke-miterlimit="10"/>
<path d="M379.275 65.0348C379.275 65.0348 378.758 66.0068 379.617 67.2062C380.475 68.4057 381.457 73.1517 384.177 73.0173C386.906 72.8829 393.441 69.6155 394.641 68.7572C395.84 67.899 401.103 60.2991 401.579 59.5547C402.055 58.8102 400.338 56.4113 399.397 55.6668C398.456 54.9223 395.871 56.3803 395.871 56.3803C395.871 56.3803 385.417 63.4735 379.275 65.0348Z" fill="#FDFEFF" stroke="#333F51" stroke-width="0.7755" stroke-miterlimit="10"/>
<path d="M376.928 54.4177C376.928 54.4177 383.494 54.5624 384.486 54.2626C385.479 53.9524 392.644 51.8533 392.644 51.8533C392.644 51.8533 393.73 51.6776 394.878 53.2803C396.026 54.883 395.488 56.6718 394.351 57.8919C393.203 59.112 388.974 63.3514 386.761 63.9305C384.548 64.5095 378.861 64.737 377.093 64.799C375.315 64.8611 374.425 63.8891 374.043 61.9452C373.66 60.0013 372.357 56.4857 372.357 56.4857" fill="#FDFEFF"/>
<path d="M376.928 54.4177C376.928 54.4177 383.494 54.5624 384.486 54.2626C385.479 53.9524 392.644 51.8533 392.644 51.8533C392.644 51.8533 393.73 51.6776 394.878 53.2803C396.026 54.883 395.488 56.6718 394.351 57.8919C393.203 59.112 388.974 63.3514 386.761 63.9305C384.548 64.5095 378.861 64.737 377.093 64.799C375.315 64.8611 374.425 63.8891 374.043 61.9452C373.66 60.0013 372.357 56.4857 372.357 56.4857" stroke="#333F51" stroke-width="0.7755" stroke-miterlimit="10"/>
<path d="M468.714 288.679C468.714 288.679 457.557 284.905 454.269 282.609C450.991 280.314 442.45 271.783 440.486 265.217C438.521 258.652 437.528 251.765 437.042 246.678C436.546 241.591 434.416 240.277 431.304 244.217C428.181 248.156 427.199 254.557 428.026 258.662C428.843 262.767 431.469 267.523 431.149 268.34C430.818 269.157 430.332 270.801 430.332 270.801C430.332 270.801 420.323 269.653 414.739 268.34C409.156 267.027 404.73 266.531 404.399 269.157C404.068 271.783 405.216 275.888 405.547 278.67C405.878 281.462 410.138 293.766 412.278 296.558C414.408 299.35 416.218 301.48 417.531 302.462C418.844 303.444 418.844 304.272 421.956 304.592C425.079 304.923 428.688 305.409 429.836 305.74C430.983 306.071 432.131 307.219 437.549 307.053C442.967 306.888 447.724 306.071 447.724 306.071L463.968 312.14L468.714 288.679Z" fill="#FDFEFF" stroke="#333F51" stroke-width="0.7755" stroke-miterlimit="10"/>
<path d="M463.463 285.557L456.731 314.767L467.733 319.193L473.306 288.845L463.463 285.557Z" fill="#FDFEFF" stroke="#333F51" stroke-width="0.7755" stroke-miterlimit="10"/>
<path d="M491.174 291.139L469.697 285.887L461.818 320.67L491.05 334.309L491.174 331.672V291.139Z" fill="#333F51" stroke="#333F51" stroke-width="0.7755" stroke-miterlimit="10"/>
<path d="M429.66 272.27C429.66 272.27 428.182 281.131 428.182 283.261C428.182 285.391 432.773 291.14 434.417 291.461" stroke="#333F51" stroke-width="0.7755" stroke-miterlimit="10"/>
<path d="M426.373 294.582C426.373 294.582 428.668 295.399 428.017 297.374C427.365 299.338 422.433 302.13 420.138 303.443C417.842 304.757 417.015 304.591 414.399 303.113C411.773 301.634 411.121 299.173 411.121 299.173C411.121 299.173 415.226 299.008 416.043 298.677C416.86 298.356 426.373 294.582 426.373 294.582Z" fill="#FDFEFF" stroke="#333F51" stroke-width="0.7755" stroke-miterlimit="10"/>
<path d="M407.503 290.312C407.503 290.312 407.503 297.86 409.312 298.512C411.122 299.163 413.583 299.66 414.73 299.494C415.878 299.329 423.592 296.702 425.07 295.72C426.549 294.738 428.028 292.597 427.2 290.633C426.384 288.668 426.384 288.668 426.384 288.668C426.384 288.668 422.94 289.32 418.835 289.32C414.73 289.32 407.844 288.006 407.348 288.503C406.851 288.999 407.503 290.312 407.503 290.312Z" fill="#FDFEFF" stroke="#333F51" stroke-width="0.7755" stroke-miterlimit="10"/>
<path d="M405.041 280.137C405.041 280.137 404.059 280.633 404.059 282.101C404.059 283.58 402.095 288.005 404.39 289.484C406.686 290.963 413.903 292.11 415.381 292.11C416.86 292.11 425.556 288.988 426.373 288.667C427.19 288.336 427.19 285.389 426.869 284.242C426.538 283.094 423.591 282.763 423.591 282.763C423.591 282.763 410.956 282.443 405.041 280.137Z" fill="#FDFEFF" stroke="#333F51" stroke-width="0.7755" stroke-miterlimit="10"/>
<path d="M409.312 270.129C409.312 270.129 414.564 274.068 415.547 274.399C416.529 274.73 423.591 277.191 423.591 277.191C423.591 277.191 424.573 277.687 424.573 279.652C424.573 281.616 423.095 282.775 421.451 283.095C419.807 283.426 413.903 284.408 411.773 283.591C409.642 282.775 404.876 279.652 403.407 278.67C401.929 277.687 401.763 276.374 402.591 274.565C403.407 272.755 404.4 269.146 404.4 269.146" fill="#FDFEFF"/>
<path d="M409.312 270.129C409.312 270.129 414.564 274.068 415.547 274.399C416.529 274.73 423.591 277.191 423.591 277.191C423.591 277.191 424.573 277.687 424.573 279.652C424.573 281.616 423.095 282.775 421.451 283.095C419.807 283.426 413.903 284.408 411.773 283.591C409.642 282.775 404.876 279.652 403.407 278.67C401.929 277.687 401.763 276.374 402.591 274.565C403.407 272.755 404.4 269.146 404.4 269.146" stroke="#333F51" stroke-width="0.7755" stroke-miterlimit="10"/>
<path d="M75.0117 284.968C75.0117 284.968 86.1686 281.194 89.4567 278.898C92.7345 276.603 101.275 268.072 103.24 261.506C105.205 254.941 106.197 248.054 106.683 242.967C107.179 237.88 109.309 236.566 112.422 240.506C115.545 244.445 116.527 250.846 115.7 254.951C114.883 259.056 112.256 263.812 112.577 264.629C112.908 265.446 113.394 267.09 113.394 267.09C113.394 267.09 123.403 265.942 128.987 264.629C134.57 263.316 138.996 262.82 139.327 265.446C139.657 268.072 138.51 272.177 138.179 274.959C137.848 277.751 133.588 290.055 131.447 292.847C129.307 295.639 127.508 297.769 126.195 298.751C124.882 299.733 124.882 300.561 121.769 300.881C118.647 301.212 115.038 301.698 113.89 302.029C112.742 302.36 111.595 303.508 106.176 303.342C100.758 303.177 96.0019 302.36 96.0019 302.36L79.7578 308.429L75.0117 284.968Z" fill="#FDFEFF" stroke="#333F51" stroke-width="0.7755" stroke-miterlimit="10"/>
<path d="M80.2652 281.846L86.9862 311.056L75.9947 315.492L70.4111 285.134L80.2652 281.846Z" fill="#FDFEFF" stroke="#333F51" stroke-width="0.7755" stroke-miterlimit="10"/>
<path d="M52.543 287.439L74.0192 282.176L81.8982 316.97L52.6774 330.598L52.543 327.961V287.439Z" fill="#333F51" stroke="#333F51" stroke-width="0.7755" stroke-miterlimit="10"/>
<path d="M114.066 268.559C114.066 268.559 115.545 277.42 115.545 279.55C115.545 281.68 110.954 287.429 109.31 287.75" stroke="#333F51" stroke-width="0.7755" stroke-miterlimit="10"/>
<path d="M117.344 290.873C117.344 290.873 115.049 291.69 115.7 293.665C116.352 295.629 121.284 298.421 123.579 299.734C125.875 301.048 126.702 300.882 129.318 299.404C131.945 297.925 132.596 295.464 132.596 295.464C132.596 295.464 128.491 295.299 127.674 294.968C126.868 294.647 117.344 290.873 117.344 290.873Z" fill="#FDFEFF" stroke="#333F51" stroke-width="0.7755" stroke-miterlimit="10"/>
<path d="M136.214 286.611C136.214 286.611 136.214 294.159 134.405 294.811C132.595 295.462 130.134 295.958 128.986 295.793C127.839 295.627 120.125 293.001 118.646 292.019C117.168 291.037 115.689 288.896 116.516 286.932C117.333 284.967 117.333 284.967 117.333 284.967C117.333 284.967 120.776 285.618 124.881 285.618C128.986 285.618 135.873 284.305 136.369 284.802C136.876 285.298 136.214 286.611 136.214 286.611Z" fill="#FDFEFF" stroke="#333F51" stroke-width="0.7755" stroke-miterlimit="10"/>
<path d="M138.675 276.438C138.675 276.438 139.657 276.934 139.657 278.402C139.657 279.881 141.621 284.306 139.326 285.785C137.031 287.263 129.813 288.411 128.335 288.411C126.856 288.411 118.16 285.289 117.343 284.968C116.526 284.637 116.526 281.69 116.847 280.542C117.167 279.395 120.125 279.064 120.125 279.064C120.125 279.064 132.77 278.733 138.675 276.438Z" fill="#FDFEFF" stroke="#333F51" stroke-width="0.7755" stroke-miterlimit="10"/>
<path d="M134.415 266.428C134.415 266.428 129.162 270.367 128.18 270.698C127.198 271.029 120.136 273.49 120.136 273.49C120.136 273.49 119.153 273.986 119.153 275.951C119.153 277.915 120.632 279.073 122.276 279.394C123.92 279.715 129.824 280.707 131.954 279.89C134.084 279.073 138.851 275.951 140.319 274.968C141.798 273.986 141.963 272.673 141.136 270.863C140.309 269.054 139.327 265.445 139.327 265.445" fill="#FDFEFF"/>
<path d="M134.415 266.428C134.415 266.428 129.162 270.367 128.18 270.698C127.198 271.029 120.136 273.49 120.136 273.49C120.136 273.49 119.153 273.986 119.153 275.951C119.153 277.915 120.632 279.073 122.276 279.394C123.92 279.715 129.824 280.707 131.954 279.89C134.084 279.073 138.851 275.951 140.319 274.968C141.798 273.986 141.963 272.673 141.136 270.863C140.309 269.054 139.327 265.445 139.327 265.445" stroke="#333F51" stroke-width="0.7755" stroke-miterlimit="10"/>
<path d="M87.14 44.7602C87.14 44.7602 98.4106 48.1827 102.412 48.2241C106.414 48.2654 118.325 46.2905 123.744 42.1028C129.162 37.9151 133.98 32.8795 137.33 29.0227C140.691 25.1762 143.193 25.3417 143.431 30.3669C143.679 35.3818 140.753 41.1619 137.703 44.0157C134.652 46.8695 129.741 49.2167 129.534 50.0749C129.327 50.9331 128.769 52.5565 128.769 52.5565C128.769 52.5565 137.579 57.4474 142.883 59.6291C148.187 61.8108 152.075 63.9822 150.814 66.3087C149.552 68.6352 146.233 71.303 144.341 73.3813C142.449 75.4596 131.819 82.9872 128.459 84.0108C125.098 85.0345 122.389 85.7273 120.755 85.7583C119.111 85.7996 118.636 86.4614 115.906 84.9104C113.176 83.3594 109.96 81.6636 108.833 81.2604C107.706 80.8571 106.104 81.126 101.802 77.8378C97.4904 74.5497 94.0989 71.1168 94.0989 71.1168L77.3584 66.5983L87.14 44.7602Z" fill="#FDFEFF" stroke="#333F51" stroke-width="0.7755" stroke-miterlimit="10"/>
<path d="M93.2295 45.2774L81.7004 72.9473L70.1816 70.1555L83.3134 42.2168L93.2295 45.2774Z" fill="#FDFEFF" stroke="#333F51" stroke-width="0.7755" stroke-miterlimit="10"/>
<path d="M67.4421 33.6953L87.9671 41.9156L74.1321 74.7865L42.4297 68.872L43.8566 66.6489L67.4421 33.6953Z" fill="#333F51" stroke="#333F51" stroke-width="0.7755" stroke-miterlimit="10"/>
<path d="M128.458 54.1387C128.458 54.1387 124.508 62.2039 123.257 63.941C122.016 65.6781 114.933 67.6737 113.413 66.981" stroke="#333F51" stroke-width="0.7755" stroke-miterlimit="10"/>
<path d="M118.139 74.1994C118.139 74.1994 115.792 73.5273 115.182 75.5126C114.571 77.4979 116.95 82.6265 118.056 85.0357C119.162 87.4449 119.928 87.7862 122.916 88.1067C125.914 88.4376 127.879 86.8142 127.879 86.8142C127.879 86.8142 124.643 84.2912 124.157 83.5468C123.681 82.8023 118.139 74.1994 118.139 74.1994Z" fill="#FDFEFF" stroke="#333F51" stroke-width="0.7755" stroke-miterlimit="10"/>
<path d="M135.965 81.7056C135.965 81.7056 131.571 87.8475 129.72 87.3305C127.869 86.8135 125.584 85.7795 124.746 84.9833C123.909 84.1768 119.163 77.5592 118.532 75.8945C117.901 74.2298 117.942 71.6447 119.752 70.5177C121.561 69.3906 121.561 69.3906 121.561 69.3906C121.561 69.3906 123.981 71.9343 127.321 74.3125C130.661 76.6907 137.03 79.6376 137.144 80.3303C137.268 81.0231 135.965 81.7056 135.965 81.7056Z" fill="#FDFEFF" stroke="#333F51" stroke-width="0.7755" stroke-miterlimit="10"/>
<path d="M143.886 74.861C143.886 74.861 144.403 75.833 143.545 77.0324C142.687 78.2319 141.704 82.9779 138.985 82.8435C136.255 82.7091 129.72 79.4416 128.521 78.5834C127.321 77.7252 122.058 70.1253 121.583 69.3808C121.107 68.6363 122.823 66.2375 123.764 65.493C124.695 64.7485 127.29 66.2064 127.29 66.2064C127.29 66.2064 137.744 73.2997 143.886 74.861Z" fill="#FDFEFF" stroke="#333F51" stroke-width="0.7755" stroke-miterlimit="10"/>
<path d="M146.244 64.2419C146.244 64.2419 139.678 64.3866 138.685 64.0868C137.693 63.7766 130.527 61.6776 130.527 61.6776C130.527 61.6776 129.441 61.5018 128.293 63.1045C127.146 64.7072 127.683 66.496 128.821 67.7161C129.969 68.9362 134.198 73.1756 136.41 73.7547C138.623 74.3337 144.31 74.5612 146.078 74.6232C147.857 74.6853 148.746 73.7133 149.129 71.7591C149.511 69.8151 150.814 66.3099 150.814 66.3099" fill="#FDFEFF"/>
<path d="M146.244 64.2419C146.244 64.2419 139.678 64.3866 138.685 64.0868C137.693 63.7766 130.527 61.6776 130.527 61.6776C130.527 61.6776 129.441 61.5018 128.293 63.1045C127.146 64.7072 127.683 66.496 128.821 67.7161C129.969 68.9362 134.198 73.1756 136.41 73.7547C138.623 74.3337 144.31 74.5612 146.078 74.6232C147.857 74.6853 148.746 73.7133 149.129 71.7591C149.511 69.8151 150.814 66.3099 150.814 66.3099" stroke="#333F51" stroke-width="0.7755" stroke-miterlimit="10"/>
<path d="M238.539 194.658C238.539 194.658 231.301 226.36 231.012 241.27C230.732 256.181 231.549 309.918 231.828 321.447C232.108 332.976 237.174 370.396 237.174 373.767C237.174 377.138 238.022 383.611 238.022 383.611L235.768 395.709C235.768 395.709 233.803 397.394 228.737 400.206C223.67 403.019 217.766 406.679 216.081 408.644C215.202 409.668 215.595 411.25 216.846 411.736C218.438 412.346 220.661 413.007 223.112 413.152C227.889 413.431 235.768 413.431 239.987 412.304C244.205 411.177 247.587 407.527 249.551 406.121C251.516 404.715 251.516 404.715 251.516 404.715L251.795 407.806C251.795 407.806 252.074 407.806 254.607 407.248C257.141 406.69 260.512 404.715 260.512 404.715C260.512 404.715 260.791 399.938 260.791 397.115C260.791 394.302 259.385 389.236 259.105 388.109C258.826 386.982 259.105 376.859 258.258 373.478C257.41 370.107 256.851 370.944 256.293 364.761C255.735 358.578 260.791 300.064 260.512 298.378C260.232 296.693 267.677 245.965 267.677 245.965C267.677 245.965 281.895 312.161 286.393 324.818C290.891 337.474 293.145 361.948 293.145 363.634C293.145 365.319 295.678 385.296 296.805 388.109C297.932 390.921 301.024 399.638 301.024 399.638C301.024 399.638 305.522 406.39 307.497 409.761C309.461 413.131 316.213 415.954 321.28 416.792C326.346 417.64 330.286 417.919 330.565 411.167C330.844 404.415 328.311 399.917 324.092 396.825C319.874 393.734 319.026 390.921 319.026 390.921C319.026 390.921 319.584 383.321 319.026 378.544C318.467 373.767 315.365 370.107 315.086 360.263C314.807 350.419 312.832 298.657 311.147 290.499C309.461 282.341 307.238 227.756 307.517 220.166C307.796 212.566 306.814 191.411 306.814 191.411L238.322 190.625L238.539 194.658Z" fill="#333F51" stroke="#333F51" stroke-width="0.7755" stroke-miterlimit="10"/>
<path d="M265.422 81.3204C265.422 81.3204 254.968 87.483 247.565 91.1951C240.161 94.8968 231.134 96.9855 230.204 99.0638C229.273 101.142 213.308 135.171 210.299 139.803C207.29 144.436 200.114 153.463 201.5 158.55C202.885 163.637 208.676 170.586 212.378 170.12C216.079 169.655 223.483 167.577 226.502 162.252C229.511 156.926 236.687 139.803 236.687 139.803C236.687 139.803 237.845 155.779 237.617 163.647C237.39 171.516 237.39 177.999 236.925 181.929C236.459 185.868 234.381 190.728 235.301 192.114C236.232 193.499 237.38 194.895 238.538 194.657C239.696 194.43 257.057 194.192 262.382 194.43C267.707 194.657 291.778 194.43 296.866 194.657C301.953 194.885 306.358 192.341 306.823 191.421C307.288 190.5 308.209 189.105 307.754 184.017C307.288 178.93 308.219 163.42 309.605 157.402C310.99 151.384 319.324 128.233 319.324 128.233C319.324 128.233 341.317 145.594 345.939 146.979C350.572 148.365 363.073 146.287 367.229 141.189C371.396 136.102 372.782 132.162 370.238 128.688C367.695 125.214 358.43 121.977 348.71 111.555C338.991 101.142 335.289 96.2824 328.568 93.0356C321.857 89.7992 308.198 85.3944 304.962 84.0088C301.725 82.6232 300.795 81.9305 298.717 80.9999C296.638 80.0693 291.768 78.2184 282.741 77.9909C273.714 77.7635 265.422 81.3204 265.422 81.3204Z" fill="#86EFAC" stroke="#333F51" stroke-width="0.7755" stroke-miterlimit="10"/>
<path d="M232.024 123.393C232.344 124.509 236.687 139.792 236.687 139.792L230.276 127.063" stroke="#333F51" stroke-width="0.7755" stroke-miterlimit="10"/>
<path d="M319.314 128.221C318.342 128.18 309.253 123.082 309.253 123.082" stroke="#333F51" stroke-width="0.7755" stroke-miterlimit="10"/>
<path d="M304.621 122.441C304.621 122.441 308.292 127.229 311.487 128.19" stroke="#333F51" stroke-width="0.7755" stroke-miterlimit="10"/>
<path d="M264.131 95.5185L267.036 106.489C267.036 106.489 257.834 152.482 256.386 160.226C254.938 167.971 254.607 174.423 254.607 174.423L262.673 190.398L272.837 173.131C272.837 173.131 271.865 151.344 271.544 133.911C271.224 116.478 271.865 108.092 271.71 107.606C271.544 107.12 281.874 99.5408 281.874 99.5408C281.874 99.5408 287.84 92.9232 288.171 91.7961C288.492 90.669 283.973 92.1166 283.011 93.0886C282.039 94.0606 279.134 95.8287 274.946 95.0222C270.748 94.2157 265.268 89.5316 264.461 91.7961C263.645 94.0709 264.131 95.5185 264.131 95.5185Z" fill="#333F51" stroke="#333F51" stroke-width="0.7755" stroke-miterlimit="10"/>
<path d="M271.068 76.8016C270.582 77.1221 266.715 78.0941 265.423 81.3202C264.13 84.5462 257.513 99.3945 255.579 101.814C253.645 104.234 256.706 103.262 259.291 101.649C261.876 100.036 264.13 93.7385 265.588 96.4889C267.036 99.229 271.234 100.366 271.234 100.366C271.234 100.366 279.95 98.7534 281.884 97.4609C283.818 96.1684 285.596 94.3899 285.596 94.3899C285.596 94.3899 293.02 105.526 295.119 106.498C297.218 107.47 297.539 105.857 297.704 104.078C297.87 102.3 299.317 91.8152 301.416 84.8771C303.515 77.939 299.483 75.6745 296.898 72.769C294.313 69.8634 291.407 71.797 288.502 72.1279C285.596 72.4381 271.068 76.8016 271.068 76.8016Z" fill="#86EFAC" stroke="#333F51" stroke-width="0.7755" stroke-miterlimit="10"/>
<path d="M266.642 27.108C266.642 27.108 261.596 34.7596 262.537 36.6311C263.468 38.5027 263.468 40.9222 262.537 42.2354C261.607 43.5382 260.48 45.2237 260.852 48.398C261.224 51.5724 259.363 67.6304 262.155 69.502C264.957 71.3735 267.945 72.3041 267.945 72.3041C267.945 72.3041 271.12 99.1985 272.236 98.4437C273.353 97.6992 289.411 81.2689 291.283 77.7119C293.154 74.1653 295.388 69.1194 295.388 69.1194C295.388 69.1194 301.736 56.9802 305.469 51.9447C309.202 46.8987 313.503 37.5617 312.19 32.7123C310.887 27.8525 304.156 24.3058 300.981 21.6898C297.807 19.0738 299.865 13.0973 295.377 10.109C290.9 7.12076 285.482 6.37628 281.935 7.67912C278.389 8.98196 278.202 11.7841 273.901 8.98196C269.61 6.17982 265.495 3.37768 258.96 6.55206C252.425 9.72644 251.112 20.935 255.041 23.9233C258.991 26.9219 266.642 27.108 266.642 27.108Z" fill="#FDFEFF" stroke="#333F51" stroke-width="0.7755" stroke-miterlimit="10"/>
<path d="M301.002 21.6898C297.828 19.0738 299.885 13.0973 295.398 10.109C290.921 7.12076 285.502 6.37628 281.956 7.67912C278.409 8.98196 278.223 11.7841 273.922 8.98196C269.63 6.17982 265.515 3.37768 258.98 6.55206C252.445 9.72644 251.132 20.935 255.061 23.9233C258.98 26.9115 266.642 27.0976 266.642 27.0976C266.642 27.0976 272.246 24.4816 275.979 22.4343C279.712 20.3766 288.118 23.7371 289.607 25.0503C291.096 26.3532 288.863 25.4226 288.491 27.8525C288.118 30.2824 292.782 34.2012 294.839 36.0728C296.897 37.9443 294.467 39.2471 293.909 41.677C293.35 44.1069 295.594 45.0375 296.897 44.1069C298.2 43.1763 302.315 37.9443 303.804 40.9326C305.293 43.9208 307.537 48.398 303.432 51.5724C299.327 54.7468 296.339 54.0023 296.339 54.0023C296.339 54.0023 294.994 62.0882 298.882 62.7293C300.961 58.9965 303.577 54.54 305.49 51.955C309.222 46.9091 313.524 37.5721 312.211 32.7226C310.897 27.8525 304.176 24.3058 301.002 21.6898Z" fill="#333F51" stroke="#333F51" stroke-width="0.7755" stroke-miterlimit="10"/>
<path d="M276.725 37.0042C276.725 37.0042 278.596 36.2598 280.457 36.4459" stroke="#333F51" stroke-width="0.517" stroke-miterlimit="10"/>
<path d="M267.169 38.8438C267.169 38.8438 265.536 39.185 264.522 39.795" stroke="#333F51" stroke-width="0.517" stroke-miterlimit="10"/>
<path d="M267.232 33.7461C267.232 33.7461 268.39 35.8554 267.78 37.8924C267.17 39.9294 261.4 44.479 261.462 45.3683C261.535 46.2472 264.854 48.0877 264.792 48.8321C264.72 49.5766 264.523 50.7968 264.523 50.7968" stroke="#333F51" stroke-width="0.7755" stroke-miterlimit="10"/>
<path d="M279.868 39.5884C280.541 39.5884 281.088 38.9172 281.088 38.0891C281.088 37.2611 280.541 36.5898 279.868 36.5898C279.194 36.5898 278.647 37.2611 278.647 38.0891C278.647 38.9172 279.194 39.5884 279.868 39.5884Z" fill="#333F51" stroke="#333F51" stroke-width="0.517" stroke-miterlimit="10"/>
<path d="M277.488 40.5395C277.695 40.4671 280.683 39.247 282.648 39.3814" stroke="#333F51" stroke-width="0.7755" stroke-miterlimit="10"/>
<path d="M273.177 31.5448C273.177 31.5448 277.178 27.8327 280.291 28.5772C283.393 29.332 284.571 32.3099 284.075 32.3203C283.579 32.3306 282.017 30.0145 280.301 29.849C278.595 29.6732 277.395 30.4798 275.938 31.2242C274.469 31.9584 273.559 32.4857 273.177 31.5448Z" fill="#333F51" stroke="#333F51" stroke-width="0.517" stroke-miterlimit="10"/>
<path d="M267.51 34.4924C267.51 34.1925 267.035 32.7966 265.204 33.0654C263.374 33.3343 261.978 36.6638 262.537 36.6327C263.095 36.6017 263.705 34.4924 265.132 34.2856C266.559 34.0891 267.51 36.3329 267.51 34.4924Z" fill="#333F51" stroke="#333F51" stroke-width="0.517" stroke-miterlimit="10"/>
<path d="M264.378 55.0043C264.378 55.0043 267.294 54.6631 271.099 54.1874C274.904 53.7118 280.271 52.9673 281.149 50.2479C282.028 47.5285 281.832 46.1016 281.832 46.1016" stroke="#333F51" stroke-width="0.7755" stroke-miterlimit="10"/>
<path d="M279.794 45.9058C280.063 45.8335 282.234 45.8335 283.123 46.1126" stroke="#333F51" stroke-width="0.7755" stroke-miterlimit="10"/>
<path d="M295.47 59.3281C295.47 59.3281 294.746 63.34 291.355 65.5011C287.963 67.6622 263.054 70.1334 263.871 70.4436C264.698 70.7538 267.945 72.3048 267.945 72.3048L268.917 81.1455C268.917 81.1455 273.653 76.6166 281.883 72.3979C290.124 68.1792 295.274 66.7316 295.47 59.3281Z" fill="#333F51" stroke="#333F51" stroke-width="0.517" stroke-miterlimit="10"/>
<path d="M309.368 180.065C309.368 180.065 304.736 179.838 303.578 179.6C302.42 179.373 298.718 175.898 297.095 176.126C295.471 176.353 292.462 179.6 291.304 182.371C290.146 185.153 289.681 186.538 289.681 186.538C289.681 186.538 285.514 190.24 287.603 192.784C289.681 195.327 291.997 194.407 291.997 194.407C291.997 194.407 293.383 196.723 295.233 196.951C297.084 197.178 299.4 197.178 299.4 197.178C299.4 197.178 301.717 197.871 303.102 197.643C304.488 197.416 305.884 196.485 305.884 196.485C305.884 196.485 307.507 196.713 308.665 195.793C309.513 195.11 313.628 190.922 315.738 188.751C316.492 187.976 316.999 187.459 316.999 187.459L309.368 180.065Z" fill="#FDFEFF" stroke="#333F51" stroke-width="0.7755" stroke-miterlimit="10"/>
<path d="M348.019 132.388C348.019 132.388 339.458 141.88 336.676 146.513C333.895 151.145 325.333 163.181 322.097 166.883C318.861 170.584 307.518 179.611 307.518 179.611C307.518 179.611 310.992 187.014 313.535 188.173C316.079 189.331 318.168 189.796 318.168 189.796L327.422 182.847C327.422 182.847 345.01 169.426 354.275 161.785C363.529 154.144 376.496 143.959 377.426 139.564C378.357 135.17 377.654 132.854 373.032 129.379C368.399 125.905 363.54 124.52 363.54 124.52" fill="#86EFAC"/>
<path d="M348.019 132.388C348.019 132.388 339.458 141.88 336.676 146.513C333.895 151.145 325.333 163.181 322.097 166.883C318.861 170.584 307.518 179.611 307.518 179.611C307.518 179.611 310.992 187.014 313.535 188.173C316.079 189.331 318.168 189.796 318.168 189.796L327.422 182.847C327.422 182.847 345.01 169.426 354.275 161.785C363.529 154.144 376.496 143.959 377.426 139.564C378.357 135.17 377.654 132.854 373.032 129.379C368.399 125.905 363.54 124.52 363.54 124.52" stroke="#333F51" stroke-width="0.7755" stroke-miterlimit="10"/>
<path d="M314.694 173.82C314.694 173.82 316.773 184.005 323.949 184.005" stroke="#333F51" stroke-width="0.7755" stroke-miterlimit="10"/>
<path d="M213.837 98.8251C213.837 98.8251 214.798 106.963 215.274 110.633C215.749 114.304 216.866 115.896 216.866 115.896C216.866 115.896 209.37 132.647 209.049 133.133C208.729 133.609 200.912 148.292 199.64 150.05C198.368 151.807 195.328 157.391 197.251 160.896C199.164 164.401 202.194 171.588 206.185 171.743C210.176 171.898 215.76 169.509 219.586 167.276C223.411 165.042 224.694 163.605 225.014 157.225C225.335 150.846 225.169 139.358 226.286 133.288C227.403 127.229 228.199 120.839 228.995 118.45C229.791 116.062 234.423 116.858 236.016 115.896C237.608 114.935 239.045 112.867 241.92 111.585C244.794 110.313 248.786 110.623 249.737 110.944C250.699 111.264 252.446 109.827 251.97 108.069C251.495 106.311 248.3 105.36 245.105 105.681C241.91 106.001 239.045 106.952 238.239 106.477C237.443 106.001 236.647 97.543 236.647 97.543C236.647 97.543 225.314 98.5046 221.333 98.6597C217.342 98.8251 213.837 98.8251 213.837 98.8251Z" fill="#FDFEFF" stroke="#333F51" stroke-width="0.7755" stroke-miterlimit="10"/>
<path d="M219.42 125.948C216.587 125.658 215.015 123.456 214.219 121.791C212.027 126.671 209.235 132.844 209.049 133.124C208.729 133.599 200.912 148.282 199.64 150.04C198.368 151.798 195.328 157.381 197.251 160.887C199.164 164.392 202.194 171.578 206.185 171.733C210.176 171.888 215.76 169.5 219.586 167.266C223.411 165.033 224.694 163.596 225.014 157.216C225.335 150.836 225.169 139.348 226.286 133.279C226.834 130.301 227.31 127.261 227.733 124.635C225.262 125.42 221.964 126.217 219.42 125.948Z" fill="#86EFAC" stroke="#333F51" stroke-width="0.7755" stroke-miterlimit="10"/>
<path d="M226.762 108.4C226.762 108.4 224.053 110.789 223.733 112.867C223.412 114.946 224.529 116.693 224.529 116.693" fill="#FDFEFF"/>
<path d="M226.762 108.4C226.762 108.4 224.053 110.789 223.733 112.867C223.412 114.946 224.529 116.693 224.529 116.693" stroke="#333F51" stroke-width="0.7755" stroke-miterlimit="10"/>
<path d="M231.384 92.6013C231.384 92.6013 231.539 103.127 231.539 104.089C231.539 105.051 232.5 105.847 233.297 105.681C234.093 105.526 236.171 106.322 236.647 103.924C237.122 101.535 238.084 94.8244 237.608 93.232C237.133 91.65 232.821 91.0089 231.384 92.6013Z" fill="#FDFEFF" stroke="#333F51" stroke-width="0.7755" stroke-miterlimit="10"/>
<path d="M231.383 92.601C231.383 92.601 226.276 91.3292 224.838 92.1254C223.401 92.9215 225.634 104.254 225.8 105.205C225.955 106.167 228.188 106.643 229.15 106.322C230.112 106.002 231.539 105.361 231.539 104.089C231.539 102.817 231.383 92.601 231.383 92.601Z" fill="#FDFEFF" stroke="#333F51" stroke-width="0.7755" stroke-miterlimit="10"/>
<path d="M223.731 92.4455C223.731 92.4455 220.381 91.8045 219.419 92.9212C218.458 94.0379 218.147 95.6303 218.458 98.5048C218.778 101.379 220.371 105.681 221.012 106.642C221.653 107.604 223.721 107.759 225.003 107.283C226.275 106.808 225.799 105.205 225.799 105.205C225.799 105.205 225.158 104.564 225.003 99.6215C224.848 94.679 224.848 92.125 224.848 92.125L223.731 92.4455Z" fill="#FDFEFF" stroke="#333F51" stroke-width="0.7755" stroke-miterlimit="10"/>
<path d="M218.138 94.3594C217.497 94.5145 213.506 94.6799 213.351 96.2723C213.195 97.8646 214.622 105.371 215.263 106.168C215.905 106.964 217.652 106.643 218.293 106.323C218.934 106.002 220.051 105.527 219.885 104.565C219.741 103.614 218.138 94.3594 218.138 94.3594Z" fill="#FDFEFF" stroke="#333F51" stroke-width="0.7755" stroke-miterlimit="10"/>
</svg>
