<svg width="670" height="564" viewBox="0 0 670 564" fill="none" xmlns="http://www.w3.org/2000/svg">
<path opacity="0.31" d="M665.091 89.3276C667.802 77.8837 660.731 66.407 649.297 63.6936C637.862 60.9802 626.395 68.0577 623.684 79.5016C620.973 90.9455 628.045 102.422 639.479 105.136C650.913 107.849 662.38 100.772 665.091 89.3276Z" fill="#8896AB"/>
<path opacity="0.31" d="M196.289 77.0666C205.857 67.4899 205.857 51.9632 196.289 42.3866C186.72 32.81 171.206 32.8099 161.638 42.3866C152.069 51.9632 152.069 67.49 161.638 77.0666C171.206 86.6432 186.72 86.6432 196.289 77.0666Z" fill="#8896AB"/>
<path opacity="0.31" d="M31.8096 564.001C49.3775 564.001 63.6192 549.747 63.6192 532.165C63.6192 514.582 49.3775 500.328 31.8096 500.328C14.2416 500.328 0 514.582 0 532.165C0 549.747 14.2416 564.001 31.8096 564.001Z" fill="#8896AB"/>
<path d="M282.197 281.542C344.279 281.542 394.605 231.172 394.605 169.038C394.605 106.905 344.279 56.5352 282.197 56.5352C220.116 56.5352 169.789 106.905 169.789 169.038C169.789 231.172 220.116 281.542 282.197 281.542Z" fill="#86EFAC"/>
<path d="M360.22 250.136C360.005 250.136 359.575 250.136 359.36 249.921C358.931 249.491 358.931 248.845 359.36 248.415C380.424 227.334 392.03 199.37 392.03 169.684C392.03 139.999 380.424 111.819 359.36 90.9535C338.297 69.8726 310.356 58.2566 280.696 58.2566C251.036 58.2566 222.88 69.8726 202.032 90.9535C201.602 91.3838 200.957 91.3838 200.527 90.9535C200.098 90.5233 200.098 89.878 200.527 89.4477C222.02 67.9366 250.391 56.1055 280.911 56.1055C311.431 56.1055 339.802 67.9366 361.295 89.4477C382.788 110.959 394.609 139.354 394.609 169.899C394.609 200.445 382.788 228.84 361.295 250.351C360.865 249.921 360.65 250.136 360.22 250.136Z" fill="#2A3342"/>
<path d="M282.198 254.651C329.442 254.651 367.74 216.32 367.74 169.036C367.74 121.753 329.442 83.4219 282.198 83.4219C234.955 83.4219 196.656 121.753 196.656 169.036C196.656 216.32 234.955 254.651 282.198 254.651Z" fill="#FDFEFF"/>
<path d="M282.195 255.727C234.48 255.727 195.578 216.792 195.578 169.038C195.578 121.283 234.48 82.3477 282.195 82.3477C282.84 82.3477 283.269 82.7779 283.269 83.4232C283.269 84.0685 282.84 84.4988 282.195 84.4988C235.555 84.4988 197.727 122.358 197.727 169.038C197.727 215.717 235.555 253.576 282.195 253.576C282.84 253.576 283.269 254.007 283.269 254.652C283.269 255.297 282.84 255.727 282.195 255.727Z" fill="#2A3342"/>
<path d="M304.337 185.388H281.125C276.396 185.388 272.527 181.516 272.527 176.784V144.517C272.527 140.43 275.966 136.988 280.05 136.988C284.134 136.988 287.572 140.43 287.572 144.517V170.331H304.552C308.636 170.331 312.074 173.772 312.074 177.859C311.859 181.947 308.421 185.388 304.337 185.388Z" fill="#2A3342"/>
<path d="M107.463 208.2L228.683 329.523C252.326 353.185 290.798 353.185 314.44 329.523L328.84 315.111C334.214 309.733 334.214 300.698 328.84 295.32L279.407 245.845C274.033 240.467 265.006 240.467 259.633 245.845L234.916 270.582C232.982 272.518 229.758 272.518 227.824 270.582L168.073 210.351C166.139 208.415 166.139 205.404 168.073 203.468L192.36 179.16C197.733 173.782 197.733 164.748 192.36 159.37L141.637 108.604C136.263 103.226 127.451 103.226 122.078 108.388L108.323 121.725C83.8207 145.173 83.6057 184.108 107.463 208.2Z" fill="#2A3342"/>
<path d="M111.337 123.885L179.47 192.075L181.834 189.709L192.58 178.953C197.954 173.575 197.954 164.541 192.58 159.163L141.857 108.397C136.484 103.019 127.672 103.019 122.298 108.181L108.543 121.518L111.337 123.885Z" fill="#E8ECF1"/>
<path d="M179.468 193.576L110.691 124.741L106.822 121.514L121.437 107.317C127.241 101.724 136.697 101.724 142.501 107.532L193.224 158.298C199.027 164.106 199.027 173.786 193.224 179.594L179.468 193.576ZM109.831 121.514L111.981 123.235L179.254 190.565L191.505 178.303C193.869 175.937 195.373 172.71 195.373 169.054C195.373 165.612 194.084 162.385 191.505 159.804L140.781 109.037C135.838 104.09 127.67 104.09 122.727 108.822L109.831 121.514Z" fill="#2A3342"/>
<path d="M249.747 260.26L317.88 328.45L320.244 326.084L330.991 315.328C336.364 309.95 336.364 300.916 330.991 295.538L280.267 244.772C274.894 239.394 266.082 239.394 260.709 244.556L246.953 257.893L249.747 260.26Z" fill="#E8ECF1"/>
<path d="M317.879 329.951L249.101 261.116L245.232 257.889L259.848 243.692C265.651 238.099 275.108 238.099 280.911 243.907L331.634 294.673C334.428 297.469 336.148 301.341 336.148 305.429C336.148 309.516 334.643 313.173 331.634 316.184L317.879 329.951ZM248.456 257.674L250.606 259.395L317.879 326.725L330.13 314.463C332.494 312.097 333.998 308.87 333.998 305.213C333.998 301.772 332.709 298.545 330.13 295.964L279.406 245.197C274.463 240.25 266.296 240.25 261.352 244.982L248.456 257.674Z" fill="#2A3342"/>
<path d="M157.97 158.51C157.755 158.51 157.325 158.51 157.11 158.294L115.844 116.563C115.414 116.133 115.414 115.487 115.844 115.057C116.274 114.627 116.919 114.627 117.348 115.057L158.83 156.574C159.26 157.004 159.26 157.649 158.83 158.079C158.615 158.294 158.4 158.51 157.97 158.51Z" fill="#2A3342"/>
<path d="M323.039 323.716C322.824 323.716 322.394 323.716 322.179 323.501L280.697 281.985C280.268 281.554 280.268 280.909 280.697 280.479C281.127 280.049 281.772 280.049 282.202 280.479L323.683 321.995C324.113 322.426 324.113 323.071 323.683 323.501C323.683 323.501 323.253 323.716 323.039 323.716Z" fill="#2A3342"/>
<path d="M505.085 535.816L346.252 512.368C328.198 509.787 315.947 493.008 318.526 474.939L375.483 89.4594C378.062 71.3901 394.826 59.1287 412.88 61.7101L571.713 85.1572C589.767 87.7385 602.018 104.517 599.439 122.587L542.483 508.066C539.689 526.136 523.139 538.612 505.085 535.816Z" fill="#2A3342"/>
<path d="M387.867 97.9838L334.098 461.852L531.186 491.025L584.955 127.157L387.867 97.9838Z" fill="#E8ECF1"/>
<path d="M387.792 97.9115L383.768 125.148L580.856 154.322L584.88 127.085L387.792 97.9115Z" fill="#86EFAC"/>
<path d="M429.43 511.933C428.785 511.933 428.14 511.933 427.495 511.718C424.056 511.288 421.047 509.351 419.113 506.555C416.964 503.759 416.319 500.317 416.749 497.09C417.179 493.648 419.113 490.637 421.907 488.701C424.701 486.55 428.14 485.689 431.364 486.335C434.803 486.765 437.812 488.701 439.746 491.497C441.895 494.294 442.54 497.736 442.11 500.962C441.251 507.2 435.663 511.933 429.43 511.933ZM429.43 488.271C427.065 488.271 424.916 488.916 422.982 490.422C420.617 492.143 419.113 494.724 418.683 497.52C418.253 500.317 418.898 503.113 420.617 505.479C422.337 507.846 424.916 509.351 427.71 509.782C433.513 510.642 439.101 506.555 439.961 500.747C440.391 497.951 439.746 495.154 438.027 492.788C436.307 490.422 433.728 488.916 430.934 488.486C430.504 488.271 429.859 488.271 429.43 488.271Z" fill="#E8ECF1"/>
<path d="M457.802 94.405C457.588 94.405 457.373 94.405 457.158 94.405C456.083 94.1898 455.008 93.7596 454.364 92.6841C453.719 91.8236 453.504 90.7481 453.504 89.6725C453.719 88.597 454.149 87.5214 455.223 86.8761C456.083 86.2307 457.158 86.0156 458.232 86.0156C459.307 86.2307 460.382 86.661 461.026 87.7365C461.671 88.597 461.886 89.6725 461.886 90.7481C461.671 92.8992 459.952 94.405 457.802 94.405ZM457.802 88.1667C457.373 88.1667 456.943 88.3818 456.728 88.597C456.298 88.8121 456.083 89.4574 455.868 89.8876C455.868 90.3179 455.868 90.9632 456.298 91.3934C456.513 91.8236 457.158 92.0387 457.588 92.2538C458.017 92.2538 458.662 92.2538 459.092 91.8236C459.522 91.6085 459.737 90.9632 459.952 90.5329C459.952 90.1027 459.952 89.4574 459.522 89.0272C459.307 88.5969 458.662 88.3818 458.232 88.1667C458.017 88.1667 458.017 88.1667 457.802 88.1667Z" fill="#E8ECF1"/>
<path d="M521.85 103.867C521.635 103.867 521.42 103.867 521.205 103.867L470.912 96.3386C469.837 96.1235 468.762 95.6932 468.118 94.6177C467.473 93.7572 467.258 92.6817 467.258 91.6061C467.258 90.5305 467.903 89.455 468.977 88.8097C469.837 88.1643 470.912 87.9492 471.986 87.9492L522.28 95.4781C523.354 95.6932 524.429 96.1235 525.074 97.199C525.719 98.0595 525.934 99.135 525.934 100.211C525.934 101.286 525.289 102.362 524.214 103.007C523.784 103.437 522.925 103.867 521.85 103.867ZM471.556 90.3155C470.482 90.3155 469.837 90.9608 469.622 92.0364C469.622 92.4666 469.622 93.1119 470.052 93.5421C470.267 93.9724 470.912 94.1874 471.341 94.4026L521.635 101.931C522.71 102.147 523.784 101.286 523.999 100.211C523.999 99.7803 523.999 99.135 523.569 98.7048C523.354 98.2746 522.71 98.0595 522.28 97.8444L471.986 90.3155C471.771 90.3155 471.771 90.3155 471.556 90.3155Z" fill="#E8ECF1"/>
<path d="M532.164 379.646L394.609 359.211C392.46 358.781 390.311 360.502 389.881 362.653L384.508 398.361C384.078 400.512 385.797 402.663 387.947 403.094L505.513 420.518L517.549 437.296L519.698 422.669L525.287 423.529C527.436 423.959 529.585 422.239 530.015 420.087L535.388 384.379C535.818 382.013 534.314 379.862 532.164 379.646Z" fill="#8896AB"/>
<path d="M505.734 421.592L387.952 404.168C386.663 403.953 385.373 403.307 384.513 402.232C383.654 401.156 383.439 399.65 383.654 398.36L389.027 362.651C389.457 359.855 392.036 357.919 394.83 358.349L426.64 363.081C427.284 363.081 427.714 363.727 427.499 364.372C427.499 365.017 426.855 365.448 426.21 365.233L394.4 360.5C392.681 360.285 391.176 361.36 390.961 363.081L385.588 398.79C385.373 399.65 385.588 400.296 386.233 400.941C386.663 401.586 387.522 402.017 388.167 402.232L505.734 419.656C506.379 419.656 506.808 420.301 506.593 420.946C506.593 421.161 506.164 421.592 505.734 421.592Z" fill="#2A3342"/>
<path d="M554.088 231.646L416.533 211.211C414.384 210.781 412.235 212.502 411.805 214.653L406.432 250.361C406.002 252.512 407.721 254.663 409.87 255.094L527.437 272.518L539.473 289.296L541.622 274.669L547.21 275.529C549.36 275.959 551.509 274.239 551.939 272.087L557.312 236.379C557.742 234.013 556.238 231.862 554.088 231.646Z" fill="#8896AB"/>
<path d="M540.332 292.096L527.007 273.596L409.87 256.172C407.076 255.742 405.142 253.161 405.572 250.364C405.572 249.719 406.216 249.289 406.861 249.504C407.506 249.504 407.936 250.149 407.721 250.794C407.506 251.655 407.721 252.3 408.366 252.945C408.795 253.591 409.655 254.021 410.3 254.236L528.296 271.66L539.043 286.718L540.977 273.596L547.64 274.672C548.5 274.887 549.145 274.672 549.789 274.026C550.434 273.596 550.864 272.736 551.079 272.09L554.518 248.428C554.518 247.783 555.163 247.353 555.807 247.568C556.452 247.568 556.882 248.213 556.667 248.858L553.228 272.521C553.013 273.811 552.368 275.102 551.294 275.962C550.219 276.823 548.715 277.038 547.425 276.823L542.912 276.177L540.332 292.096Z" fill="#2A3342"/>
<path d="M379.998 277.679L517.553 298.114C519.702 298.545 521.422 300.481 520.992 302.847L515.619 338.555C515.189 340.706 513.254 342.427 510.89 341.997L393.324 324.573L376.989 337.049L379.138 322.422L373.55 321.561C371.401 321.131 369.681 319.195 370.111 316.829L375.484 281.121C375.484 278.754 377.634 277.248 379.998 277.679Z" fill="#86EFAC"/>
<path d="M511.535 342.859C511.32 342.859 511.105 342.859 510.675 342.859L437.17 331.889C436.525 331.889 436.095 331.243 436.31 330.598C436.31 329.953 436.955 329.522 437.599 329.738L511.105 340.708C511.965 340.923 512.61 340.708 513.255 340.063C513.899 339.633 514.329 338.772 514.544 338.127L519.917 302.418C520.132 300.698 519.058 299.192 517.338 298.977C516.694 298.977 516.264 298.331 516.479 297.686C516.479 297.041 517.123 296.61 517.768 296.825C520.562 297.256 522.497 299.837 522.067 302.634L516.694 338.342C516.479 339.633 515.834 340.923 514.759 341.784C513.684 342.644 512.61 342.859 511.535 342.859Z" fill="#2A3342"/>
<path d="M338.984 428.428L334.047 461.836L531.135 491.009L536.072 457.602L338.984 428.428Z" fill="#FDFEFF"/>
<path d="M368.172 449.338C367.097 455.791 361.079 460.523 354.631 459.448C348.183 458.372 343.455 452.349 344.53 445.896C345.604 439.443 351.622 434.71 358.07 435.786C364.518 436.861 369.247 442.884 368.172 449.338Z" fill="#8896AB"/>
<path opacity="0.33" d="M513.684 482.036C513.254 482.036 512.61 482.036 512.18 481.821L384.297 462.891C381.503 462.461 378.923 460.955 377.204 458.589C375.485 456.222 374.84 453.426 375.27 450.63C376.129 444.822 381.503 440.734 387.521 441.595L515.404 460.525C521.207 461.385 525.29 466.763 524.431 472.571C523.356 478.164 518.843 482.036 513.684 482.036ZM512.395 479.67C517.123 480.315 521.422 477.088 522.067 472.356C522.496 469.99 521.852 467.838 520.562 465.902C519.272 463.966 517.123 462.891 514.974 462.461L387.091 443.531C382.362 442.886 378.064 446.112 377.419 450.845C376.989 453.211 377.634 455.362 378.923 457.298C380.213 459.234 382.362 460.31 384.512 460.74L512.395 479.67Z" fill="#86EFAC"/>
<path d="M400.2 117.428C399.985 117.428 399.77 117.428 399.555 117.428C397.191 116.998 395.686 114.847 395.901 112.696C396.116 111.62 396.761 110.545 397.621 109.899C398.48 109.254 399.555 109.039 400.845 109.039C403.209 109.469 404.713 111.62 404.498 113.772C404.069 115.923 402.134 117.428 400.2 117.428ZM400.2 111.19C399.77 111.19 399.34 111.405 398.91 111.62C398.48 112.051 398.265 112.481 398.051 112.911C398.051 113.556 398.051 113.987 398.48 114.417C398.91 114.847 399.34 115.062 399.77 115.277C400.845 115.492 401.919 114.632 402.134 113.556C402.134 112.911 402.134 112.481 401.704 112.051C401.274 111.62 400.845 111.405 400.415 111.19H400.2Z" fill="#FDFEFF"/>
<path d="M411.809 119.144C411.594 119.144 411.379 119.144 411.164 119.144C408.8 118.714 407.296 116.563 407.511 114.412C407.94 112.045 410.09 110.54 412.239 110.755C413.314 110.97 414.388 111.4 415.033 112.476C415.678 113.336 415.893 114.412 415.893 115.702C415.678 116.778 415.033 117.853 414.173 118.499C413.529 118.929 412.669 119.144 411.809 119.144ZM411.809 112.906C410.735 112.906 409.875 113.551 409.875 114.627C409.875 115.272 409.875 115.702 410.305 116.133C410.735 116.563 411.164 116.778 411.594 116.993C412.239 116.993 412.669 116.993 413.099 116.563C413.529 116.133 413.744 115.702 413.958 115.272C413.958 114.627 413.959 114.197 413.529 113.766C413.099 113.336 412.669 113.121 412.239 112.906C412.024 112.906 412.024 112.906 411.809 112.906Z" fill="#FDFEFF"/>
<path d="M423.196 120.865C422.981 120.865 422.766 120.865 422.551 120.865C420.187 120.434 418.682 118.283 419.112 116.132C419.542 113.981 421.691 112.26 423.841 112.475C426.205 112.905 427.709 115.057 427.495 117.208C427.065 119.359 425.345 120.865 423.196 120.865ZM423.196 114.626C422.766 114.626 422.336 114.841 421.906 115.057C421.477 115.487 421.262 115.917 421.047 116.347C421.047 116.993 421.047 117.423 421.476 117.853C421.906 118.283 422.336 118.498 422.766 118.713C423.841 118.929 424.915 118.068 425.13 116.993C425.345 115.917 424.485 114.841 423.411 114.626C423.411 114.626 423.411 114.626 423.196 114.626Z" fill="#FDFEFF"/>
<path d="M583.746 155.717L401.056 128.613C400.411 128.613 399.982 127.968 400.197 127.323C400.197 126.677 400.841 126.247 401.486 126.462L583.961 153.566C584.606 153.566 585.036 154.212 584.821 154.857C584.821 155.502 584.176 155.717 583.746 155.717Z" fill="#2A3342"/>
<path d="M507.664 387.819L410.086 373.406C409.441 373.406 409.011 372.761 409.226 372.116C409.226 371.47 409.871 371.04 410.515 371.255L507.879 385.668C508.523 385.668 508.953 386.313 508.738 386.958C508.738 387.389 508.093 387.819 507.664 387.819Z" fill="#FDFEFF"/>
<path d="M450.065 391.258C449.85 391.258 449.85 391.258 450.065 391.258L408.369 385.02C407.724 385.02 407.294 384.374 407.509 383.729C407.509 383.084 408.154 382.653 408.799 382.868L450.28 389.107C450.925 389.107 451.355 389.752 451.14 390.397C450.925 390.828 450.495 391.258 450.065 391.258Z" fill="#FDFEFF"/>
<path d="M436.091 400.299C435.876 400.299 435.876 400.299 436.091 400.299L406.861 395.996C406.216 395.996 405.786 395.351 406.001 394.706C406.001 394.06 406.646 393.63 407.291 393.845L436.306 398.148C436.951 398.148 437.381 398.793 437.166 399.439C436.951 399.869 436.521 400.299 436.091 400.299Z" fill="#FDFEFF"/>
<path d="M505.945 399.434L462.959 392.981C462.314 392.981 461.884 392.335 462.099 391.69C462.099 391.044 462.744 390.614 463.388 390.829L506.159 397.068C506.804 397.068 507.234 397.713 507.019 398.358C507.019 399.004 506.374 399.434 505.945 399.434Z" fill="#FDFEFF"/>
<path d="M495.841 306.94C495.626 306.94 495.626 306.94 495.841 306.94L398.263 292.527C397.618 292.527 397.189 291.882 397.404 291.237C397.404 290.591 398.048 290.161 398.693 290.376L496.056 304.789C496.701 304.789 497.131 305.434 496.916 306.079C496.701 306.51 496.271 306.94 495.841 306.94Z" fill="#FDFEFF"/>
<path d="M438.024 310.383L396.328 304.145C395.683 304.145 395.253 303.499 395.468 302.854C395.468 302.209 396.113 301.778 396.758 301.993L438.239 308.232C438.884 308.232 439.314 308.877 439.099 309.522C439.099 309.953 438.669 310.383 438.024 310.383Z" fill="#FDFEFF"/>
<path d="M481.229 327.805L396.976 314.684C396.331 314.684 395.902 314.038 396.116 313.393C396.116 312.748 396.761 312.317 397.406 312.533L481.443 325.654C482.088 325.654 482.518 326.3 482.303 326.945C482.088 327.375 481.658 327.805 481.229 327.805Z" fill="#FDFEFF"/>
<path d="M494.12 318.559C493.905 318.559 493.905 318.559 494.12 318.559L451.134 312.106C450.49 312.106 450.06 311.46 450.275 310.815C450.275 310.169 450.919 309.739 451.564 309.954L494.335 316.193C494.98 316.193 495.41 316.838 495.195 317.483C494.98 318.129 494.55 318.559 494.12 318.559Z" fill="#FDFEFF"/>
<path d="M397.619 143.452L535.174 163.888C537.323 164.318 539.043 166.254 538.613 168.62L533.24 204.329C532.81 206.48 530.875 208.201 528.511 207.77L410.945 190.346L394.61 202.823L396.759 188.195L391.171 187.335C389.022 186.905 387.302 184.969 387.732 182.602L393.106 146.894C393.32 144.528 395.255 143.022 397.619 143.452Z" fill="#86EFAC"/>
<path d="M533.242 205.191C532.597 205.191 532.167 204.546 532.167 203.9L537.541 168.192C537.756 167.332 537.541 166.686 536.896 166.041C536.466 165.396 535.606 164.965 534.961 164.75L449.634 152.059C448.99 152.059 448.56 151.413 448.775 150.768C448.775 150.123 449.419 149.692 450.064 149.908L535.391 162.599C536.681 162.814 537.97 163.46 538.83 164.535C539.69 165.611 539.905 167.116 539.69 168.407L534.317 204.116C534.317 204.761 533.887 205.191 533.242 205.191Z" fill="#2A3342"/>
<path d="M513.472 172.713L415.894 158.301C415.249 158.301 414.819 157.656 415.034 157.01C415.034 156.365 415.679 155.935 416.324 156.15L513.687 170.562C514.332 170.562 514.762 171.208 514.547 171.853C514.332 172.283 513.902 172.713 513.472 172.713Z" fill="#FDFEFF"/>
<path d="M455.87 175.945C455.655 175.945 455.655 175.945 455.87 175.945L414.173 169.707C413.529 169.707 413.099 169.062 413.314 168.416C413.314 167.771 413.959 167.341 414.603 167.556L456.085 173.794C456.729 173.794 457.159 174.44 456.944 175.085C456.729 175.73 456.3 175.945 455.87 175.945Z" fill="#FDFEFF"/>
<path d="M498.854 193.579L414.601 180.457C413.956 180.457 413.527 179.812 413.741 179.166C413.741 178.521 414.386 178.091 415.031 178.306L499.069 191.428C499.713 191.428 500.143 192.073 499.928 192.718C499.928 193.149 499.283 193.579 498.854 193.579Z" fill="#FDFEFF"/>
<path d="M511.753 184.332L468.767 177.879C468.122 177.879 467.693 177.234 467.907 176.588C467.907 175.943 468.552 175.513 469.197 175.728L511.968 181.966C512.613 181.966 513.043 182.611 512.828 183.257C512.613 183.902 512.183 184.332 511.753 184.332Z" fill="#FDFEFF"/>
<path d="M529.587 241.112L432.009 226.699C431.365 226.699 430.935 226.054 431.15 225.409C431.15 224.763 431.794 224.333 432.439 224.548L529.802 238.961C530.447 238.961 530.877 239.606 530.662 240.251C530.662 240.897 530.232 241.112 529.587 241.112Z" fill="#FDFEFF"/>
<path d="M471.989 244.559L430.293 238.32C429.648 238.32 429.218 237.675 429.433 237.03C429.433 236.384 430.078 235.954 430.722 236.169L472.204 242.407C472.849 242.407 473.278 243.053 473.064 243.698C472.849 244.128 472.419 244.559 471.989 244.559Z" fill="#FDFEFF"/>
<path d="M458.015 253.584L428.785 249.282C428.14 249.282 427.71 248.636 427.925 247.991C427.925 247.345 428.57 246.915 429.215 247.13L458.23 251.433C458.875 251.433 459.305 252.078 459.09 252.724C458.875 253.154 458.445 253.584 458.015 253.584Z" fill="#FDFEFF"/>
<path d="M527.866 252.942L484.88 246.488C484.236 246.488 483.806 245.843 484.021 245.198C484.021 244.552 484.666 244.122 485.31 244.337L528.081 250.575C528.726 250.575 529.156 251.221 528.941 251.866C528.941 252.511 528.511 252.942 527.866 252.942Z" fill="#FDFEFF"/>
<path d="M331.641 502.914L110.908 527.867C106.61 528.297 102.741 525.285 102.311 520.983L86.4062 379.44C86.4062 379.225 86.6212 379.009 86.8361 379.009L321.969 352.551C322.184 352.551 322.399 352.766 322.399 352.981L338.304 494.524C338.734 498.611 335.725 502.268 331.641 502.914Z" fill="#536989"/>
<path d="M110.047 528.721C105.533 528.721 101.88 525.494 101.235 520.977L85.3301 379.434C85.3301 378.573 85.76 377.928 86.6197 377.713L321.753 351.254C322.612 351.254 323.257 351.684 323.472 352.545L339.377 494.088C339.592 496.454 338.947 498.605 337.443 500.541C335.938 502.262 334.004 503.553 331.639 503.768L110.907 528.721C110.692 528.721 110.477 528.721 110.047 528.721ZM87.6943 379.864L103.599 520.762C104.029 524.419 107.253 527 110.907 526.57L331.424 501.832C333.144 501.617 334.648 500.756 335.938 499.466C337.013 498.175 337.443 496.454 337.228 494.518L321.323 353.62L87.6943 379.864Z" fill="#2A3342"/>
<path opacity="0.29" d="M321.32 502.902L121.866 527.855C117.567 528.285 183.765 443.531 183.121 439.229L86.4023 379.428C86.4023 379.213 86.6173 378.998 86.8322 378.998L321.965 352.539C322.18 352.539 322.395 352.754 322.395 352.969L242.011 432.56C242.441 436.648 325.404 502.257 321.32 502.902Z" fill="#2A3342"/>
<path d="M86.8341 378.997L183.982 282.842C189.785 277.034 198.812 275.959 205.69 280.261L321.322 352.108C321.537 352.323 321.537 352.538 321.322 352.538L86.4043 378.997" fill="#536989"/>
<path d="M86.6193 380.076L86.4044 378.57L86.1895 378.355L86.4044 378.14L183.338 282.2C189.571 276.177 199.028 274.886 206.335 279.619L321.967 351.466C322.397 351.681 322.612 352.326 322.612 352.971C322.397 353.617 321.967 353.832 321.537 354.047L86.6193 380.076ZM196.448 278.758C192.15 278.758 188.066 280.479 184.842 283.491L89.8433 377.494L318.743 351.681L205.26 281.124C202.466 279.403 199.457 278.758 196.448 278.758Z" fill="#2A3342"/>
<path opacity="0.29" d="M86.8322 378.997L183.98 282.842C189.783 277.034 198.811 275.959 205.688 280.261L321.32 352.108C321.535 352.323 321.535 352.538 321.32 352.538L86.4023 378.997" fill="#2A3342"/>
<path d="M194.73 424.386L121.654 526.134L321.109 503.547L227.185 420.514C217.513 411.91 202.468 413.631 194.73 424.386Z" fill="#536989"/>
<path d="M119.506 527.426L194.086 423.743C197.955 418.365 203.758 414.923 210.206 414.278C216.654 413.632 223.317 415.568 228.045 419.871L323.689 504.409L119.506 527.426ZM212.785 416.214C211.926 416.214 211.281 416.214 210.421 416.429C204.618 417.074 199.245 420.301 195.806 425.033L124.234 524.845L318.961 502.904L226.971 421.591C222.887 417.935 217.729 416.214 212.785 416.214Z" fill="#2A3342"/>
<path d="M98.6543 309.314L252.329 291.89C262.431 290.814 271.458 296.837 272.317 305.657L282.204 393.422L239.648 432.788L183.122 439.241L127.24 404.393L117.568 319.424L98.6543 309.314Z" fill="#FDFEFF"/>
<path d="M182.905 440.314L126.379 404.821L116.922 319.852L102.307 307.806L252.543 290.812C257.701 290.166 262.644 291.457 266.728 294.254C270.812 297.05 273.176 301.137 273.821 305.654L283.707 393.85L240.292 433.861L182.905 440.314ZM128.313 403.53L183.335 437.948L239.002 431.71L281.128 392.99L271.241 305.87C270.812 301.998 268.662 298.556 265.008 295.974C261.355 293.608 256.841 292.533 252.328 292.963L102.092 309.957L118.426 318.561L128.313 403.53Z" fill="#2A3342"/>
<path opacity="0.29" d="M194.728 415.561L121.652 526.128L321.107 503.542L227.183 411.904C217.511 403.085 202.466 404.805 194.728 415.561Z" fill="#2A3342"/>
<path d="M194.73 424.386L121.654 526.134L321.109 503.547L227.185 420.514C217.513 411.91 202.468 413.631 194.73 424.386Z" fill="#536989"/>
<path d="M119.506 527.426L194.086 423.743C197.955 418.365 203.758 414.923 210.206 414.278C216.654 413.632 223.317 415.568 228.045 419.871L323.689 504.409L119.506 527.426ZM212.785 416.214C211.926 416.214 211.281 416.214 210.421 416.429C204.618 417.074 199.245 420.301 195.806 425.033L124.234 524.845L318.961 502.904L226.971 421.591C222.887 417.935 217.729 416.214 212.785 416.214Z" fill="#2A3342"/>
<path opacity="0.35" d="M201.818 446.757L148.086 521.401L294.668 504.837L225.676 443.961C218.583 437.722 207.407 439.013 201.818 446.757Z" fill="#E8ECF1"/>
<path d="M87.5684 378.331L86.4316 380.156L182.562 440.114L183.699 438.289L87.5684 378.331Z" fill="#2A3342"/>
<path d="M321.613 351.913L241.238 431.801L242.753 433.327L323.128 353.44L321.613 351.913Z" fill="#2A3342"/>
<path d="M122.081 358.355L95.2145 361.366L90.9159 323.077C90.0562 315.978 95.2145 309.525 102.307 308.879L103.597 308.664C110.689 307.804 117.137 312.966 117.782 320.065L122.081 358.355Z" fill="#E8ECF1"/>
<path d="M94.1395 362.654L89.626 323.288C89.1961 319.631 90.2707 315.974 92.635 312.963C94.9992 309.951 98.2231 308.23 101.877 307.8L103.167 307.585C106.82 307.155 110.474 308.23 113.483 310.597C116.492 312.963 118.212 316.189 118.641 319.846L123.155 359.212L94.1395 362.654ZM104.886 309.736C104.456 309.736 104.026 309.736 103.596 309.736L102.307 309.951C99.0828 310.381 96.2888 311.887 94.3544 314.253C92.42 316.62 91.5603 319.846 91.7752 322.858L95.8589 360.072L120.791 357.491L116.492 320.277C116.062 317.05 114.558 314.253 112.194 312.317C110.044 310.597 107.465 309.736 104.886 309.736Z" fill="#2A3342"/>
<path d="M140.137 338.342C139.492 338.342 139.062 337.912 139.062 337.482C139.062 336.837 139.492 336.406 139.922 336.191L251.256 323.715C251.901 323.715 252.33 324.145 252.545 324.575C252.545 325.221 252.115 325.651 251.686 325.866L140.137 338.342Z" fill="#2A3342"/>
<path d="M144.432 376.417C143.787 376.417 143.357 375.986 143.357 375.556C143.357 374.911 143.787 374.481 144.217 374.265L255.551 361.789C256.195 361.789 256.625 362.219 256.84 362.649C256.84 363.295 256.41 363.725 255.981 363.94L144.432 376.417Z" fill="#2A3342"/>
<path d="M142.286 357.06C141.641 357.06 141.211 356.63 141.211 356.2C141.211 355.554 141.641 355.124 142.071 354.909L190.215 349.531C190.86 349.531 191.29 349.962 191.504 350.392C191.504 351.037 191.075 351.467 190.645 351.682L142.286 357.06Z" fill="#2A3342"/>
<path d="M203.112 350.393C202.467 350.393 202.037 349.962 202.037 349.532C202.037 348.887 202.467 348.457 202.897 348.242L253.62 342.434C254.265 342.434 254.695 342.864 254.91 343.294C254.91 343.939 254.48 344.37 254.05 344.585L203.112 350.393Z" fill="#2A3342"/>
<path d="M146.797 397.712C146.153 397.712 145.723 397.282 145.723 396.852C145.723 396.207 146.153 395.776 146.582 395.561L194.727 390.184C195.371 390.184 195.801 390.614 196.016 391.044C196.016 391.689 195.586 392.12 195.156 392.335L146.797 397.712C147.012 397.712 147.012 397.712 146.797 397.712Z" fill="#2A3342"/>
</svg>
