<svg width="360" height="588" viewBox="0 0 360 588" fill="none" xmlns="http://www.w3.org/2000/svg">
<g clip-path="url(#clip0_279_6705)">
<path d="M120.51 292L74.8809 316.814" stroke="#2A3342" stroke-width="3" stroke-miterlimit="10" stroke-linecap="round" stroke-linejoin="round"/>
<path d="M33.9561 156.406L82.8777 175.693" stroke="#2A3342" stroke-width="3" stroke-miterlimit="10" stroke-linecap="round" stroke-linejoin="round"/>
<path d="M92.5205 47.3906L123.802 97.9586" stroke="#2A3342" stroke-width="3" stroke-miterlimit="10" stroke-linecap="round" stroke-linejoin="round"/>
<path d="M199.067 24.9297L197.538 65.0313" stroke="#2A3342" stroke-width="3" stroke-miterlimit="10" stroke-linecap="round" stroke-linejoin="round"/>
<path d="M290.56 120.421L331.367 79.4961" stroke="#2A3342" stroke-width="3" stroke-miterlimit="10" stroke-linecap="round" stroke-linejoin="round"/>
<path d="M347.478 202.976L382.758 190.98" stroke="#2A3342" stroke-width="3" stroke-miterlimit="10" stroke-linecap="round" stroke-linejoin="round"/>
<path d="M313.727 292.703L343.479 309.638" stroke="#2A3342" stroke-width="3" stroke-miterlimit="10" stroke-linecap="round" stroke-linejoin="round"/>
<path d="M82.0547 119.598L106.163 138.061" stroke="#2A3342" stroke-width="3" stroke-miterlimit="10" stroke-linecap="round" stroke-linejoin="round"/>
<path d="M341.01 154.055L315.373 166.05" stroke="#2A3342" stroke-width="3" stroke-miterlimit="10" stroke-linecap="round" stroke-linejoin="round"/>
<path d="M90.874 241.43L63.5908 249.426" stroke="#2A3342" stroke-width="3" stroke-miterlimit="10" stroke-linecap="round" stroke-linejoin="round"/>
<path d="M325.016 251.898L337.834 255.074" stroke="#2A3342" stroke-width="3" stroke-miterlimit="10" stroke-linecap="round" stroke-linejoin="round"/>
<path d="M335.952 204.152C331.366 200.976 314.314 203.799 303.495 212.501C292.676 221.204 290.206 224.379 290.206 224.379C290.206 224.379 285.384 190.275 285.384 189.216C285.384 188.158 278.446 124.066 277.035 114.658C275.624 105.25 273.507 91.2557 271.508 88.1981C269.391 85.0229 261.041 84.6701 258.219 86.0813C255.396 87.4925 255.396 87.4925 255.396 87.4925C255.396 87.4925 256.808 63.1493 253.985 57.1517C251.163 51.2717 242.46 54.6821 239.991 57.8573C237.521 61.0325 235.757 65.8541 235.757 65.8541C235.757 65.8541 227.76 63.0317 223.174 72.0869C218.588 81.1421 215.177 89.1389 214.472 97.8413C213.766 106.544 209.885 117.716 209.885 117.716C209.885 117.716 205.299 110.424 200.477 114.54C195.656 118.774 190.011 135.12 188.6 146.998C187.188 158.876 185.777 190.275 185.777 190.275C185.777 190.275 182.955 204.622 181.544 216.029C180.132 227.554 181.191 275.3 186.365 295.174C191.54 315.048 198.596 327.632 198.596 327.632C198.596 327.632 210.826 367.733 212.59 373.26C214.354 378.788 233.523 454.875 233.523 454.875L290.676 382.316C290.676 382.316 276.329 342.92 273.272 333.864C270.096 324.809 268.097 321.987 268.097 321.987C268.097 321.987 285.502 297.291 294.91 289.882C304.318 282.591 309.257 258.13 311.609 247.311C314.079 236.492 324.192 221.556 329.72 216.617C335.6 211.796 340.539 207.209 335.952 204.152ZM206.945 187.452C205.887 187.452 206.24 173.811 206.24 157.464C206.24 141.118 209.062 133.709 209.062 133.709C207.651 141 210.473 177.339 210.473 179.691C210.473 182.16 208.004 187.452 206.945 187.452Z" fill="#FDFEFF" stroke="#2A3342" stroke-miterlimit="10" stroke-linecap="round" stroke-linejoin="round"/>
<path d="M259.748 327.868C264.099 325.633 264.922 323.281 264.922 323.281" stroke="#2A3342" stroke-miterlimit="10" stroke-linecap="round" stroke-linejoin="round"/>
<path d="M225.526 319.871C225.526 319.871 244.695 332.454 254.103 329.985" stroke="#2A3342" stroke-miterlimit="10" stroke-linecap="round" stroke-linejoin="round"/>
<path d="M290.324 224.379C290.324 224.379 283.033 235.904 281.269 240.02C279.505 244.253 278.446 247.664 275.389 249.428C272.214 251.192 268.098 253.661 268.098 253.661" stroke="#2A3342" stroke-miterlimit="10" stroke-linecap="round" stroke-linejoin="round"/>
<path d="M269.274 227.789C260.454 231.905 247.988 239.196 240.814 249.78" stroke="#2A3342" stroke-miterlimit="10" stroke-linecap="round" stroke-linejoin="round"/>
<path d="M279.504 223.672C279.504 223.672 276.917 224.495 273.036 226.141" stroke="#2A3342" stroke-miterlimit="10" stroke-linecap="round" stroke-linejoin="round"/>
<path d="M236.933 254.367C236.933 254.367 230.7 265.892 227.878 274.947" stroke="#2A3342" stroke-miterlimit="10" stroke-linecap="round" stroke-linejoin="round"/>
<path d="M235.875 65.7383C235.875 65.7383 234.111 80.3207 231.641 102.312C229.172 124.303 227.76 135.122 228.113 148.999C228.466 162.876 232.347 175.106 231.994 176.87" stroke="#2A3342" stroke-miterlimit="10" stroke-linecap="round" stroke-linejoin="round"/>
<path d="M255.396 87.375C255.396 87.375 254.338 96.4302 255.396 108.308C256.455 120.185 254.338 142.177 254.338 150.526C254.338 158.876 254.691 171.459 255.043 175.222C255.396 179.103 257.513 181.808 257.513 181.808" stroke="#2A3342" stroke-miterlimit="10" stroke-linecap="round" stroke-linejoin="round"/>
<path d="M262.1 183.926C262.1 183.926 263.864 187.101 275.388 187.454" stroke="#2A3342" stroke-miterlimit="10" stroke-linecap="round" stroke-linejoin="round"/>
<path d="M235.64 175.574C235.64 175.574 243.989 177.338 249.634 176.28" stroke="#2A3342" stroke-miterlimit="10" stroke-linecap="round" stroke-linejoin="round"/>
<path d="M205.299 190.156C205.299 190.156 205.299 193.684 195.186 196.742" stroke="#2A3342" stroke-miterlimit="10" stroke-linecap="round" stroke-linejoin="round"/>
<path d="M225.173 180.751C226.231 180.045 230.347 178.634 231.406 173.812" stroke="#2A3342" stroke-miterlimit="10" stroke-linecap="round" stroke-linejoin="round"/>
<path d="M225.762 234.14C225.762 234.14 247.4 226.143 261.159 223.32" stroke="#2A3342" stroke-miterlimit="10" stroke-linecap="round" stroke-linejoin="round"/>
<path d="M287.266 586.941H474.603C461.549 569.654 413.803 506.738 410.628 503.563C406.983 499.917 391.107 497.801 391.107 497.801L344.184 458.757L285.619 361.973L229.995 439.236L220.587 401.721L199.771 479.808C199.771 479.808 275.623 572.241 278.563 575.887C279.034 576.593 282.327 580.709 287.266 586.941Z" fill="#2A3342" stroke="#2A3342" stroke-miterlimit="10" stroke-linecap="round" stroke-linejoin="round"/>
<path d="M140.501 315.992C140.501 315.992 124.978 276.244 121.215 268.952C117.452 261.661 97.2246 229.909 96.1662 221.207C95.1078 212.622 91.9326 198.275 88.6398 192.277C85.347 186.28 95.1078 182.399 103.105 189.925C111.101 197.569 116.041 209.917 115.923 213.445C115.805 216.973 134.033 230.262 134.033 230.262L137.326 199.686C137.326 199.686 140.854 123.716 140.149 112.427C139.443 101.137 138.737 77.0292 147.675 76.0884C156.613 75.1476 158.024 82.3213 158.024 82.3213C158.024 82.3213 158.377 64.3285 168.373 65.5045C176.017 66.4453 178.957 73.6189 180.015 77.0293C181.191 80.4397 182.485 84.7909 182.485 84.7909C182.485 84.7909 188.835 80.5573 194.95 90.6709C198.478 96.5509 206.005 114.896 207.181 119.6C208.357 124.304 208.709 125.951 208.709 125.951C208.709 125.951 217.177 125.716 220.822 134.536C224.585 143.473 229.877 166.64 235.052 185.927C240.226 205.213 239.991 223.441 239.991 223.441C239.991 223.441 241.99 285.299 237.874 304.938C233.758 324.577 225.997 341.394 224.35 342.923C222.704 344.569 199.772 412.424 199.772 412.424L120.039 382.907C120.039 382.907 136.621 342.1 139.325 333.162C142.03 324.342 140.501 315.992 140.501 315.992Z" fill="#FDFEFF" stroke="#2A3342" stroke-miterlimit="10" stroke-linecap="round" stroke-linejoin="round"/>
<path d="M123.802 258.016C123.919 261.896 124.86 264.248 124.86 264.248" stroke="#2A3342" stroke-miterlimit="10" stroke-linecap="round" stroke-linejoin="round"/>
<path d="M131.682 233.672C131.682 233.672 127.213 238.964 124.861 248.254C124.39 250.136 124.155 251.9 123.92 253.546" stroke="#2A3342" stroke-miterlimit="10" stroke-linecap="round" stroke-linejoin="round"/>
<path d="M158.141 82.3203C158.141 82.3203 159.552 106.899 160.493 119.129C161.434 131.36 161.904 150.176 161.904 162.524C162.022 174.872 160.493 190.395 159.67 193.805C158.846 197.216 156.965 201.449 156.965 201.449" stroke="#2A3342" stroke-miterlimit="10" stroke-linecap="round" stroke-linejoin="round"/>
<path d="M182.602 84.7891C182.602 84.7891 178.721 89.3755 180.015 95.2555C181.309 101.135 187.424 134.181 187.424 138.885C187.424 143.707 187.777 185.102 187.894 187.924C188.012 190.747 186.013 200.155 185.072 203.918" stroke="#2A3342" stroke-miterlimit="10" stroke-linecap="round" stroke-linejoin="round"/>
<path d="M208.827 126.07C208.827 126.07 204.358 126.541 205.299 133.597C206.24 140.653 208.592 163.467 208.592 169.818C208.592 176.168 210.121 190.868 209.768 204.745C209.533 218.622 212.708 223.443 214.119 226.971" stroke="#2A3342" stroke-miterlimit="10" stroke-linecap="round" stroke-linejoin="round"/>
<path d="M139.443 218.504C139.443 218.504 137.796 226.501 140.031 230.617C142.148 234.733 145.205 243.435 145.205 248.257" stroke="#2A3342" stroke-miterlimit="10" stroke-linecap="round" stroke-linejoin="round"/>
<path d="M155.554 214.621C155.554 214.621 154.731 221.207 155.672 225.44C156.612 229.674 159.552 234.025 159.552 234.025" stroke="#2A3342" stroke-miterlimit="10" stroke-linecap="round" stroke-linejoin="round"/>
<path d="M182.484 224.969C182.484 224.969 181.544 231.907 183.19 236.258C184.836 240.61 186.836 243.902 186.836 243.902" stroke="#2A3342" stroke-miterlimit="10" stroke-linecap="round" stroke-linejoin="round"/>
<path d="M146.264 586.943L220.469 419.599C220.469 419.599 188.835 393.491 168.02 379.732C147.204 365.973 122.273 366.443 122.273 366.443C122.273 366.443 89.6981 435.827 87.9341 440.296C86.1701 444.765 63.4733 491.805 63.4733 491.805C63.4733 491.805 53.4773 495.333 49.0085 503.33C45.4805 509.563 20.5493 563.776 9.84766 586.943H146.264Z" fill="#4ADE80" stroke="#2A3342" stroke-miterlimit="10" stroke-linecap="round" stroke-linejoin="round"/>
<path d="M198.846 430.595C202.144 428.644 203.237 424.389 201.286 421.091C199.335 417.793 195.08 416.7 191.781 418.651C188.483 420.602 187.391 424.857 189.342 428.155C191.293 431.454 195.548 432.546 198.846 430.595Z" fill="#2A3342" stroke="#2A3342" stroke-miterlimit="10" stroke-linecap="round" stroke-linejoin="round"/>
<path d="M191.54 452.175C190.599 455.82 186.836 458.172 183.19 457.231C179.545 456.291 177.193 452.527 178.134 448.882C179.074 445.236 182.838 442.884 186.483 443.825C190.246 444.766 192.481 448.529 191.54 452.175Z" fill="#2A3342" stroke="#2A3342" stroke-miterlimit="10" stroke-linecap="round" stroke-linejoin="round"/>
</g>
<defs>
<clipPath id="clip0_279_6705">
<rect width="360" height="588" fill="white"/>
</clipPath>
</defs>
</svg>
